STARTFONT 2.1
FONT -Misc-Fixed-Medium-R-Normal--24-230-75-75-C-240-ISO10646-1
SIZE 23 75 75
FONTBOUNDINGBOX 24 24 0 -2
COMMENT "Generated by fontforge, http://fontforge.sourceforge.net"
STARTPROPERTIES 19
FOUNDRY "Misc"
FAMILY_NAME "Fixed"
WEIGHT_NAME "Medium"
SLANT "R"
SETWIDTH_NAME "Normal"
ADD_STYLE_NAME ""
PIXEL_SIZE 24
POINT_SIZE 230
RESOLUTION_X 75
RESOLUTION_Y 75
SPACING "C"
AVERAGE_WIDTH 240
CHARSET_REGISTRY "ISO10646"
CHARSET_ENCODING "1"
COPYRIGHT "from JIS X 9052-1983, by permission to use"
WEIGHT 10
RESOLUTION 103
X_HEIGHT -1
QUAD_WIDTH 24
ENDPROPERTIES
CHARS 8773
STARTCHAR uni0000
ENCODING 0
SWIDTH 1000 0
DWIDTH 24 0
BBX 24 24 0 -2
BITMAP
FFFFFF
EFFDE3
CFF9DD
EFFDDD
EFFDFD
EE1DF3
EFFDFD
EFFDDD
EFFDDD
C7F8E3
FFFFFF
FFFFFF
FFFFFF
FFF8E3
FFF75D
FFF75D
FFF77D
FE187B
FFFF77
FFF76F
FFF75F
FFF8C1
FFFFFF
FFFFFF
ENDCHAR
STARTCHAR exclam
ENCODING 33
SWIDTH 960 0
DWIDTH 24 0
BBX 3 19 10 1
BITMAP
E0
E0
E0
E0
E0
E0
E0
E0
E0
40
40
40
40
40
00
00
E0
E0
E0
ENDCHAR
STARTCHAR quotedbl
ENCODING 34
SWIDTH 1000 0
DWIDTH 24 0
BBX 6 5 9 17
BITMAP
CC
CC
CC
88
88
ENDCHAR
STARTCHAR numbersign
ENCODING 35
SWIDTH 960 0
DWIDTH 24 0
BBX 18 24 3 -2
BITMAP
020400
020400
020400
020400
020400
020400
7FFFC0
7FFFC0
040800
040800
040800
040800
040800
040800
040800
FFFF80
FFFF80
081000
081000
081000
081000
081000
081000
081000
ENDCHAR
STARTCHAR dollar
ENCODING 36
SWIDTH 960 0
DWIDTH 24 0
BBX 15 22 5 -1
BITMAP
0100
0100
07C0
3930
6118
C10C
C10C
E100
7100
3D00
0FC0
03F0
013C
010E
0106
C106
C106
610C
3138
0FC0
0100
0100
ENDCHAR
STARTCHAR percent
ENCODING 37
SWIDTH 960 0
DWIDTH 24 0
BBX 22 22 1 -1
BITMAP
0E0004
318008
208010
60C020
60C040
60C080
60C100
208200
318400
0E0800
001000
002000
0041C0
008630
010410
020C18
040C18
080C18
100C18
200410
400630
8001C0
ENDCHAR
STARTCHAR ampersand
ENCODING 38
SWIDTH 960 0
DWIDTH 24 0
BBX 20 20 2 0
BITMAP
01C000
063000
0C1800
180800
180800
180800
0C1800
0C3000
06C3E0
070080
1B0080
218100
61C100
C0E200
C07400
C03800
C01C10
602E10
30C7E0
0F01C0
ENDCHAR
STARTCHAR quotesingle
ENCODING 39
SWIDTH 1000 0
DWIDTH 24 0
BBX 2 5 11 17
BITMAP
C0
C0
C0
80
80
ENDCHAR
STARTCHAR parenleft
ENCODING 40
SWIDTH 960 0
DWIDTH 24 0
BBX 6 24 13 -2
BITMAP
04
08
18
10
30
20
60
60
40
C0
C0
C0
C0
C0
C0
40
60
60
20
30
10
18
08
04
ENDCHAR
STARTCHAR parenright
ENCODING 41
SWIDTH 960 0
DWIDTH 24 0
BBX 6 24 5 -2
BITMAP
80
40
60
20
30
10
18
18
08
0C
0C
0C
0C
0C
0C
08
18
18
10
30
20
60
40
80
ENDCHAR
STARTCHAR asterisk
ENCODING 42
SWIDTH 960 0
DWIDTH 24 0
BBX 13 14 5 3
BITMAP
0200
0700
0700
C218
E238
3AE0
0700
0700
3AE0
E238
C218
0700
0700
0200
ENDCHAR
STARTCHAR plus
ENCODING 43
SWIDTH 960 0
DWIDTH 24 0
BBX 18 18 3 1
BITMAP
008000
008000
008000
008000
008000
008000
008000
008000
FFFFC0
008000
008000
008000
008000
008000
008000
008000
008000
008000
ENDCHAR
STARTCHAR comma
ENCODING 44
SWIDTH 960 0
DWIDTH 24 0
BBX 3 6 4 -2
BITMAP
E0
E0
60
60
40
80
ENDCHAR
STARTCHAR hyphen
ENCODING 45
SWIDTH 1000 0
DWIDTH 24 0
BBX 18 1 3 9
BITMAP
FFFFC0
ENDCHAR
STARTCHAR period
ENCODING 46
SWIDTH 960 0
DWIDTH 24 0
BBX 3 3 4 1
BITMAP
E0
E0
E0
ENDCHAR
STARTCHAR slash
ENCODING 47
SWIDTH 960 0
DWIDTH 24 0
BBX 24 24 0 -2
BITMAP
000001
000002
000004
000008
000010
000020
000040
000080
000100
000200
000400
000800
001000
002000
004000
008000
010000
020000
040000
080000
100000
200000
400000
800000
ENDCHAR
STARTCHAR zero
ENCODING 48
SWIDTH 960 0
DWIDTH 24 0
BBX 14 20 5 0
BITMAP
0780
1860
3030
6018
6018
C00C
C00C
C00C
C00C
C00C
C00C
C00C
C00C
C00C
C00C
6018
6018
3030
1860
0780
ENDCHAR
STARTCHAR one
ENCODING 49
SWIDTH 960 0
DWIDTH 24 0
BBX 10 20 7 0
BITMAP
0C00
3C00
FC00
0C00
0C00
0C00
0C00
0C00
0C00
0C00
0C00
0C00
0C00
0C00
0C00
0C00
0C00
0C00
0C00
FFC0
ENDCHAR
STARTCHAR two
ENCODING 50
SWIDTH 960 0
DWIDTH 24 0
BBX 14 20 5 0
BITMAP
07C0
1830
3018
600C
400C
800C
000C
0018
0018
0030
0060
00C0
0180
0200
0400
0804
1004
200C
7FFC
FFFC
ENDCHAR
STARTCHAR three
ENCODING 51
SWIDTH 960 0
DWIDTH 24 0
BBX 14 20 5 0
BITMAP
0FC0
38F0
6030
8038
0018
0018
0010
0020
0FC0
1FF0
0078
001C
000C
000C
000C
001C
0018
0070
01C0
FE00
ENDCHAR
STARTCHAR four
ENCODING 52
SWIDTH 960 0
DWIDTH 24 0
BBX 16 20 3 0
BITMAP
0018
0038
0058
0058
0098
0118
0218
0218
0418
0818
1018
1018
2018
4018
FFFF
0018
0018
0018
0018
00FF
ENDCHAR
STARTCHAR five
ENCODING 53
SWIDTH 960 0
DWIDTH 24 0
BBX 13 20 6 0
BITMAP
FFF8
FFF0
8000
8000
8000
8000
8000
8F80
BFE0
E070
8030
0018
0018
0018
0010
0030
0060
00C0
0700
F800
ENDCHAR
STARTCHAR six
ENCODING 54
SWIDTH 960 0
DWIDTH 24 0
BBX 14 20 5 0
BITMAP
01E0
0600
0800
1000
3000
6000
6000
C000
CFC0
F030
C018
C018
C00C
C00C
C00C
6018
6018
3030
1860
0780
ENDCHAR
STARTCHAR seven
ENCODING 55
SWIDTH 960 0
DWIDTH 24 0
BBX 14 20 5 0
BITMAP
FFFC
FFFC
C004
8008
8010
0020
0020
0040
00C0
0080
0180
0180
0100
0300
0300
0300
0600
0600
0600
0600
ENDCHAR
STARTCHAR eight
ENCODING 56
SWIDTH 960 0
DWIDTH 24 0
BBX 16 20 4 0
BITMAP
07E0
1818
300C
6006
6006
6006
7006
3C0C
1F90
07E0
08F8
303C
600E
C007
C003
C003
C003
6006
300C
0FF0
ENDCHAR
STARTCHAR nine
ENCODING 57
SWIDTH 960 0
DWIDTH 24 0
BBX 14 20 5 0
BITMAP
0780
1860
3030
6018
6018
C00C
C00C
C00C
600C
600C
300C
183C
07CC
0018
0018
0030
0060
00C0
0700
7800
ENDCHAR
STARTCHAR colon
ENCODING 58
SWIDTH 960 0
DWIDTH 24 0
BBX 3 13 10 1
BITMAP
E0
E0
E0
00
00
00
00
00
00
00
E0
E0
E0
ENDCHAR
STARTCHAR semicolon
ENCODING 59
SWIDTH 960 0
DWIDTH 24 0
BBX 3 16 10 -2
BITMAP
E0
E0
E0
00
00
00
00
00
00
00
E0
E0
60
60
40
80
ENDCHAR
STARTCHAR less
ENCODING 60
SWIDTH 960 0
DWIDTH 24 0
BBX 20 20 2 0
BITMAP
000030
0000C0
000300
000C00
003000
00C000
030000
0C0000
300000
C00000
300000
080000
060000
018000
006000
001800
000400
000300
0000C0
000030
ENDCHAR
STARTCHAR equal
ENCODING 61
SWIDTH 960 0
DWIDTH 24 0
BBX 18 6 3 7
BITMAP
FFFFC0
000000
000000
000000
000000
FFFFC0
ENDCHAR
STARTCHAR greater
ENCODING 62
SWIDTH 960 0
DWIDTH 24 0
BBX 20 20 2 0
BITMAP
C00000
300000
0C0000
030000
00C000
003000
000C00
000300
0000C0
000030
0000C0
000100
000600
001800
006000
018000
020000
0C0000
300000
C00000
ENDCHAR
STARTCHAR question
ENCODING 63
SWIDTH 960 0
DWIDTH 24 0
BBX 12 19 6 1
BITMAP
1F00
60C0
C060
C030
E030
6030
0060
0060
00C0
0180
0300
0200
0400
0400
0000
0000
0E00
0E00
0E00
ENDCHAR
STARTCHAR at
ENCODING 64
SWIDTH 960 0
DWIDTH 24 0
BBX 18 18 3 1
BITMAP
03F000
0F0C00
1C0200
380100
70EC80
619C80
C30C40
C60C40
861840
8C1880
8C1880
8C3900
445A00
438C00
200080
100100
0C0600
03F800
ENDCHAR
STARTCHAR A
ENCODING 65
SWIDTH 960 0
DWIDTH 24 0
BBX 20 19 2 1
BITMAP
004000
006000
00E000
00B000
00B000
011800
011800
011800
020C00
020C00
040600
040600
07FE00
080300
080300
100180
100180
3001C0
FC07F0
ENDCHAR
STARTCHAR B
ENCODING 66
SWIDTH 960 0
DWIDTH 24 0
BBX 16 19 4 1
BITMAP
FFE0
3018
300C
3006
3006
3006
3006
300C
3008
3FF0
300C
3006
3003
3003
3003
3003
3006
300C
FFF0
ENDCHAR
STARTCHAR C
ENCODING 67
SWIDTH 960 0
DWIDTH 24 0
BBX 17 19 3 1
BITMAP
01E000
061900
180700
300300
600100
600100
C00000
C00000
C00000
C00000
C00000
C00000
C00000
600000
600080
300100
180200
060C00
01F000
ENDCHAR
STARTCHAR D
ENCODING 68
SWIDTH 960 0
DWIDTH 24 0
BBX 17 19 3 1
BITMAP
FFC000
303000
300C00
300600
300300
300300
300180
300180
300180
300180
300180
300180
300180
300300
300300
300600
300C00
303000
FFC000
ENDCHAR
STARTCHAR E
ENCODING 69
SWIDTH 960 0
DWIDTH 24 0
BBX 17 19 3 1
BITMAP
FFFE00
300600
300200
300100
300100
300000
301000
301000
303000
3FF000
303000
301000
301000
300000
300080
300080
300100
300300
FFFF00
ENDCHAR
STARTCHAR F
ENCODING 70
SWIDTH 960 0
DWIDTH 24 0
BBX 16 19 4 1
BITMAP
FFFE
3006
3002
3001
3001
3000
3010
3010
3030
3FF0
3030
3010
3010
3000
3000
3000
3000
3000
FC00
ENDCHAR
STARTCHAR G
ENCODING 71
SWIDTH 960 0
DWIDTH 24 0
BBX 19 19 3 1
BITMAP
01E000
061900
180700
300300
600100
600100
C00000
C00000
C00000
C00000
C01FE0
C00300
C00300
600300
600300
300300
180700
061900
01E100
ENDCHAR
STARTCHAR H
ENCODING 72
SWIDTH 960 0
DWIDTH 24 0
BBX 18 19 3 1
BITMAP
FC0FC0
300300
300300
300300
300300
300300
300300
300300
300300
3FFF00
300300
300300
300300
300300
300300
300300
300300
300300
FC0FC0
ENDCHAR
STARTCHAR I
ENCODING 73
SWIDTH 960 0
DWIDTH 24 0
BBX 8 19 8 1
BITMAP
FF
18
18
18
18
18
18
18
18
18
18
18
18
18
18
18
18
18
FF
ENDCHAR
STARTCHAR J
ENCODING 74
SWIDTH 960 0
DWIDTH 24 0
BBX 14 19 5 1
BITMAP
03FC
0060
0060
0060
0060
0060
0060
0060
0060
0060
0060
0060
0060
6060
E060
C0C0
C0C0
6180
1E00
ENDCHAR
STARTCHAR K
ENCODING 75
SWIDTH 960 0
DWIDTH 24 0
BBX 18 19 3 1
BITMAP
FC3F00
300C00
300800
301000
302000
304000
308000
310000
330000
378000
39C000
30E000
306000
303000
303800
301C00
300E00
300700
FC1FC0
ENDCHAR
STARTCHAR L
ENCODING 76
SWIDTH 960 0
DWIDTH 24 0
BBX 17 19 4 1
BITMAP
FC0000
300000
300000
300000
300000
300000
300000
300000
300000
300000
300000
300000
300000
300000
300080
300080
300100
300300
FFFF00
ENDCHAR
STARTCHAR M
ENCODING 77
SWIDTH 960 0
DWIDTH 24 0
BBX 20 19 2 1
BITMAP
FC03F0
2C02C0
2C02C0
2604C0
2604C0
2604C0
2604C0
2308C0
2308C0
2308C0
2310C0
2190C0
2190C0
21A0C0
20A0C0
20E0C0
20E0C0
2040C0
F843F0
ENDCHAR
STARTCHAR N
ENCODING 78
SWIDTH 960 0
DWIDTH 24 0
BBX 18 19 3 1
BITMAP
F807C0
380100
2C0100
2E0100
260100
230100
238100
218100
20C100
20E100
206100
203100
203900
201D00
200D00
200700
200700
200300
F80100
ENDCHAR
STARTCHAR O
ENCODING 79
SWIDTH 960 0
DWIDTH 24 0
BBX 18 19 3 1
BITMAP
03F000
0C0C00
180600
300300
600180
600180
C000C0
C000C0
C000C0
C000C0
C000C0
C000C0
C000C0
600180
600180
300300
180600
0C0C00
03F000
ENDCHAR
STARTCHAR P
ENCODING 80
SWIDTH 960 0
DWIDTH 24 0
BBX 16 19 4 1
BITMAP
FFF0
300C
3006
3003
3003
3003
3003
3003
3006
300C
3FF0
3000
3000
3000
3000
3000
3000
3000
FC00
ENDCHAR
STARTCHAR Q
ENCODING 81
SWIDTH 960 0
DWIDTH 24 0
BBX 19 22 3 -2
BITMAP
03F000
0C0C00
180600
300300
600180
600180
C000C0
C000C0
C000C0
C000C0
C000C0
C000C0
C000C0
600180
63C180
342100
181200
061400
01F820
000C20
0007C0
000380
ENDCHAR
STARTCHAR R
ENCODING 82
SWIDTH 960 0
DWIDTH 24 0
BBX 19 19 3 1
BITMAP
FFF000
300C00
300600
300300
300300
300300
300300
300600
301800
3FE000
301000
300800
300C00
300C00
300C00
300C00
300C20
300E40
FC0780
ENDCHAR
STARTCHAR S
ENCODING 83
SWIDTH 960 0
DWIDTH 24 0
BBX 15 19 5 1
BITMAP
0F84
307C
601C
C00C
C004
C004
E000
7800
1F00
07E0
00F8
001C
000E
8006
8006
C006
E00C
F818
87E0
ENDCHAR
STARTCHAR T
ENCODING 84
SWIDTH 960 0
DWIDTH 24 0
BBX 20 19 2 1
BITMAP
7FFFE0
606060
406020
806010
806010
006000
006000
006000
006000
006000
006000
006000
006000
006000
006000
006000
006000
006000
01F800
ENDCHAR
STARTCHAR U
ENCODING 85
SWIDTH 960 0
DWIDTH 24 0
BBX 18 19 3 1
BITMAP
FC07C0
300100
300100
300100
300100
300100
300100
300100
300100
300100
300100
300100
300100
300100
300100
180200
180200
0E0C00
03F000
ENDCHAR
STARTCHAR V
ENCODING 86
SWIDTH 960 0
DWIDTH 24 0
BBX 20 19 2 1
BITMAP
FE03F0
3800C0
180080
180080
0C0100
0C0100
0C0100
060200
060200
030400
030400
030400
018800
018800
00D000
00D000
007000
006000
002000
ENDCHAR
STARTCHAR W
ENCODING 87
SWIDTH 960 0
DWIDTH 24 0
BBX 24 19 0 1
BITMAP
FE7F3F
381C0C
181C08
181C08
182608
0C2610
0C2610
0C2610
0C4610
0C4320
064320
064320
064320
068340
028140
028140
0381C0
010080
010080
ENDCHAR
STARTCHAR X
ENCODING 88
SWIDTH 960 0
DWIDTH 24 0
BBX 19 19 3 1
BITMAP
FC07C0
380300
180200
0C0400
0E0800
060800
031000
03A000
01C000
00C000
00E000
017000
023800
021800
040C00
080E00
100700
300380
F807E0
ENDCHAR
STARTCHAR Y
ENCODING 89
SWIDTH 960 0
DWIDTH 24 0
BBX 20 19 2 1
BITMAP
FE03F0
3800C0
180080
0C0100
0E0200
060200
030400
038800
018800
00D000
00E000
006000
006000
006000
006000
006000
006000
006000
01F800
ENDCHAR
STARTCHAR Z
ENCODING 90
SWIDTH 960 0
DWIDTH 24 0
BBX 17 19 3 1
BITMAP
3FFF80
300700
200E00
400C00
401C00
003800
003000
006000
00E000
01C000
018000
030000
070000
0E0000
0C0080
180080
380100
700300
FFFF00
ENDCHAR
STARTCHAR bracketleft
ENCODING 91
SWIDTH 960 0
DWIDTH 24 0
BBX 7 24 13 -2
BITMAP
FE
80
80
80
80
80
80
80
80
80
80
80
80
80
80
80
80
80
80
80
80
80
80
FE
ENDCHAR
STARTCHAR backslash
ENCODING 92
SWIDTH 960 0
DWIDTH 24 0
BBX 24 24 0 -2
BITMAP
800000
400000
200000
100000
080000
040000
020000
010000
008000
004000
002000
001000
000800
000400
000200
000100
000080
000040
000020
000010
000008
000004
000002
000001
ENDCHAR
STARTCHAR bracketright
ENCODING 93
SWIDTH 960 0
DWIDTH 24 0
BBX 7 24 4 -2
BITMAP
FE
02
02
02
02
02
02
02
02
02
02
02
02
02
02
02
02
02
02
02
02
02
02
FE
ENDCHAR
STARTCHAR asciicircum
ENCODING 94
SWIDTH 960 0
DWIDTH 24 0
BBX 6 2 9 20
BITMAP
30
CC
ENDCHAR
STARTCHAR underscore
ENCODING 95
SWIDTH 960 0
DWIDTH 24 0
BBX 24 1 0 -2
BITMAP
FFFFFF
ENDCHAR
STARTCHAR grave
ENCODING 96
SWIDTH 960 0
DWIDTH 24 0
BBX 6 2 9 20
BITMAP
60
FC
ENDCHAR
STARTCHAR a
ENCODING 97
SWIDTH 960 0
DWIDTH 24 0
BBX 15 13 5 1
BITMAP
1F80
7060
6030
0030
0030
03F0
1C30
6030
C030
C030
C032
60F2
1F1C
ENDCHAR
STARTCHAR b
ENCODING 98
SWIDTH 960 0
DWIDTH 24 0
BBX 15 19 4 1
BITMAP
3000
F000
3000
3000
3000
3000
31E0
3618
380C
300C
3006
3006
3006
3006
3006
300C
300C
3C18
23E0
ENDCHAR
STARTCHAR c
ENCODING 99
SWIDTH 960 0
DWIDTH 24 0
BBX 13 13 5 1
BITMAP
07C0
1830
3018
6018
6000
C000
C000
C000
6000
6000
3008
1830
07C0
ENDCHAR
STARTCHAR d
ENCODING 100
SWIDTH 960 0
DWIDTH 24 0
BBX 15 19 5 1
BITMAP
0018
0078
0018
0018
0018
0018
0F18
30D8
6038
6018
C018
C018
C018
C018
C018
6018
6018
3078
0F9E
ENDCHAR
STARTCHAR e
ENCODING 101
SWIDTH 960 0
DWIDTH 24 0
BBX 13 13 5 1
BITMAP
0780
1860
3030
6030
6018
FFF8
C000
C000
6000
6000
3008
1830
07C0
ENDCHAR
STARTCHAR f
ENCODING 102
SWIDTH 960 0
DWIDTH 24 0
BBX 12 19 6 1
BITMAP
00E0
0330
0630
0600
0C00
0C00
FFC0
0C00
0C00
0C00
0C00
0C00
0C00
0C00
0C00
0C00
0C00
0C00
7F80
ENDCHAR
STARTCHAR g
ENCODING 103
SWIDTH 960 0
DWIDTH 24 0
BBX 15 17 5 -2
BITMAP
000C
0F9E
3066
6030
6030
6030
3060
0F80
1000
3000
1FE0
27F8
401C
C00C
C00C
6018
1FE0
ENDCHAR
STARTCHAR h
ENCODING 104
SWIDTH 960 0
DWIDTH 24 0
BBX 16 19 4 1
BITMAP
3000
F000
3000
3000
3000
3000
31E0
3618
380C
300C
300C
300C
300C
300C
300C
300C
300C
300C
FC3F
ENDCHAR
STARTCHAR i
ENCODING 105
SWIDTH 960 0
DWIDTH 24 0
BBX 8 19 8 1
BITMAP
38
38
38
00
00
00
F8
18
18
18
18
18
18
18
18
18
18
18
FF
ENDCHAR
STARTCHAR j
ENCODING 106
SWIDTH 960 0
DWIDTH 24 0
BBX 10 22 5 -2
BITMAP
01C0
01C0
01C0
0000
0000
0000
03C0
00C0
00C0
00C0
00C0
00C0
00C0
00C0
00C0
00C0
00C0
00C0
0180
C180
C300
7C00
ENDCHAR
STARTCHAR k
ENCODING 107
SWIDTH 960 0
DWIDTH 24 0
BBX 16 19 4 1
BITMAP
3000
F000
3000
3000
3000
3000
307E
3010
3020
3040
3080
3300
3780
39C0
30E0
3070
3038
301C
FC7F
ENDCHAR
STARTCHAR l
ENCODING 108
SWIDTH 960 0
DWIDTH 24 0
BBX 6 19 9 1
BITMAP
30
F0
30
30
30
30
30
30
30
30
30
30
30
30
30
30
30
30
FC
ENDCHAR
STARTCHAR m
ENCODING 109
SWIDTH 960 0
DWIDTH 24 0
BBX 20 13 2 1
BITMAP
338700
FC5880
3060C0
3060C0
3060C0
3060C0
3060C0
3060C0
3060C0
3060C0
3060C0
3060C0
F8F1F0
ENDCHAR
STARTCHAR n
ENCODING 110
SWIDTH 960 0
DWIDTH 24 0
BBX 15 13 5 1
BITMAP
33C0
FC30
3018
3018
3018
3018
3018
3018
3018
3018
3018
3018
FC7E
ENDCHAR
STARTCHAR o
ENCODING 111
SWIDTH 960 0
DWIDTH 24 0
BBX 14 13 5 1
BITMAP
0780
1860
3030
6018
6018
C00C
C00C
C00C
6018
6018
3030
1860
0780
ENDCHAR
STARTCHAR p
ENCODING 112
SWIDTH 960 0
DWIDTH 24 0
BBX 15 16 4 -2
BITMAP
31E0
F618
380C
300C
3006
3006
3006
300C
300C
3C18
33E0
3000
3000
3000
3000
FC00
ENDCHAR
STARTCHAR q
ENCODING 113
SWIDTH 960 0
DWIDTH 24 0
BBX 15 16 5 -2
BITMAP
0F88
3078
6018
6018
C018
C018
C018
6018
6018
3078
0F98
0018
0018
0018
0018
007E
ENDCHAR
STARTCHAR r
ENCODING 114
SWIDTH 960 0
DWIDTH 24 0
BBX 13 13 6 1
BITMAP
3070
F1F8
3318
3400
3800
3000
3000
3000
3000
3000
3000
3000
FC00
ENDCHAR
STARTCHAR s
ENCODING 115
SWIDTH 960 0
DWIDTH 24 0
BBX 12 13 6 1
BITMAP
1F20
60E0
C060
C020
E000
7E00
1FC0
01E0
0070
8030
C030
E060
9F80
ENDCHAR
STARTCHAR t
ENCODING 116
SWIDTH 960 0
DWIDTH 24 0
BBX 13 19 5 1
BITMAP
0C00
0C00
0C00
0C00
0C00
0C00
FFE0
0C00
0C00
0C00
0C00
0C00
0C00
0C00
0C00
0C08
0C08
0610
01E0
ENDCHAR
STARTCHAR u
ENCODING 117
SWIDTH 960 0
DWIDTH 24 0
BBX 15 13 4 1
BITMAP
3018
F078
3018
3018
3018
3018
3018
3018
3018
3018
3018
1878
079E
ENDCHAR
STARTCHAR v
ENCODING 118
SWIDTH 960 0
DWIDTH 24 0
BBX 16 13 4 1
BITMAP
FC1F
3004
1804
1808
0C08
0C10
0610
0620
0320
0340
01C0
0180
0080
ENDCHAR
STARTCHAR w
ENCODING 119
SWIDTH 960 0
DWIDTH 24 0
BBX 22 13 1 1
BITMAP
FCFCFC
303030
303020
185820
185820
184C40
0C8C40
0C8640
0C8680
050280
070380
020100
020100
ENDCHAR
STARTCHAR x
ENCODING 120
SWIDTH 960 0
DWIDTH 24 0
BBX 17 13 4 1
BITMAP
FE3F00
380800
1C1000
0E2000
074000
038000
01C000
02E000
047000
083800
101C00
200E00
F83F80
ENDCHAR
STARTCHAR y
ENCODING 121
SWIDTH 960 0
DWIDTH 24 0
BBX 16 16 4 -2
BITMAP
7E1F
1804
1808
0C08
0C10
0610
0620
0320
0340
01C0
0080
0100
0100
C200
C400
7800
ENDCHAR
STARTCHAR z
ENCODING 122
SWIDTH 960 0
DWIDTH 24 0
BBX 14 13 5 1
BITMAP
7FF8
6070
40E0
80C0
01C0
0380
0700
0E00
0C00
1C04
3808
7018
FFF8
ENDCHAR
STARTCHAR braceleft
ENCODING 123
SWIDTH 960 0
DWIDTH 24 0
BBX 5 24 13 -2
BITMAP
08
10
10
30
30
30
30
30
30
20
40
80
40
20
30
30
30
30
30
30
30
10
10
08
ENDCHAR
STARTCHAR bar
ENCODING 124
SWIDTH 960 0
DWIDTH 24 0
BBX 1 24 11 -2
BITMAP
80
80
80
80
80
80
80
80
80
80
80
80
80
80
80
80
80
80
80
80
80
80
80
80
ENDCHAR
STARTCHAR braceright
ENCODING 125
SWIDTH 960 0
DWIDTH 24 0
BBX 5 24 6 -2
BITMAP
80
40
40
60
60
60
60
60
60
20
10
08
10
20
60
60
60
60
60
60
60
40
40
80
ENDCHAR
STARTCHAR asciitilde
ENCODING 126
SWIDTH 1000 0
DWIDTH 24 0
BBX 10 3 7 19
BITMAP
3840
4C80
8700
ENDCHAR
STARTCHAR uni00A0
ENCODING 160
SWIDTH 1000 0
DWIDTH 24 0
BBX 20 7 2 7
BITMAP
CB8CE0
CA5290
AA5090
AB8CE0
9A4280
9A5280
8B8C80
ENDCHAR
STARTCHAR exclamdown
ENCODING 161
SWIDTH 960 0
DWIDTH 24 0
BBX 3 19 10 1
BITMAP
E0
E0
E0
00
00
40
40
40
40
40
E0
E0
E0
E0
E0
E0
E0
E0
E0
ENDCHAR
STARTCHAR cent
ENCODING 162
SWIDTH 960 0
DWIDTH 24 0
BBX 12 16 6 -1
BITMAP
0040
0040
0F80
30E0
6130
6130
C200
C200
C400
C400
6810
6820
30C0
1F00
2000
2000
ENDCHAR
STARTCHAR sterling
ENCODING 163
SWIDTH 960 0
DWIDTH 24 0
BBX 20 20 2 0
BITMAP
003E00
00C180
0100C0
0200E0
0600E0
0600C0
060000
060000
030000
030000
FFFC00
030000
018000
018000
398000
478000
81C010
833060
461FC0
380780
ENDCHAR
STARTCHAR currency
ENCODING 164
SWIDTH 1000 0
DWIDTH 24 0
BBX 16 16 4 2
BITMAP
8001
4002
23C4
1C38
1008
1008
2004
2004
2004
2004
1008
1008
1C38
23C4
4002
8001
ENDCHAR
STARTCHAR yen
ENCODING 165
SWIDTH 960 0
DWIDTH 24 0
BBX 20 20 2 0
BITMAP
FE03F0
3800C0
180080
0C0100
0C0100
060200
FFFFF0
030400
018800
018800
00D000
FFFFF0
006000
006000
006000
006000
006000
006000
006000
01F800
ENDCHAR
STARTCHAR brokenbar
ENCODING 166
SWIDTH 1000 0
DWIDTH 24 0
BBX 1 20 11 0
BITMAP
80
80
80
80
80
80
80
80
00
00
00
00
80
80
80
80
80
80
80
80
ENDCHAR
STARTCHAR section
ENCODING 167
SWIDTH 960 0
DWIDTH 24 0
BBX 12 20 6 0
BITMAP
1F80
6060
C030
C030
6000
3800
0F00
33C0
40E0
C030
C030
7020
3CC0
0F00
01C0
0060
C030
C030
6060
1F80
ENDCHAR
STARTCHAR dieresis
ENCODING 168
SWIDTH 960 0
DWIDTH 24 0
BBX 6 2 9 20
BITMAP
CC
CC
ENDCHAR
STARTCHAR copyright
ENCODING 169
SWIDTH 1000 0
DWIDTH 24 0
BBX 22 22 1 -1
BITMAP
00FC00
030300
0C00C0
100020
207810
218690
430388
460188
860084
8C0004
8C0004
8C0004
8C0004
860004
460088
430108
218610
207810
100020
0C00C0
030300
00FC00
ENDCHAR
STARTCHAR ordfeminine
ENCODING 170
SWIDTH 1000 0
DWIDTH 24 0
BBX 9 7 2 11
BITMAP
7C00
8600
3E00
6600
C600
CF80
7300
ENDCHAR
STARTCHAR guillemotleft
ENCODING 171
SWIDTH 1000 0
DWIDTH 24 0
BBX 11 19 11 1
BITMAP
0420
0840
0840
18C0
1080
3180
3180
6300
6300
C600
6300
6300
3180
3180
1080
18C0
0840
0840
0420
ENDCHAR
STARTCHAR logicalnot
ENCODING 172
SWIDTH 960 0
DWIDTH 24 0
BBX 18 7 3 5
BITMAP
FFFFC0
000040
000040
000040
000040
000040
000040
ENDCHAR
STARTCHAR uni00AD
ENCODING 173
SWIDTH 1000 0
DWIDTH 24 0
BBX 24 11 0 9
BITMAP
200004
4E4512
514512
9044A1
8E7C41
814441
514442
4E4442
200004
000000
007E00
ENDCHAR
STARTCHAR registered
ENCODING 174
SWIDTH 1000 0
DWIDTH 24 0
BBX 22 22 1 -1
BITMAP
00FC00
030300
0C00C0
100020
2FFC10
230610
430308
430308
830304
830604
830C04
83F004
831804
830C04
430408
430608
230310
2FC3D0
100020
0C00C0
030300
00FC00
ENDCHAR
STARTCHAR macron
ENCODING 175
SWIDTH 1000 0
DWIDTH 24 0
BBX 8 1 8 20
BITMAP
FF
ENDCHAR
STARTCHAR degree
ENCODING 176
SWIDTH 960 0
DWIDTH 24 0
BBX 6 6 3 14
BITMAP
30
48
84
84
48
30
ENDCHAR
STARTCHAR plusminus
ENCODING 177
SWIDTH 960 0
DWIDTH 24 0
BBX 18 18 3 1
BITMAP
008000
008000
008000
008000
008000
008000
008000
FFFFC0
008000
008000
008000
008000
008000
008000
008000
000000
000000
FFFFC0
ENDCHAR
STARTCHAR uni00B2
ENCODING 178
SWIDTH 1000 0
DWIDTH 24 0
BBX 8 10 2 11
BITMAP
3C
66
C2
42
06
0C
18
31
62
FE
ENDCHAR
STARTCHAR uni00B3
ENCODING 179
SWIDTH 1000 0
DWIDTH 24 0
BBX 8 10 2 11
BITMAP
3C
66
42
06
3C
06
C3
C3
66
3C
ENDCHAR
STARTCHAR acute
ENCODING 180
SWIDTH 960 0
DWIDTH 24 0
BBX 6 2 9 20
BITMAP
18
FC
ENDCHAR
STARTCHAR paragraph
ENCODING 182
SWIDTH 960 0
DWIDTH 24 0
BBX 12 23 5 -2
BITMAP
1FF0
7E30
7E30
FE30
FE30
FE30
FE30
7E30
7E30
1E30
0630
0630
0630
0630
0630
0630
0630
0630
0630
0630
0630
0630
0630
ENDCHAR
STARTCHAR periodcentered
ENCODING 183
SWIDTH 1000 0
DWIDTH 24 0
BBX 3 3 10 8
BITMAP
E0
E0
E0
ENDCHAR
STARTCHAR cedilla
ENCODING 184
SWIDTH 1000 0
DWIDTH 24 0
BBX 6 6 9 -2
BITMAP
10
30
38
0C
1C
F8
ENDCHAR
STARTCHAR uni00B9
ENCODING 185
SWIDTH 1000 0
DWIDTH 24 0
BBX 6 10 3 11
BITMAP
10
30
F0
30
30
30
30
30
30
FC
ENDCHAR
STARTCHAR ordmasculine
ENCODING 186
SWIDTH 1000 0
DWIDTH 24 0
BBX 8 7 2 11
BITMAP
3C
66
C3
C3
C3
66
3C
ENDCHAR
STARTCHAR guillemotright
ENCODING 187
SWIDTH 1000 0
DWIDTH 24 0
BBX 11 19 2 1
BITMAP
8400
4200
4200
6300
2100
3180
3180
18C0
18C0
0C60
18C0
18C0
3180
3180
2100
6300
4200
4200
8400
ENDCHAR
STARTCHAR onequarter
ENCODING 188
SWIDTH 1000 0
DWIDTH 24 0
BBX 16 23 4 -2
BITMAP
0080
0180
0780
0180
0180
0180
0180
0180
0180
07E0
0000
FFFF
0000
01C0
02C0
02C0
04C0
04C0
08C0
0FF0
00C0
00C0
01E0
ENDCHAR
STARTCHAR onehalf
ENCODING 189
SWIDTH 1000 0
DWIDTH 24 0
BBX 16 23 4 -2
BITMAP
0080
0180
0780
0180
0180
0180
0180
0180
0180
07E0
0000
FFFF
0000
03C0
0660
0C20
0420
0060
00C0
0180
0310
0620
0FE0
ENDCHAR
STARTCHAR threequarters
ENCODING 190
SWIDTH 1000 0
DWIDTH 24 0
BBX 16 23 4 -2
BITMAP
03C0
0660
0420
0060
03C0
0060
0C30
0C30
0660
03C0
0000
FFFF
0000
01C0
02C0
02C0
04C0
04C0
08C0
0FF0
00C0
00C0
01E0
ENDCHAR
STARTCHAR questiondown
ENCODING 191
SWIDTH 1000 0
DWIDTH 24 0
BBX 12 19 5 1
BITMAP
0700
0700
0700
0000
0000
0200
0200
0400
0C00
1800
3000
6000
6000
C060
C070
C030
6030
3060
0F80
ENDCHAR
STARTCHAR Agrave
ENCODING 192
SWIDTH 1000 0
DWIDTH 24 0
BBX 20 21 2 1
BITMAP
01E000
007000
001800
000400
004000
006000
00E000
00B000
00B000
011800
011800
020C00
020C00
040600
07FE00
080300
080300
100180
100180
3001C0
FC07F0
ENDCHAR
STARTCHAR Aacute
ENCODING 193
SWIDTH 1000 0
DWIDTH 24 0
BBX 20 21 2 1
BITMAP
007800
00E000
018000
020000
004000
006000
00E000
00B000
00B000
011800
011800
020C00
020C00
040600
07FE00
080300
080300
100180
100180
3001C0
FC07F0
ENDCHAR
STARTCHAR Acircumflex
ENCODING 194
SWIDTH 1000 0
DWIDTH 24 0
BBX 20 21 2 1
BITMAP
004000
00E000
01B000
020800
004000
006000
00E000
00B000
00B000
011800
011800
020C00
020C00
040600
07FE00
080300
080300
100180
100180
3001C0
FC07F0
ENDCHAR
STARTCHAR Atilde
ENCODING 195
SWIDTH 1000 0
DWIDTH 24 0
BBX 20 21 2 1
BITMAP
01C200
026400
043800
000000
004000
006000
00E000
00B000
00B000
011800
011800
020C00
020C00
040600
07FE00
080300
080300
100180
100180
3001C0
FC07F0
ENDCHAR
STARTCHAR Adieresis
ENCODING 196
SWIDTH 1000 0
DWIDTH 24 0
BBX 20 20 2 1
BITMAP
019800
019800
000000
004000
006000
00E000
00B000
00B000
011800
011800
020C00
020C00
040600
07FE00
080300
080300
100180
100180
3001C0
FC07F0
ENDCHAR
STARTCHAR Aring
ENCODING 197
SWIDTH 1000 0
DWIDTH 24 0
BBX 20 21 2 1
BITMAP
006000
009000
009000
006000
000000
006000
00E000
00B000
00B000
011800
011800
020C00
020C00
040600
07FE00
080300
080300
100180
100180
3001C0
FC07F0
ENDCHAR
STARTCHAR AE
ENCODING 198
SWIDTH 1000 0
DWIDTH 24 0
BBX 22 19 1 1
BITMAP
007FF8
003818
003808
005800
005800
009800
009810
011810
011830
021FF0
021830
041810
07F810
081800
081800
101800
101804
20180C
F87FFC
ENDCHAR
STARTCHAR Ccedilla
ENCODING 199
SWIDTH 1000 0
DWIDTH 24 0
BBX 17 22 3 -2
BITMAP
01E000
061900
180700
300300
600100
600100
C00000
C00000
C00000
C00000
C00000
C00000
600000
600080
300100
180200
060C00
01F000
008000
01E000
007000
03E000
ENDCHAR
STARTCHAR Egrave
ENCODING 200
SWIDTH 1000 0
DWIDTH 24 0
BBX 17 21 3 1
BITMAP
03C000
00E000
003000
000800
FFFE00
300600
300200
300100
300100
301000
301000
303000
3FF000
303000
301000
301000
300080
300080
300100
300300
FFFF00
ENDCHAR
STARTCHAR Eacute
ENCODING 201
SWIDTH 1000 0
DWIDTH 24 0
BBX 17 21 3 1
BITMAP
00F000
01C000
030000
040000
FFFE00
300600
300200
300100
300100
301000
301000
303000
3FF000
303000
301000
301000
300080
300080
300100
300300
FFFF00
ENDCHAR
STARTCHAR Ecircumflex
ENCODING 202
SWIDTH 1000 0
DWIDTH 24 0
BBX 17 21 3 1
BITMAP
008000
01C000
036000
041000
FFFE00
300600
300200
300100
300100
301000
301000
303000
3FF000
303000
301000
301000
300080
300080
300100
300300
FFFF00
ENDCHAR
STARTCHAR Edieresis
ENCODING 203
SWIDTH 1000 0
DWIDTH 24 0
BBX 17 20 3 1
BITMAP
033000
033000
000000
FFFE00
300600
300200
300100
300100
301000
301000
303000
3FF000
303000
301000
301000
300080
300080
300100
300300
FFFF00
ENDCHAR
STARTCHAR Igrave
ENCODING 204
SWIDTH 1000 0
DWIDTH 24 0
BBX 8 21 8 1
BITMAP
78
1C
06
01
00
FF
18
18
18
18
18
18
18
18
18
18
18
18
18
18
FF
ENDCHAR
STARTCHAR Iacute
ENCODING 205
SWIDTH 1000 0
DWIDTH 24 0
BBX 8 21 8 1
BITMAP
1E
38
60
80
00
FF
18
18
18
18
18
18
18
18
18
18
18
18
18
18
FF
ENDCHAR
STARTCHAR Icircumflex
ENCODING 206
SWIDTH 1000 0
DWIDTH 24 0
BBX 8 21 8 1
BITMAP
10
38
6C
82
00
FF
18
18
18
18
18
18
18
18
18
18
18
18
18
18
FF
ENDCHAR
STARTCHAR Idieresis
ENCODING 207
SWIDTH 1000 0
DWIDTH 24 0
BBX 8 20 8 1
BITMAP
66
66
00
FF
18
18
18
18
18
18
18
18
18
18
18
18
18
18
18
FF
ENDCHAR
STARTCHAR Eth
ENCODING 208
SWIDTH 1000 0
DWIDTH 24 0
BBX 18 19 2 1
BITMAP
7FE000
181800
180600
180300
180180
180180
1800C0
1800C0
1800C0
FFC0C0
1800C0
1800C0
1800C0
180180
180180
180300
180600
181800
7FE000
ENDCHAR
STARTCHAR Ntilde
ENCODING 209
SWIDTH 1000 0
DWIDTH 24 0
BBX 18 21 3 1
BITMAP
038400
04C800
087000
000000
F007C0
380100
3C0100
2E0100
260100
230100
238100
21C100
20E100
206100
203100
203900
201D00
200F00
200700
200300
F80100
ENDCHAR
STARTCHAR Ograve
ENCODING 210
SWIDTH 1000 0
DWIDTH 24 0
BBX 18 21 3 1
BITMAP
03C000
00E000
003000
000800
03F000
0C0C00
180600
300300
600180
600180
C000C0
C000C0
C000C0
C000C0
C000C0
600180
600180
300300
180600
0C0C00
03F000
ENDCHAR
STARTCHAR Oacute
ENCODING 211
SWIDTH 1000 0
DWIDTH 24 0
BBX 18 21 3 1
BITMAP
00F000
01C000
030000
040000
03F000
0C0C00
180600
300300
600180
600180
C000C0
C000C0
C000C0
C000C0
C000C0
600180
600180
300300
180600
0C0C00
03F000
ENDCHAR
STARTCHAR Ocircumflex
ENCODING 212
SWIDTH 1000 0
DWIDTH 24 0
BBX 18 21 3 1
BITMAP
008000
01C000
036000
041000
03F000
0C0C00
180600
300300
600180
600180
C000C0
C000C0
C000C0
C000C0
C000C0
600180
600180
300300
180600
0C0C00
03F000
ENDCHAR
STARTCHAR Otilde
ENCODING 213
SWIDTH 1000 0
DWIDTH 24 0
BBX 18 21 3 1
BITMAP
038400
04C800
087000
000000
03F000
0C0C00
180600
300300
600180
600180
C000C0
C000C0
C000C0
C000C0
C000C0
600180
600180
300300
180600
0C0C00
03F000
ENDCHAR
STARTCHAR Odieresis
ENCODING 214
SWIDTH 1000 0
DWIDTH 24 0
BBX 18 20 3 1
BITMAP
033000
033000
000000
03F000
0C0C00
180600
300300
600180
600180
C000C0
C000C0
C000C0
C000C0
C000C0
600180
600180
300300
180600
0C0C00
03F000
ENDCHAR
STARTCHAR multiply
ENCODING 215
SWIDTH 960 0
DWIDTH 24 0
BBX 16 16 4 2
BITMAP
8001
4002
2004
1008
0810
0420
0240
0180
0180
0240
0420
0810
1008
2004
4002
8001
ENDCHAR
STARTCHAR Oslash
ENCODING 216
SWIDTH 1000 0
DWIDTH 24 0
BBX 19 19 3 1
BITMAP
03F020
0C0C40
180680
300300
600380
600580
C008C0
C010C0
C020C0
C040C0
C080C0
C100C0
C200C0
640180
680180
300300
380600
4C0C00
83F000
ENDCHAR
STARTCHAR Ugrave
ENCODING 217
SWIDTH 1000 0
DWIDTH 24 0
BBX 18 21 3 1
BITMAP
03C000
00E000
001000
000800
FC07C0
300100
300100
300100
300100
300100
300100
300100
300100
300100
300100
300100
300100
180200
180200
0E0C00
03F000
ENDCHAR
STARTCHAR Uacute
ENCODING 218
SWIDTH 1000 0
DWIDTH 24 0
BBX 18 21 3 1
BITMAP
007800
00E000
018000
020000
FC07C0
300100
300100
300100
300100
300100
300100
300100
300100
300100
300100
300100
300100
180200
180200
0E0C00
03F000
ENDCHAR
STARTCHAR Ucircumflex
ENCODING 219
SWIDTH 1000 0
DWIDTH 24 0
BBX 18 21 3 1
BITMAP
004000
00E000
01B000
020800
FC07C0
300100
300100
300100
300100
300100
300100
300100
300100
300100
300100
300100
300100
180200
180200
0E0C00
03F000
ENDCHAR
STARTCHAR Udieresis
ENCODING 220
SWIDTH 1000 0
DWIDTH 24 0
BBX 18 20 3 1
BITMAP
033000
033000
000000
FC07C0
300100
300100
300100
300100
300100
300100
300100
300100
300100
300100
300100
300100
180200
180200
0E0C00
03F000
ENDCHAR
STARTCHAR Yacute
ENCODING 221
SWIDTH 1000 0
DWIDTH 24 0
BBX 20 21 2 1
BITMAP
003C00
007000
00C000
010000
FE03F0
3800C0
180080
0C0100
060200
030400
018800
00D000
006000
006000
006000
006000
006000
006000
006000
006000
01F800
ENDCHAR
STARTCHAR Thorn
ENCODING 222
SWIDTH 1000 0
DWIDTH 24 0
BBX 14 19 5 1
BITMAP
FC00
3000
3000
3000
3FC0
3030
3018
300C
300C
300C
300C
3018
3030
3FC0
3000
3000
3000
3000
FC00
ENDCHAR
STARTCHAR germandbls
ENCODING 223
SWIDTH 1000 0
DWIDTH 24 0
BBX 14 19 5 1
BITMAP
0380
0C60
1830
3018
3018
3018
3030
3060
33C0
3030
3018
300C
300C
300C
300C
300C
361C
3638
F3F0
ENDCHAR
STARTCHAR agrave
ENCODING 224
SWIDTH 1000 0
DWIDTH 24 0
BBX 15 18 5 1
BITMAP
1E00
0700
0180
0040
0000
1F80
7060
6030
0030
0030
03F0
1C30
6030
C030
C030
C032
60F2
1F1C
ENDCHAR
STARTCHAR aacute
ENCODING 225
SWIDTH 1000 0
DWIDTH 24 0
BBX 15 18 5 1
BITMAP
0780
0E00
1800
2000
0000
1F80
7060
6030
0030
0030
03F0
1C30
6030
C030
C030
C032
60F2
1F1C
ENDCHAR
STARTCHAR acircumflex
ENCODING 226
SWIDTH 1000 0
DWIDTH 24 0
BBX 15 18 5 1
BITMAP
0200
0700
0D80
1040
0000
1F80
7060
6030
0030
0030
03F0
1C30
6030
C030
C030
C032
60F2
1F1C
ENDCHAR
STARTCHAR atilde
ENCODING 227
SWIDTH 1000 0
DWIDTH 24 0
BBX 15 18 5 1
BITMAP
1C20
2640
4380
0000
0000
1F80
7060
6030
0030
0030
03F0
1C30
6030
C030
C030
C032
60F2
1F1C
ENDCHAR
STARTCHAR adieresis
ENCODING 228
SWIDTH 1000 0
DWIDTH 24 0
BBX 15 17 5 1
BITMAP
1980
1980
0000
0000
1F80
7060
6030
0030
0030
03F0
1C30
6030
C030
C030
C032
60F2
1F1C
ENDCHAR
STARTCHAR aring
ENCODING 229
SWIDTH 960 0
DWIDTH 24 0
BBX 15 18 5 1
BITMAP
0600
0900
0900
0600
0000
1F80
7060
6030
0030
0030
03F0
1C30
6030
C030
C030
C032
60F2
1F1C
ENDCHAR
STARTCHAR ae
ENCODING 230
SWIDTH 1000 0
DWIDTH 24 0
BBX 20 18 2 1
BITMAP
01E000
007000
001800
000400
000000
1F0700
70D8C0
607060
006060
006030
07FFF0
186000
606000
C06000
C06000
C07010
619860
1E0780
ENDCHAR
STARTCHAR ccedilla
ENCODING 231
SWIDTH 1000 0
DWIDTH 24 0
BBX 12 16 6 -2
BITMAP
0F80
3060
6030
6030
C000
C000
C000
C000
6000
6010
3060
0F80
0400
0F00
0380
1F00
ENDCHAR
STARTCHAR egrave
ENCODING 232
SWIDTH 1000 0
DWIDTH 24 0
BBX 13 18 5 1
BITMAP
0F00
0380
00C0
0020
0000
0780
1860
3030
6030
6018
FFF8
C000
C000
6000
6000
3008
1830
07C0
ENDCHAR
STARTCHAR eacute
ENCODING 233
SWIDTH 1000 0
DWIDTH 24 0
BBX 13 18 5 1
BITMAP
03C0
0700
0C00
1000
0000
0780
1860
3030
6030
6018
FFF8
C000
C000
6000
6000
3008
1830
07C0
ENDCHAR
STARTCHAR ecircumflex
ENCODING 234
SWIDTH 1000 0
DWIDTH 24 0
BBX 13 18 5 1
BITMAP
0200
0700
0D80
1040
0000
0780
1860
3030
6030
6018
FFF8
C000
C000
6000
6000
3008
1830
07C0
ENDCHAR
STARTCHAR edieresis
ENCODING 235
SWIDTH 960 0
DWIDTH 24 0
BBX 13 17 5 1
BITMAP
0CC0
0CC0
0000
0000
0780
1860
3030
6030
6018
FFF8
C000
C000
6000
6000
3008
1830
07C0
ENDCHAR
STARTCHAR igrave
ENCODING 236
SWIDTH 1000 0
DWIDTH 24 0
BBX 8 18 8 1
BITMAP
F0
38
0C
02
00
F8
18
18
18
18
18
18
18
18
18
18
18
FF
ENDCHAR
STARTCHAR iacute
ENCODING 237
SWIDTH 1000 0
DWIDTH 24 0
BBX 8 18 8 1
BITMAP
1E
38
60
80
00
F8
18
18
18
18
18
18
18
18
18
18
18
FF
ENDCHAR
STARTCHAR icircumflex
ENCODING 238
SWIDTH 1000 0
DWIDTH 24 0
BBX 8 18 8 1
BITMAP
10
38
6C
82
00
F8
18
18
18
18
18
18
18
18
18
18
18
FF
ENDCHAR
STARTCHAR idieresis
ENCODING 239
SWIDTH 960 0
DWIDTH 24 0
BBX 8 17 8 1
BITMAP
66
66
00
00
F8
18
18
18
18
18
18
18
18
18
18
18
FF
ENDCHAR
STARTCHAR eth
ENCODING 240
SWIDTH 1000 0
DWIDTH 24 0
BBX 12 19 6 1
BITMAP
1C60
0380
0680
18C0
0060
0060
0E30
31B0
60F0
6070
C070
C030
C030
C030
C030
6060
6060
30C0
0F00
ENDCHAR
STARTCHAR ntilde
ENCODING 241
SWIDTH 1000 0
DWIDTH 24 0
BBX 15 18 5 1
BITMAP
0E10
1320
21C0
0000
0000
33C0
FC30
3018
3018
3018
3018
3018
3018
3018
3018
3018
3018
FC7E
ENDCHAR
STARTCHAR ograve
ENCODING 242
SWIDTH 1000 0
DWIDTH 24 0
BBX 14 18 5 1
BITMAP
0F00
0380
00C0
0020
0000
0780
1860
3030
6018
6018
C00C
C00C
C00C
6018
6018
3030
1860
0780
ENDCHAR
STARTCHAR oacute
ENCODING 243
SWIDTH 1000 0
DWIDTH 24 0
BBX 14 18 5 1
BITMAP
03C0
0700
0C00
1000
0000
0780
1860
3030
6018
6018
C00C
C00C
C00C
6018
6018
3030
1860
0780
ENDCHAR
STARTCHAR ocircumflex
ENCODING 244
SWIDTH 1000 0
DWIDTH 24 0
BBX 14 18 5 1
BITMAP
0200
0700
0D80
1040
0000
0780
1860
3030
6018
6018
C00C
C00C
C00C
6018
6018
3030
1860
0780
ENDCHAR
STARTCHAR otilde
ENCODING 245
SWIDTH 1000 0
DWIDTH 24 0
BBX 14 18 5 1
BITMAP
0E10
1320
21C0
0000
0000
0780
1860
3030
6018
6018
C00C
C00C
C00C
6018
6018
3030
1860
0780
ENDCHAR
STARTCHAR odieresis
ENCODING 246
SWIDTH 960 0
DWIDTH 24 0
BBX 14 17 5 1
BITMAP
0CC0
0CC0
0000
0000
0780
1860
3030
6018
6018
C00C
C00C
C00C
6018
6018
3030
1860
0780
ENDCHAR
STARTCHAR divide
ENCODING 247
SWIDTH 960 0
DWIDTH 24 0
BBX 18 15 3 3
BITMAP
01C000
01C000
01C000
000000
000000
000000
000000
FFFFC0
000000
000000
000000
000000
01C000
01C000
01C000
ENDCHAR
STARTCHAR oslash
ENCODING 248
SWIDTH 1000 0
DWIDTH 24 0
BBX 14 13 5 1
BITMAP
0784
1868
3030
6038
6058
C08C
C10C
C20C
6418
6818
3030
5860
8780
ENDCHAR
STARTCHAR ugrave
ENCODING 249
SWIDTH 1000 0
DWIDTH 24 0
BBX 15 18 4 1
BITMAP
1E00
0700
0180
0040
0000
3018
F078
3018
3018
3018
3018
3018
3018
3018
3018
3018
1878
079E
ENDCHAR
STARTCHAR uacute
ENCODING 250
SWIDTH 1000 0
DWIDTH 24 0
BBX 15 18 4 1
BITMAP
01E0
0380
0600
0800
0000
3018
F078
3018
3018
3018
3018
3018
3018
3018
3018
3018
1878
079E
ENDCHAR
STARTCHAR ucircumflex
ENCODING 251
SWIDTH 1000 0
DWIDTH 24 0
BBX 15 18 4 1
BITMAP
0100
0380
06C0
0820
0000
3018
F078
3018
3018
3018
3018
3018
3018
3018
3018
3018
1878
079E
ENDCHAR
STARTCHAR udieresis
ENCODING 252
SWIDTH 960 0
DWIDTH 24 0
BBX 15 17 4 1
BITMAP
0CC0
0CC0
0000
0000
3018
F078
3018
3018
3018
3018
3018
3018
3018
3018
3018
1878
079E
ENDCHAR
STARTCHAR yacute
ENCODING 253
SWIDTH 1000 0
DWIDTH 24 0
BBX 16 21 4 -2
BITMAP
0078
00E0
0180
0200
0000
7E1F
1804
1808
0C08
0C10
0610
0620
0320
0340
01C0
0080
0100
0100
C200
C400
7800
ENDCHAR
STARTCHAR thorn
ENCODING 254
SWIDTH 1000 0
DWIDTH 24 0
BBX 15 22 4 -2
BITMAP
3000
F000
3000
3000
3000
3000
31E0
3618
380C
300C
3006
3006
3006
300C
300C
3C18
33E0
3000
3000
3000
3000
FC00
ENDCHAR
STARTCHAR ydieresis
ENCODING 255
SWIDTH 960 0
DWIDTH 24 0
BBX 16 20 4 -2
BITMAP
0330
0330
0000
0000
7E1F
1804
1808
0C08
0C10
0610
0620
0320
0340
01C0
0080
0100
0100
C200
C400
7800
ENDCHAR
STARTCHAR Amacron
ENCODING 256
SWIDTH 1000 0
DWIDTH 24 0
BBX 20 20 2 1
BITMAP
03FC00
000000
000000
004000
006000
00E000
00B000
00B000
011800
011800
020C00
020C00
040600
07FE00
080300
080300
100180
100180
3001C0
FC07F0
ENDCHAR
STARTCHAR amacron
ENCODING 257
SWIDTH 1000 0
DWIDTH 24 0
BBX 15 16 5 1
BITMAP
3FE0
0000
0000
1F80
7060
6030
0030
0030
03F0
1C30
6030
C030
C030
C032
60F2
1F1C
ENDCHAR
STARTCHAR Abreve
ENCODING 258
SWIDTH 1000 0
DWIDTH 24 0
BBX 20 21 2 1
BITMAP
030C00
01F800
00F000
000000
004000
006000
00E000
00B000
00B000
011800
011800
020C00
020C00
040600
07FE00
080300
080300
100180
100180
3001C0
FC07F0
ENDCHAR
STARTCHAR abreve
ENCODING 259
SWIDTH 1000 0
DWIDTH 24 0
BBX 15 17 5 1
BITMAP
30C0
1F80
0F00
0000
1F80
7060
6030
0030
0030
03F0
1C30
6030
C030
C030
C032
60F2
1F1C
ENDCHAR
STARTCHAR Aogonek
ENCODING 260
SWIDTH 1000 0
DWIDTH 24 0
BBX 21 22 2 -2
BITMAP
004000
006000
00E000
00B000
00B000
011800
011800
011800
020C00
020C00
040600
040600
07FE00
080300
080300
100180
100180
3001C0
FC07F0
000060
0000C8
000070
ENDCHAR
STARTCHAR aogonek
ENCODING 261
SWIDTH 1000 0
DWIDTH 24 0
BBX 15 16 5 -2
BITMAP
1F80
7060
6030
0030
0030
03F0
1C30
6030
C030
C030
C032
60F2
1F1C
0038
0032
001C
ENDCHAR
STARTCHAR Cacute
ENCODING 262
SWIDTH 1000 0
DWIDTH 24 0
BBX 17 21 3 1
BITMAP
00F000
01C000
030000
040000
01E000
061900
180700
300300
600100
600100
C00000
C00000
C00000
C00000
C00000
600000
600080
300100
180200
060C00
01F000
ENDCHAR
STARTCHAR cacute
ENCODING 263
SWIDTH 1000 0
DWIDTH 24 0
BBX 13 17 5 1
BITMAP
03C0
0700
0C00
1000
07C0
1830
3018
6018
6000
C000
C000
C000
6000
6000
3008
1830
07C0
ENDCHAR
STARTCHAR Ccircumflex
ENCODING 264
SWIDTH 1000 0
DWIDTH 24 0
BBX 17 21 3 1
BITMAP
008000
01C000
036000
041000
01E000
061900
180700
300300
600100
600100
C00000
C00000
C00000
C00000
C00000
600000
600080
300100
180200
060C00
01F000
ENDCHAR
STARTCHAR ccircumflex
ENCODING 265
SWIDTH 1000 0
DWIDTH 24 0
BBX 13 18 5 1
BITMAP
0200
0700
0D80
1040
0000
07C0
1830
3018
6018
6000
C000
C000
C000
6000
6000
3008
1830
07C0
ENDCHAR
STARTCHAR Ccaron
ENCODING 268
SWIDTH 1000 0
DWIDTH 24 0
BBX 17 21 3 1
BITMAP
041000
036000
01C000
008000
01E000
061900
180700
300300
600100
600100
C00000
C00000
C00000
C00000
C00000
600000
600080
300100
180200
060C00
01F000
ENDCHAR
STARTCHAR ccaron
ENCODING 269
SWIDTH 1000 0
DWIDTH 24 0
BBX 13 17 5 1
BITMAP
1040
0D80
0700
0200
07C0
1830
3018
6018
6000
C000
C000
C000
6000
6000
3008
1830
07C0
ENDCHAR
STARTCHAR Dcaron
ENCODING 270
SWIDTH 1000 0
DWIDTH 24 0
BBX 17 21 3 1
BITMAP
082000
06C000
038000
010000
FFC000
303000
300C00
300600
300300
300300
300180
300180
300180
300180
300180
300300
300300
300600
300C00
303000
FFC000
ENDCHAR
STARTCHAR dcaron
ENCODING 271
SWIDTH 1000 0
DWIDTH 24 0
BBX 15 21 5 1
BITMAP
1040
0D80
0718
0278
0018
0018
0018
0018
0F18
30D8
6038
6018
C018
C018
C018
C018
C018
6018
6018
3078
0F9E
ENDCHAR
STARTCHAR dcroat
ENCODING 273
SWIDTH 1000 0
DWIDTH 24 0
BBX 16 19 5 1
BITMAP
0018
0078
0018
0018
03FF
0018
0F18
30D8
6038
6018
C018
C018
C018
C018
C018
6018
6018
3078
0F9E
ENDCHAR
STARTCHAR Emacron
ENCODING 274
SWIDTH 1000 0
DWIDTH 24 0
BBX 17 20 3 1
BITMAP
0FF800
000000
000000
FFFE00
300600
300200
300100
300100
301000
301000
303000
3FF000
303000
301000
301000
300080
300080
300100
300300
FFFF00
ENDCHAR
STARTCHAR emacron
ENCODING 275
SWIDTH 1000 0
DWIDTH 24 0
BBX 13 16 5 1
BITMAP
1FE0
0000
0000
0780
1860
3030
6030
6018
FFF8
C000
C000
6000
6000
3008
1830
07C0
ENDCHAR
STARTCHAR Eogonek
ENCODING 280
SWIDTH 1000 0
DWIDTH 24 0
BBX 17 22 3 -2
BITMAP
FFFE00
300600
300200
300100
300100
300000
301000
301000
303000
3FF000
303000
301000
301000
300000
300080
300080
300100
300300
FFFF00
000C00
001880
000F00
ENDCHAR
STARTCHAR eogonek
ENCODING 281
SWIDTH 1000 0
DWIDTH 24 0
BBX 13 16 5 -2
BITMAP
0780
1860
3030
6030
6018
FFF8
C000
C000
6000
6000
3008
1830
07C0
0180
0310
01E0
ENDCHAR
STARTCHAR Ecaron
ENCODING 282
SWIDTH 1000 0
DWIDTH 24 0
BBX 17 21 3 1
BITMAP
041000
036000
01C000
008000
FFFE00
300600
300200
300100
300100
301000
301000
303000
3FF000
303000
301000
301000
300080
300080
300100
300300
FFFF00
ENDCHAR
STARTCHAR ecaron
ENCODING 283
SWIDTH 1000 0
DWIDTH 24 0
BBX 13 17 5 1
BITMAP
1040
0D80
0700
0200
0780
1860
3030
6030
6018
FFF8
C000
C000
6000
6000
3008
1830
07C0
ENDCHAR
STARTCHAR Gcircumflex
ENCODING 284
SWIDTH 1000 0
DWIDTH 24 0
BBX 19 21 3 1
BITMAP
008000
01C000
036000
041000
01E000
061900
180700
300300
600100
600100
C00000
C00000
C01FE0
C00300
C00300
600300
600300
300300
180700
061900
01E100
ENDCHAR
STARTCHAR gcircumflex
ENCODING 285
SWIDTH 1000 0
DWIDTH 24 0
BBX 15 21 5 -2
BITMAP
0200
0700
0D80
1040
000C
0F9E
3066
6030
6030
6030
3060
0F80
1000
3000
1FE0
27F8
401C
C00C
C00C
6018
1FE0
ENDCHAR
STARTCHAR Hcircumflex
ENCODING 292
SWIDTH 1000 0
DWIDTH 24 0
BBX 18 21 3 1
BITMAP
008000
01C000
036000
041000
000000
FC0FC0
300300
300300
300300
300300
300300
300300
3FFF00
300300
300300
300300
300300
300300
300300
300300
FC0FC0
ENDCHAR
STARTCHAR hcircumflex
ENCODING 293
SWIDTH 1000 0
DWIDTH 24 0
BBX 16 21 4 1
BITMAP
0100
0380
06C0
0820
3000
F000
3000
3000
31E0
3618
380C
300C
300C
300C
300C
300C
300C
300C
300C
300C
FC3F
ENDCHAR
STARTCHAR hbar
ENCODING 295
SWIDTH 1000 0
DWIDTH 24 0
BBX 17 19 3 1
BITMAP
180000
780000
180000
180000
FFE000
180000
180000
18F000
1B0C00
1C0600
180600
180600
180600
180600
180600
180600
180600
180600
7E1F80
ENDCHAR
STARTCHAR Imacron
ENCODING 298
SWIDTH 1000 0
DWIDTH 24 0
BBX 8 20 8 1
BITMAP
FF
00
00
FF
18
18
18
18
18
18
18
18
18
18
18
18
18
18
18
FF
ENDCHAR
STARTCHAR imacron
ENCODING 299
SWIDTH 1000 0
DWIDTH 24 0
BBX 9 16 7 1
BITMAP
FF80
0000
0000
7C00
0C00
0C00
0C00
0C00
0C00
0C00
0C00
0C00
0C00
0C00
0C00
7F80
ENDCHAR
STARTCHAR Jcircumflex
ENCODING 308
SWIDTH 1000 0
DWIDTH 24 0
BBX 14 21 5 1
BITMAP
0040
00E0
01B0
0208
0000
03FC
0060
0060
0060
0060
0060
0060
0060
0060
0060
6060
E060
C0C0
C0C0
6180
1E00
ENDCHAR
STARTCHAR jcircumflex
ENCODING 309
SWIDTH 1000 0
DWIDTH 24 0
BBX 12 21 5 -2
BITMAP
0080
01C0
0360
0410
0000
03C0
00C0
00C0
00C0
00C0
00C0
00C0
00C0
00C0
00C0
00C0
00C0
0180
C180
C300
7C00
ENDCHAR
STARTCHAR Lacute
ENCODING 313
SWIDTH 1000 0
DWIDTH 24 0
BBX 17 21 4 1
BITMAP
00F000
01C000
030000
040000
FC0000
300000
300000
300000
300000
300000
300000
300000
300000
300000
300000
300000
300080
300080
300100
300300
FFFF00
ENDCHAR
STARTCHAR lacute
ENCODING 314
SWIDTH 1000 0
DWIDTH 24 0
BBX 7 21 8 1
BITMAP
1E
38
60
80
18
78
18
18
18
18
18
18
18
18
18
18
18
18
18
18
7E
ENDCHAR
STARTCHAR Lcaron
ENCODING 317
SWIDTH 1000 0
DWIDTH 24 0
BBX 17 21 4 1
BITMAP
082000
06C000
038000
010000
FC0000
300000
300000
300000
300000
300000
300000
300000
300000
300000
300000
300000
300080
300080
300100
300300
FFFF00
ENDCHAR
STARTCHAR lcaron
ENCODING 318
SWIDTH 1000 0
DWIDTH 24 0
BBX 7 21 8 1
BITMAP
82
6C
38
10
00
78
18
18
18
18
18
18
18
18
18
18
18
18
18
18
7E
ENDCHAR
STARTCHAR Lslash
ENCODING 321
SWIDTH 1000 0
DWIDTH 24 0
BBX 19 19 2 1
BITMAP
3F0000
0C0000
0C0000
0C0000
0C0000
0C0000
0C3000
0CC000
0F0000
0C0000
3C0000
CC0000
0C0000
0C0000
0C0020
0C0020
0C0040
0C00C0
3FFFC0
ENDCHAR
STARTCHAR lslash
ENCODING 322
SWIDTH 1000 0
DWIDTH 24 0
BBX 10 19 7 1
BITMAP
0C00
3C00
0C00
0C00
0C00
0C00
0C00
0CC0
0F00
3C00
CC00
0C00
0C00
0C00
0C00
0C00
0C00
0C00
3F00
ENDCHAR
STARTCHAR Nacute
ENCODING 323
SWIDTH 1000 0
DWIDTH 24 0
BBX 18 21 3 1
BITMAP
00F000
01C000
030000
040000
F007C0
380100
3C0100
2E0100
260100
230100
238100
21C100
20E100
206100
203100
203900
201D00
200F00
200700
200300
F80100
ENDCHAR
STARTCHAR nacute
ENCODING 324
SWIDTH 1000 0
DWIDTH 24 0
BBX 15 17 5 1
BITMAP
01E0
0380
0600
0800
33C0
FC30
3018
3018
3018
3018
3018
3018
3018
3018
3018
3018
FC7E
ENDCHAR
STARTCHAR Ncaron
ENCODING 327
SWIDTH 1000 0
DWIDTH 24 0
BBX 18 21 3 1
BITMAP
041000
036000
01C000
008000
F007C0
380100
3C0100
2E0100
260100
230100
238100
21C100
20E100
206100
203100
203900
201D00
200F00
200700
200300
F80100
ENDCHAR
STARTCHAR ncaron
ENCODING 328
SWIDTH 1000 0
DWIDTH 24 0
BBX 15 17 5 1
BITMAP
0820
06C0
0380
0100
33C0
FC30
3018
3018
3018
3018
3018
3018
3018
3018
3018
3018
FC7E
ENDCHAR
STARTCHAR eng
ENCODING 331
SWIDTH 1000 0
DWIDTH 24 0
BBX 13 16 5 -2
BITMAP
33C0
FC30
3018
3018
3018
3018
3018
3018
3018
3018
3018
3018
FC18
0018
0330
01E0
ENDCHAR
STARTCHAR Omacron
ENCODING 332
SWIDTH 1000 0
DWIDTH 24 0
BBX 18 20 3 1
BITMAP
07F800
000000
000000
03F000
0C0C00
180600
300300
600180
600180
C000C0
C000C0
C000C0
C000C0
C000C0
600180
600180
300300
180600
0C0C00
03F000
ENDCHAR
STARTCHAR omacron
ENCODING 333
SWIDTH 960 0
DWIDTH 24 0
BBX 14 16 5 1
BITMAP
1FE0
0000
0000
0780
1860
3030
6018
6018
C00C
C00C
C00C
6018
6018
3030
1860
0780
ENDCHAR
STARTCHAR Ohungarumlaut
ENCODING 336
SWIDTH 1000 0
DWIDTH 24 0
BBX 18 21 3 1
BITMAP
03CF00
071C00
0C3000
104000
03F000
0C0C00
180600
300300
600180
600180
C000C0
C000C0
C000C0
C000C0
C000C0
600180
600180
300300
180600
0C0C00
03F000
ENDCHAR
STARTCHAR ohungarumlaut
ENCODING 337
SWIDTH 1000 0
DWIDTH 24 0
BBX 14 17 5 1
BITMAP
0F3C
1C70
30C0
4100
0780
1860
3030
6018
6018
C00C
C00C
C00C
6018
6018
3030
1860
0780
ENDCHAR
STARTCHAR OE
ENCODING 338
SWIDTH 1000 0
DWIDTH 24 0
BBX 22 19 1 1
BITMAP
03FFF8
0C3818
181808
301800
601800
601800
C01810
C01810
C01830
C01FF0
C01830
C01810
C01810
601800
601800
301800
181804
0C380C
03FFFC
ENDCHAR
STARTCHAR oe
ENCODING 339
SWIDTH 1000 0
DWIDTH 24 0
BBX 20 13 2 1
BITMAP
0E0700
3198C0
60F060
60E060
C06030
C07FF0
C06000
C06000
C06000
60E000
60F010
319860
0E0780
ENDCHAR
STARTCHAR Racute
ENCODING 340
SWIDTH 1000 0
DWIDTH 24 0
BBX 19 21 3 1
BITMAP
00F000
01C000
030000
040000
FFF000
300C00
300600
300300
300300
300300
300600
301800
3FE000
301000
300800
300C00
300C00
300C00
300C20
300E40
FC0780
ENDCHAR
STARTCHAR racute
ENCODING 341
SWIDTH 1000 0
DWIDTH 24 0
BBX 13 18 6 1
BITMAP
03C0
0700
0C00
1000
0000
3070
F1F8
3318
3400
3800
3000
3000
3000
3000
3000
3000
3000
FC00
ENDCHAR
STARTCHAR Rcaron
ENCODING 344
SWIDTH 1000 0
DWIDTH 24 0
BBX 19 21 3 1
BITMAP
082000
06C000
038000
010000
FFF000
300C00
300600
300300
300300
300300
300600
301800
3FE000
301000
300800
300C00
300C00
300C00
300C20
300E40
FC0780
ENDCHAR
STARTCHAR rcaron
ENCODING 345
SWIDTH 1000 0
DWIDTH 24 0
BBX 13 17 6 1
BITMAP
2080
1B00
0E00
0400
3070
F1F8
3318
3400
3800
3000
3000
3000
3000
3000
3000
3000
FC00
ENDCHAR
STARTCHAR Sacute
ENCODING 346
SWIDTH 1000 0
DWIDTH 24 0
BBX 15 21 5 1
BITMAP
03C0
0700
0C00
1000
0F84
307C
601C
C00C
C004
E004
7800
1F00
07E0
00F8
001C
800E
8006
C006
E00C
F818
87E0
ENDCHAR
STARTCHAR sacute
ENCODING 347
SWIDTH 1000 0
DWIDTH 24 0
BBX 12 17 6 1
BITMAP
0780
0E00
1800
2000
1F20
60E0
C060
C020
E000
7E00
1FC0
01E0
0070
8030
C030
E060
9F80
ENDCHAR
STARTCHAR Scircumflex
ENCODING 348
SWIDTH 1000 0
DWIDTH 24 0
BBX 15 21 5 1
BITMAP
0200
0700
0D80
1040
0F84
307C
601C
C00C
C004
E004
7800
1F00
07E0
00F8
001C
800E
8006
C006
E00C
F818
87E0
ENDCHAR
STARTCHAR scircumflex
ENCODING 349
SWIDTH 1000 0
DWIDTH 24 0
BBX 12 18 6 1
BITMAP
0400
0E00
1B00
2080
0000
1F20
60E0
C060
C020
E000
7E00
1FC0
01E0
0070
8030
C030
E060
9F80
ENDCHAR
STARTCHAR Scedilla
ENCODING 350
SWIDTH 1000 0
DWIDTH 24 0
BBX 15 22 5 -2
BITMAP
0F84
307C
601C
C00C
C004
C004
E000
7800
1F00
07E0
00F8
001C
800E
8006
C006
E00C
F818
87E0
0200
0780
01C0
0F80
ENDCHAR
STARTCHAR scedilla
ENCODING 351
SWIDTH 1000 0
DWIDTH 24 0
BBX 12 16 6 -2
BITMAP
1F20
60E0
C060
C020
E000
7F00
1FE0
00F0
8030
C030
E060
9F80
0400
0F00
0380
1F00
ENDCHAR
STARTCHAR Scaron
ENCODING 352
SWIDTH 1000 0
DWIDTH 24 0
BBX 15 21 5 1
BITMAP
1040
0D80
0700
0200
0F84
307C
601C
C00C
C004
E004
7800
1F00
07E0
00F8
001C
800E
8006
C006
E00C
F818
87E0
ENDCHAR
STARTCHAR scaron
ENCODING 353
SWIDTH 1000 0
DWIDTH 24 0
BBX 12 18 6 1
BITMAP
2080
1B00
0E00
0400
0000
1F20
60E0
C060
C020
E000
7E00
1FC0
01E0
0070
8030
C030
E060
9F80
ENDCHAR
STARTCHAR uni0162
ENCODING 354
SWIDTH 1000 0
DWIDTH 24 0
BBX 20 22 2 -2
BITMAP
7FFFE0
606060
406020
806010
806010
006000
006000
006000
006000
006000
006000
006000
006000
006000
006000
006000
006000
01F800
004000
00F000
003800
01F000
ENDCHAR
STARTCHAR uni0163
ENCODING 355
SWIDTH 1000 0
DWIDTH 24 0
BBX 13 22 5 -2
BITMAP
0C00
0C00
0C00
0C00
0C00
0C00
FFE0
0C00
0C00
0C00
0C00
0C00
0C00
0C00
0C08
0C08
0610
03E0
0100
03C0
00E0
07C0
ENDCHAR
STARTCHAR Tcaron
ENCODING 356
SWIDTH 1000 0
DWIDTH 24 0
BBX 20 21 2 1
BITMAP
020800
01B000
00E000
004000
7FFFE0
606060
406020
806010
806010
006000
006000
006000
006000
006000
006000
006000
006000
006000
006000
006000
01F800
ENDCHAR
STARTCHAR tcaron
ENCODING 357
SWIDTH 1000 0
DWIDTH 24 0
BBX 13 21 5 1
BITMAP
2080
1B00
0E00
0400
0C00
0C00
0C00
0C00
FFE0
0C00
0C00
0C00
0C00
0C00
0C00
0C00
0C00
0C08
0C08
0610
01E0
ENDCHAR
STARTCHAR Umacron
ENCODING 362
SWIDTH 1000 0
DWIDTH 24 0
BBX 18 20 3 1
BITMAP
07F800
000000
000000
FC07C0
300100
300100
300100
300100
300100
300100
300100
300100
300100
300100
300100
300100
180200
180200
0E0C00
03F000
ENDCHAR
STARTCHAR umacron
ENCODING 363
SWIDTH 1000 0
DWIDTH 24 0
BBX 15 16 4 1
BITMAP
0FF0
0000
0000
3018
F078
3018
3018
3018
3018
3018
3018
3018
3018
3018
1878
079E
ENDCHAR
STARTCHAR Ubreve
ENCODING 364
SWIDTH 1000 0
DWIDTH 24 0
BBX 18 21 3 1
BITMAP
061800
03F000
01E000
000000
FC07C0
300100
300100
300100
300100
300100
300100
300100
300100
300100
300100
300100
300100
180200
180200
0E0C00
03F000
ENDCHAR
STARTCHAR ubreve
ENCODING 365
SWIDTH 1000 0
DWIDTH 24 0
BBX 15 17 4 1
BITMAP
1860
0FC0
0780
0000
3018
F078
3018
3018
3018
3018
3018
3018
3018
3018
3018
1878
079E
ENDCHAR
STARTCHAR Uring
ENCODING 366
SWIDTH 1000 0
DWIDTH 24 0
BBX 18 21 3 1
BITMAP
00C000
012000
012000
00C000
FC07C0
300100
300100
300100
300100
300100
300100
300100
300100
300100
300100
300100
300100
180200
180200
0E0C00
03F000
ENDCHAR
STARTCHAR uring
ENCODING 367
SWIDTH 1000 0
DWIDTH 24 0
BBX 15 18 4 1
BITMAP
0300
0480
0480
0300
0000
3018
F078
3018
3018
3018
3018
3018
3018
3018
3018
3018
1878
079E
ENDCHAR
STARTCHAR Uhungarumlaut
ENCODING 368
SWIDTH 1000 0
DWIDTH 24 0
BBX 18 21 3 1
BITMAP
03CF00
071C00
0C3000
104000
FC07C0
300100
300100
300100
300100
300100
300100
300100
300100
300100
300100
300100
300100
180200
180200
0E0C00
03F000
ENDCHAR
STARTCHAR uhungarumlaut
ENCODING 369
SWIDTH 1000 0
DWIDTH 24 0
BBX 15 18 4 1
BITMAP
079E
0E38
1860
2080
0000
3018
F078
3018
3018
3018
3018
3018
3018
3018
3018
3018
1878
079E
ENDCHAR
STARTCHAR Zacute
ENCODING 377
SWIDTH 1000 0
DWIDTH 24 0
BBX 17 21 3 1
BITMAP
00F000
01C000
030000
040000
3FFF80
300700
200E00
401C00
403800
003000
006000
00E000
01C000
038000
030000
060000
0E0080
1C0080
380100
700300
FFFF00
ENDCHAR
STARTCHAR zacute
ENCODING 378
SWIDTH 1000 0
DWIDTH 24 0
BBX 14 17 5 1
BITMAP
03C0
0700
0C00
1000
7FF8
6070
40E0
80C0
01C0
0380
0700
0E00
0C00
1C04
3808
7018
FFF8
ENDCHAR
STARTCHAR Zdotaccent
ENCODING 379
SWIDTH 1000 0
DWIDTH 24 0
BBX 17 20 3 1
BITMAP
00C000
00C000
000000
3FFF80
300700
200E00
401C00
403800
003000
006000
00E000
01C000
038000
030000
060000
0E0080
1C0080
380100
700300
FFFF00
ENDCHAR
STARTCHAR zdotaccent
ENCODING 380
SWIDTH 960 0
DWIDTH 24 0
BBX 14 17 5 1
BITMAP
0300
0300
0000
0000
7FF8
6070
40E0
80C0
01C0
0380
0700
0E00
0C00
1C04
3808
7018
FFF8
ENDCHAR
STARTCHAR Zcaron
ENCODING 381
SWIDTH 1000 0
DWIDTH 24 0
BBX 17 21 3 1
BITMAP
041000
036000
01C000
008000
3FFF80
300700
200E00
401C00
403800
003000
006000
00E000
01C000
038000
030000
060000
0E0080
1C0080
380100
700300
FFFF00
ENDCHAR
STARTCHAR zcaron
ENCODING 382
SWIDTH 1000 0
DWIDTH 24 0
BBX 14 17 5 1
BITMAP
1040
0D80
0700
0200
7FF8
6070
40E0
80C0
01C0
0380
0700
0E00
0C00
1C04
3808
7018
FFF8
ENDCHAR
STARTCHAR uni0193
ENCODING 403
SWIDTH 1000 0
DWIDTH 24 0
BBX 21 21 2 1
BITMAP
0000F0
000198
000318
01E300
061B00
180700
300300
600100
600100
C00000
C00000
C00000
C01FE0
C00300
C00300
600300
600300
300300
180700
061900
01E100
ENDCHAR
STARTCHAR uni01C2
ENCODING 450
SWIDTH 1000 0
DWIDTH 24 0
BBX 10 19 7 1
BITMAP
0C00
0C00
0C00
0C00
0C00
0C00
FFC0
0C00
0C00
0C00
0C00
0C00
FFC0
0C00
0C00
0C00
0C00
0C00
0C00
ENDCHAR
STARTCHAR uni01CD
ENCODING 461
SWIDTH 1000 0
DWIDTH 24 0
BBX 20 21 2 1
BITMAP
020800
01B000
00E000
004000
000000
006000
00E000
00B000
00B000
011800
011800
020C00
020C00
040600
07FE00
080300
080300
100180
100180
3001C0
FC07F0
ENDCHAR
STARTCHAR uni01CE
ENCODING 462
SWIDTH 1000 0
DWIDTH 24 0
BBX 15 18 5 1
BITMAP
1040
0D80
0700
0200
0000
1F80
7060
6030
0030
0030
03F0
1C30
6030
C030
C030
C032
60F2
1F1C
ENDCHAR
STARTCHAR uni01D0
ENCODING 464
SWIDTH 1000 0
DWIDTH 24 0
BBX 8 18 8 1
BITMAP
82
6C
38
10
00
F8
18
18
18
18
18
18
18
18
18
18
18
FF
ENDCHAR
STARTCHAR uni01D1
ENCODING 465
SWIDTH 1000 0
DWIDTH 24 0
BBX 18 21 3 1
BITMAP
041000
036000
01C000
008000
03F000
0C0C00
180600
300300
600180
600180
C000C0
C000C0
C000C0
C000C0
C000C0
600180
600180
300300
180600
0C0C00
03F000
ENDCHAR
STARTCHAR uni01D2
ENCODING 466
SWIDTH 1000 0
DWIDTH 24 0
BBX 14 17 5 1
BITMAP
1040
0D80
0700
0200
0780
1860
3030
6018
6018
C00C
C00C
C00C
6018
6018
3030
1860
0780
ENDCHAR
STARTCHAR uni01D4
ENCODING 468
SWIDTH 1000 0
DWIDTH 24 0
BBX 15 17 4 1
BITMAP
0820
06C0
0380
0100
3018
F078
3018
3018
3018
3018
3018
3018
3018
3018
3018
1878
079E
ENDCHAR
STARTCHAR uni01D6
ENCODING 470
SWIDTH 1000 0
DWIDTH 24 0
BBX 15 19 4 1
BITMAP
0FF0
0000
0000
0660
0660
0000
3018
F078
3018
3018
3018
3018
3018
3018
3018
3018
3018
1878
079E
ENDCHAR
STARTCHAR uni01D8
ENCODING 472
SWIDTH 1000 0
DWIDTH 24 0
BBX 15 20 4 1
BITMAP
01E0
0380
0600
0800
0660
0660
0000
3018
F078
3018
3018
3018
3018
3018
3018
3018
3018
3018
1878
079E
ENDCHAR
STARTCHAR uni01DA
ENCODING 474
SWIDTH 1000 0
DWIDTH 24 0
BBX 15 20 4 1
BITMAP
0820
06C0
0380
0100
0660
0660
0000
3018
F078
3018
3018
3018
3018
3018
3018
3018
3018
3018
1878
079E
ENDCHAR
STARTCHAR uni01DC
ENCODING 476
SWIDTH 1000 0
DWIDTH 24 0
BBX 15 20 4 1
BITMAP
0780
01C0
0060
0010
0660
0660
0000
3018
F078
3018
3018
3018
3018
3018
3018
3018
3018
3018
1878
079E
ENDCHAR
STARTCHAR uni01F8
ENCODING 504
SWIDTH 1000 0
DWIDTH 24 0
BBX 18 21 3 1
BITMAP
03C000
00E000
003000
000800
F007C0
380100
3C0100
2E0100
260100
230100
238100
21C100
20E100
206100
203100
203900
201D00
200F00
200700
200300
F80100
ENDCHAR
STARTCHAR uni01F9
ENCODING 505
SWIDTH 1000 0
DWIDTH 24 0
BBX 15 18 5 1
BITMAP
0F00
0380
00C0
0020
0000
33C0
FC30
3018
3018
3018
3018
3018
3018
3018
3018
3018
3018
FC7E
ENDCHAR
STARTCHAR aeacute
ENCODING 509
SWIDTH 1000 0
DWIDTH 24 0
BBX 20 18 2 1
BITMAP
007800
00E000
018000
020000
000000
1F0700
70D8C0
607060
006060
006030
07FFF0
186000
606000
C06000
C06000
C07010
619860
1E0780
ENDCHAR
STARTCHAR uni0250
ENCODING 592
SWIDTH 1000 0
DWIDTH 24 0
BBX 15 13 4 1
BITMAP
71F0
9E0C
9806
1806
1806
180C
1870
1F80
1800
1800
180C
0C1C
03F0
ENDCHAR
STARTCHAR uni0251
ENCODING 593
SWIDTH 1000 0
DWIDTH 24 0
BBX 15 13 5 1
BITMAP
0F90
3070
6030
6030
C030
C030
C030
C030
C030
6030
6032
3072
0F9C
ENDCHAR
STARTCHAR uni0252
ENCODING 594
SWIDTH 1000 0
DWIDTH 24 0
BBX 15 13 4 1
BITMAP
73E0
9C18
980C
180C
1806
1806
1806
1806
1806
180C
180C
1C18
13E0
ENDCHAR
STARTCHAR uni0253
ENCODING 595
SWIDTH 1000 0
DWIDTH 24 0
BBX 13 19 6 1
BITMAP
1E00
3180
60C0
60C0
C000
C000
C780
D860
E030
C030
C018
C018
C018
C018
C018
C030
C030
F060
8F80
ENDCHAR
STARTCHAR uni0254
ENCODING 596
SWIDTH 1000 0
DWIDTH 24 0
BBX 12 18 7 1
BITMAP
0F00
1C00
3000
4000
0000
1E00
6180
80C0
0060
0060
0030
0030
0030
0060
C060
C0C0
6180
1E00
ENDCHAR
STARTCHAR uni0255
ENCODING 597
SWIDTH 1000 0
DWIDTH 24 0
BBX 13 16 5 -2
BITMAP
07C0
1830
3018
6018
6000
C000
C000
C000
6070
6088
3108
1A30
07C0
0400
0800
1000
ENDCHAR
STARTCHAR uni0256
ENCODING 598
SWIDTH 1000 0
DWIDTH 24 0
BBX 18 22 5 -2
BITMAP
001800
007800
001800
001800
001800
001800
0F1800
30D800
603800
601800
C01800
C01800
C01800
C01800
C01800
601800
601800
307800
0F9800
0018C0
000CC0
000780
ENDCHAR
STARTCHAR uni0257
ENCODING 599
SWIDTH 1000 0
DWIDTH 24 0
BBX 18 19 4 1
BITMAP
000780
000CC0
0018C0
001800
001800
001800
0F1800
30D800
603800
601800
C01800
C01800
C01800
C01800
C01800
601800
601800
307800
0F9E00
ENDCHAR
STARTCHAR uni0258
ENCODING 600
SWIDTH 1000 0
DWIDTH 24 0
BBX 13 13 6 1
BITMAP
0F00
30C0
6060
6030
C030
FFF8
0018
0018
0030
0030
8060
60C0
1F00
ENDCHAR
STARTCHAR uni0259
ENCODING 601
SWIDTH 1000 0
DWIDTH 24 0
BBX 13 18 6 1
BITMAP
0780
0E00
1800
2000
0000
1F00
60C0
8060
0030
0030
0018
0018
FFF8
C030
6030
6060
30C0
0F00
ENDCHAR
STARTCHAR uni025A
ENCODING 602
SWIDTH 1000 0
DWIDTH 24 0
BBX 18 18 3 1
BITMAP
078000
0E0000
180000
200000
000000
1F0000
60C000
806000
006200
003E00
01F200
0E3340
F03180
C03000
606000
606000
30C000
0F0000
ENDCHAR
STARTCHAR uni025C
ENCODING 604
SWIDTH 1000 0
DWIDTH 24 0
BBX 10 13 7 1
BITMAP
3E00
E380
C0C0
80C0
00C0
0180
1E00
0180
00C0
80C0
C0C0
E180
3E00
ENDCHAR
STARTCHAR uni025E
ENCODING 606
SWIDTH 1000 0
DWIDTH 24 0
BBX 11 13 6 1
BITMAP
1F00
31C0
6060
6060
C060
C0C0
CF00
C0C0
C060
6060
6060
30C0
1F00
ENDCHAR
STARTCHAR uni025F
ENCODING 607
SWIDTH 1000 0
DWIDTH 24 0
BBX 14 16 5 -2
BITMAP
03F0
00C0
00C0
00C0
00C0
00C0
00C0
00C0
00C0
0FFC
00C0
00C0
0180
C180
C300
7C00
ENDCHAR
STARTCHAR uni0260
ENCODING 608
SWIDTH 1000 0
DWIDTH 24 0
BBX 18 19 4 -2
BITMAP
000780
000CC0
0018C0
0F9800
307800
601800
601800
C01800
C01800
C01800
601800
601800
307800
0F9800
001800
603000
603000
306000
0F8000
ENDCHAR
STARTCHAR uni0261
ENCODING 609
SWIDTH 1000 0
DWIDTH 24 0
BBX 13 16 5 -2
BITMAP
0F88
3078
6018
6018
C018
C018
C018
6018
6018
3078
0F98
0018
6030
6030
3060
0F80
ENDCHAR
STARTCHAR uni0264
ENCODING 612
SWIDTH 1000 0
DWIDTH 24 0
BBX 14 13 5 1
BITMAP
FC7C
3010
1820
1820
0C40
0640
0680
0380
0380
0380
04C0
04C0
0380
ENDCHAR
STARTCHAR uni0265
ENCODING 613
SWIDTH 1000 0
DWIDTH 24 0
BBX 16 19 4 1
BITMAP
FC3F
300C
300C
300C
300C
300C
300C
300C
300C
300C
301C
186C
078C
000C
000C
000C
000C
000F
000C
ENDCHAR
STARTCHAR uni0266
ENCODING 614
SWIDTH 1000 0
DWIDTH 24 0
BBX 16 19 4 1
BITMAP
0780
0C60
1830
1830
3000
3000
31E0
3618
380C
300C
300C
300C
300C
300C
300C
300C
300C
300C
FC3F
ENDCHAR
STARTCHAR uni0267
ENCODING 615
SWIDTH 1000 0
DWIDTH 24 0
BBX 14 22 4 -2
BITMAP
0780
0C60
1830
1830
3000
3000
31E0
3618
380C
300C
300C
300C
300C
300C
300C
300C
300C
300C
FC0C
018C
0198
00F0
ENDCHAR
STARTCHAR uni0268
ENCODING 616
SWIDTH 960 0
DWIDTH 24 0
BBX 10 19 7 1
BITMAP
1C00
1C00
1C00
0000
0000
0000
7C00
0C00
0C00
0C00
0C00
FFC0
0C00
0C00
0C00
0C00
0C00
0C00
7F80
ENDCHAR
STARTCHAR uni026C
ENCODING 620
SWIDTH 1000 0
DWIDTH 24 0
BBX 10 19 7 1
BITMAP
0C00
3C00
0C00
0C00
0C00
0C00
0C00
6C00
9C00
8C00
CC00
7FC0
0C00
0C00
0C00
0C00
0C00
0C00
3F00
ENDCHAR
STARTCHAR uni026D
ENCODING 621
SWIDTH 1000 0
DWIDTH 24 0
BBX 9 22 9 -2
BITMAP
3000
F000
3000
3000
3000
3000
3000
3000
3000
3000
3000
3000
3000
3000
3000
3000
3000
3000
3000
3180
1980
0F00
ENDCHAR
STARTCHAR uni026E
ENCODING 622
SWIDTH 1000 0
DWIDTH 24 0
BBX 14 22 5 -2
BITMAP
3000
F000
3000
3000
3000
3000
3FF8
3030
3060
30C0
3180
3300
37C0
3030
3018
300C
300C
FC0C
000C
1818
0C30
03C0
ENDCHAR
STARTCHAR uni026F
ENCODING 623
SWIDTH 1000 0
DWIDTH 24 0
BBX 20 13 2 1
BITMAP
F8F1F0
3060C0
3060C0
3060C0
3060C0
3060C0
3060C0
3060C0
3060C0
3060C0
3060C0
11A3F0
0E1CC0
ENDCHAR
STARTCHAR uni0270
ENCODING 624
SWIDTH 1000 0
DWIDTH 24 0
BBX 20 16 2 -2
BITMAP
F8F1F0
3060C0
3060C0
3060C0
3060C0
3060C0
3060C0
3060C0
3060C0
3060C0
3060C0
11A3C0
0E1CC0
0000C0
0000F0
0000C0
ENDCHAR
STARTCHAR uni0271
ENCODING 625
SWIDTH 1000 0
DWIDTH 24 0
BBX 18 16 3 -2
BITMAP
338700
FC5880
3060C0
3060C0
3060C0
3060C0
3060C0
3060C0
3060C0
3060C0
3060C0
3060C0
F8F0C0
0000C0
001980
000F00
ENDCHAR
STARTCHAR uni0272
ENCODING 626
SWIDTH 1000 0
DWIDTH 24 0
BBX 18 16 2 -2
BITMAP
067800
1F8600
060300
060300
060300
060300
060300
060300
060300
060300
060300
060300
060FC0
C60000
CC0000
780000
ENDCHAR
STARTCHAR uni0273
ENCODING 627
SWIDTH 1000 0
DWIDTH 24 0
BBX 18 16 5 -2
BITMAP
33C000
FC3000
301800
301800
301800
301800
301800
301800
301800
301800
301800
301800
FC1800
0018C0
000CC0
000780
ENDCHAR
STARTCHAR uni0275
ENCODING 629
SWIDTH 1000 0
DWIDTH 24 0
BBX 14 13 5 1
BITMAP
0780
1860
3030
6018
6018
FFFC
C00C
C00C
6018
6018
3030
1860
0780
ENDCHAR
STARTCHAR uni0279
ENCODING 633
SWIDTH 1000 0
DWIDTH 24 0
BBX 13 13 5 1
BITMAP
01F8
0060
0060
0060
0060
0060
0060
0060
00E0
0160
C660
FC78
7060
ENDCHAR
STARTCHAR uni027A
ENCODING 634
SWIDTH 1000 0
DWIDTH 24 0
BBX 13 19 5 1
BITMAP
0060
01E0
0060
0060
0060
0060
0060
0060
0060
0060
0060
0060
0060
0060
00E0
0160
C660
FC78
7060
ENDCHAR
STARTCHAR uni027B
ENCODING 635
SWIDTH 1000 0
DWIDTH 24 0
BBX 16 16 5 -2
BITMAP
01F8
0060
0060
0060
0060
0060
0060
0060
00E0
0160
C660
FC60
7060
0063
0033
001E
ENDCHAR
STARTCHAR uni027D
ENCODING 637
SWIDTH 1000 0
DWIDTH 24 0
BBX 13 16 6 -2
BITMAP
3070
F1F8
3318
3400
3800
3000
3000
3000
3000
3000
3000
3000
3000
3180
1980
0F00
ENDCHAR
STARTCHAR uni027E
ENCODING 638
SWIDTH 1000 0
DWIDTH 24 0
BBX 10 13 7 1
BITMAP
0780
0CC0
18C0
1800
1800
1800
1800
1800
1800
1800
1800
1800
FF00
ENDCHAR
STARTCHAR uni0281
ENCODING 641
SWIDTH 1000 0
DWIDTH 24 0
BBX 12 13 6 1
BITMAP
FCF0
30C0
3180
3180
3300
3300
3F80
3060
3030
3030
3030
3060
FF80
ENDCHAR
STARTCHAR uni0282
ENCODING 642
SWIDTH 1000 0
DWIDTH 24 0
BBX 12 16 6 -2
BITMAP
1F20
60E0
C060
C020
E000
7E00
1FC0
01E0
0070
8030
C030
E060
9F80
8000
D800
7000
ENDCHAR
STARTCHAR uni0283
ENCODING 643
SWIDTH 1000 0
DWIDTH 24 0
BBX 12 24 6 -2
BITMAP
01E0
0330
0630
0600
0600
0600
0600
0600
0600
0600
0600
0600
0600
0600
0600
0600
0600
0600
0600
0600
0600
C600
CC00
7800
ENDCHAR
STARTCHAR uni0284
ENCODING 644
SWIDTH 1000 0
DWIDTH 24 0
BBX 15 19 5 -2
BITMAP
003C
0066
00C6
00C0
00C0
00C0
00C0
00C0
00C0
00C0
00C0
00C0
0FFC
00C0
00C0
0180
C180
C300
7C00
ENDCHAR
STARTCHAR uni0288
ENCODING 648
SWIDTH 1000 0
DWIDTH 24 0
BBX 11 22 5 -2
BITMAP
0C00
0C00
0C00
0C00
0C00
0C00
FFE0
0C00
0C00
0C00
0C00
0C00
0C00
0C00
0C00
0C00
0C00
0C00
0C00
0C60
0660
03C0
ENDCHAR
STARTCHAR uni0289
ENCODING 649
SWIDTH 1000 0
DWIDTH 24 0
BBX 17 13 3 1
BITMAP
180C00
783C00
180C00
180C00
180C00
FFFF80
180C00
180C00
180C00
180C00
180C00
0C3C00
03CF00
ENDCHAR
STARTCHAR uni028A
ENCODING 650
SWIDTH 1000 0
DWIDTH 24 0
BBX 14 13 5 1
BITMAP
F87C
1860
1020
3030
3030
6018
6018
6018
6018
6018
3030
1860
0780
ENDCHAR
STARTCHAR uni028B
ENCODING 651
SWIDTH 1000 0
DWIDTH 24 0
BBX 13 13 5 1
BITMAP
3030
F038
3018
3008
3008
3008
3008
3008
3018
3010
3030
1860
0FC0
ENDCHAR
STARTCHAR uni028C
ENCODING 652
SWIDTH 1000 0
DWIDTH 24 0
BBX 16 18 4 1
BITMAP
01E0
0380
0600
0800
0000
0100
0180
0380
02C0
04C0
0460
0860
0830
1030
1018
2018
200C
F83F
ENDCHAR
STARTCHAR uni028D
ENCODING 653
SWIDTH 1000 0
DWIDTH 24 0
BBX 22 13 1 1
BITMAP
020100
020100
070380
050280
0584C0
0984C0
08C4C0
08C860
106860
106860
103030
303030
FCFCFC
ENDCHAR
STARTCHAR uni028E
ENCODING 654
SWIDTH 1000 0
DWIDTH 24 0
BBX 16 16 4 1
BITMAP
001E
0023
0043
0080
0080
0100
0380
02C0
04C0
0460
0860
0830
1030
1018
2018
F87E
ENDCHAR
STARTCHAR uni0290
ENCODING 656
SWIDTH 1000 0
DWIDTH 24 0
BBX 17 16 5 -2
BITMAP
7FF800
607000
40E000
80C000
01C000
038000
070000
0E0000
0C0000
1C0400
380800
701800
FFF800
000980
000D80
000700
ENDCHAR
STARTCHAR uni0291
ENCODING 657
SWIDTH 1000 0
DWIDTH 24 0
BBX 15 16 5 -2
BITMAP
7FF8
6070
40E0
80C0
01C0
0380
0700
0E00
0C1C
1C22
3842
7082
FFFC
0100
0200
0400
ENDCHAR
STARTCHAR uni0292
ENCODING 658
SWIDTH 1000 0
DWIDTH 24 0
BBX 12 16 6 -2
BITMAP
7FE0
60C0
4180
0300
0600
0C00
1F00
00C0
0060
0030
0030
C030
C030
6060
30C0
0F00
ENDCHAR
STARTCHAR uni0294
ENCODING 660
SWIDTH 1000 0
DWIDTH 24 0
BBX 10 19 8 1
BITMAP
3E00
6300
C180
C0C0
00C0
00C0
00C0
0180
0180
0300
1C00
1800
1800
1800
1800
1800
1800
1800
7E00
ENDCHAR
STARTCHAR uni0295
ENCODING 661
SWIDTH 1000 0
DWIDTH 24 0
BBX 10 19 6 1
BITMAP
1F00
3180
60C0
C0C0
C000
C000
C000
6000
6000
3000
0E00
0600
0600
0600
0600
0600
0600
0600
1F80
ENDCHAR
STARTCHAR uni0298
ENCODING 664
SWIDTH 1000 0
DWIDTH 24 0
BBX 13 13 5 1
BITMAP
0F80
3060
4010
4010
8008
8708
8708
8708
8008
4010
4010
3060
0F80
ENDCHAR
STARTCHAR uni029D
ENCODING 669
SWIDTH 1000 0
DWIDTH 24 0
BBX 15 22 5 -2
BITMAP
01C0
01C0
01C0
0000
0000
0000
03C0
00C0
00C0
00C0
00C0
00C0
00C0
00C0
00C0
1FC0
60F0
C0CC
C182
C180
6300
1C00
ENDCHAR
STARTCHAR uni02A1
ENCODING 673
SWIDTH 1000 0
DWIDTH 24 0
BBX 11 19 7 1
BITMAP
1F00
3180
60C0
6060
0060
0060
0060
00C0
00C0
0180
0E00
0C00
0C00
FFC0
0C00
0C00
0C00
0C00
3F00
ENDCHAR
STARTCHAR uni02A2
ENCODING 674
SWIDTH 1000 0
DWIDTH 24 0
BBX 11 19 6 1
BITMAP
1F00
3180
60C0
C0C0
C000
C000
C000
6000
6000
3000
0E00
0600
0600
7FE0
0600
0600
0600
0600
1F80
ENDCHAR
STARTCHAR caron
ENCODING 711
SWIDTH 1000 0
DWIDTH 24 0
BBX 7 4 8 18
BITMAP
82
6C
38
10
ENDCHAR
STARTCHAR uni02C8
ENCODING 712
SWIDTH 1000 0
DWIDTH 24 0
BBX 2 7 11 15
BITMAP
C0
C0
C0
C0
C0
C0
C0
ENDCHAR
STARTCHAR uni02CC
ENCODING 716
SWIDTH 1000 0
DWIDTH 24 0
BBX 2 5 11 -2
BITMAP
C0
C0
C0
C0
C0
ENDCHAR
STARTCHAR uni02D0
ENCODING 720
SWIDTH 1000 0
DWIDTH 24 0
BBX 5 13 9 1
BITMAP
F8
70
70
20
20
00
00
00
20
20
70
70
F8
ENDCHAR
STARTCHAR uni02D1
ENCODING 721
SWIDTH 1000 0
DWIDTH 24 0
BBX 5 5 9 9
BITMAP
F8
70
70
20
20
ENDCHAR
STARTCHAR breve
ENCODING 728
SWIDTH 1000 0
DWIDTH 24 0
BBX 8 3 8 19
BITMAP
C3
7E
3C
ENDCHAR
STARTCHAR dotaccent
ENCODING 729
SWIDTH 1000 0
DWIDTH 24 0
BBX 2 2 11 19
BITMAP
C0
C0
ENDCHAR
STARTCHAR ogonek
ENCODING 731
SWIDTH 1000 0
DWIDTH 24 0
BBX 6 5 9 -2
BITMAP
30
60
C0
E4
78
ENDCHAR
STARTCHAR hungarumlaut
ENCODING 733
SWIDTH 1000 0
DWIDTH 24 0
BBX 13 4 6 18
BITMAP
1E78
38E0
6180
8200
ENDCHAR
STARTCHAR uni02DE
ENCODING 734
SWIDTH 1000 0
DWIDTH 24 0
BBX 8 7 8 5
BITMAP
10
30
D0
10
19
1E
0C
ENDCHAR
STARTCHAR uni02E5
ENCODING 741
SWIDTH 1000 0
DWIDTH 24 0
BBX 11 21 5 0
BITMAP
8020
8020
4020
4020
2020
2020
1020
1020
0820
0820
0420
0420
0220
0220
0120
0120
00A0
00A0
0060
0060
0020
ENDCHAR
STARTCHAR uni02E6
ENCODING 742
SWIDTH 1000 0
DWIDTH 24 0
BBX 8 21 8 0
BITMAP
01
01
01
01
01
FF
01
01
01
01
01
01
01
01
01
01
01
01
01
01
01
ENDCHAR
STARTCHAR uni02E7
ENCODING 743
SWIDTH 1000 0
DWIDTH 24 0
BBX 8 21 8 0
BITMAP
01
01
01
01
01
01
01
01
01
01
FF
01
01
01
01
01
01
01
01
01
01
ENDCHAR
STARTCHAR uni02E8
ENCODING 744
SWIDTH 1000 0
DWIDTH 24 0
BBX 8 21 8 0
BITMAP
01
01
01
01
01
01
01
01
01
01
01
01
01
01
01
FF
01
01
01
01
01
ENDCHAR
STARTCHAR uni02E9
ENCODING 745
SWIDTH 1000 0
DWIDTH 24 0
BBX 11 21 5 0
BITMAP
0020
0060
0060
00A0
00A0
0120
0120
0220
0220
0420
0420
0820
0820
1020
1020
2020
2020
4020
4020
8020
8020
ENDCHAR
STARTCHAR gravecomb
ENCODING 768
SWIDTH 1000 0
DWIDTH 24 0
BBX 7 4 9 18
BITMAP
F0
38
0C
02
ENDCHAR
STARTCHAR acutecomb
ENCODING 769
SWIDTH 1000 0
DWIDTH 24 0
BBX 7 4 8 18
BITMAP
1E
38
60
80
ENDCHAR
STARTCHAR uni0302
ENCODING 770
SWIDTH 1000 0
DWIDTH 24 0
BBX 7 4 8 18
BITMAP
10
38
6C
82
ENDCHAR
STARTCHAR tildecomb
ENCODING 771
SWIDTH 1000 0
DWIDTH 24 0
BBX 10 3 7 19
BITMAP
3840
4C80
8700
ENDCHAR
STARTCHAR uni0304
ENCODING 772
SWIDTH 1000 0
DWIDTH 24 0
BBX 8 1 8 20
BITMAP
FF
ENDCHAR
STARTCHAR uni0306
ENCODING 774
SWIDTH 1000 0
DWIDTH 24 0
BBX 8 3 8 19
BITMAP
C3
7E
3C
ENDCHAR
STARTCHAR uni0308
ENCODING 776
SWIDTH 960 0
DWIDTH 24 0
BBX 6 2 9 19
BITMAP
CC
CC
ENDCHAR
STARTCHAR uni030B
ENCODING 779
SWIDTH 1000 0
DWIDTH 24 0
BBX 13 4 6 18
BITMAP
1E78
38E0
6180
8200
ENDCHAR
STARTCHAR uni030C
ENCODING 780
SWIDTH 1000 0
DWIDTH 24 0
BBX 7 4 8 18
BITMAP
82
6C
38
10
ENDCHAR
STARTCHAR uni030F
ENCODING 783
SWIDTH 1000 0
DWIDTH 24 0
BBX 13 4 5 18
BITMAP
F3C0
38E0
0C30
0208
ENDCHAR
STARTCHAR uni0318
ENCODING 792
SWIDTH 960 0
DWIDTH 24 0
BBX 6 5 9 -2
BITMAP
04
04
FC
04
04
ENDCHAR
STARTCHAR uni0319
ENCODING 793
SWIDTH 960 0
DWIDTH 24 0
BBX 6 5 9 -2
BITMAP
80
80
FC
80
80
ENDCHAR
STARTCHAR uni031A
ENCODING 794
SWIDTH 1000 0
DWIDTH 24 0
BBX 6 5 12 16
BITMAP
FC
04
04
04
04
ENDCHAR
STARTCHAR uni031C
ENCODING 796
SWIDTH 1000 0
DWIDTH 24 0
BBX 3 4 10 -2
BITMAP
60
80
80
60
ENDCHAR
STARTCHAR uni031D
ENCODING 797
SWIDTH 1000 0
DWIDTH 24 0
BBX 7 4 8 -2
BITMAP
10
10
10
FE
ENDCHAR
STARTCHAR uni031E
ENCODING 798
SWIDTH 1000 0
DWIDTH 24 0
BBX 7 4 8 -2
BITMAP
FE
10
10
10
ENDCHAR
STARTCHAR uni031F
ENCODING 799
SWIDTH 1000 0
DWIDTH 24 0
BBX 5 5 9 -2
BITMAP
20
20
F8
20
20
ENDCHAR
STARTCHAR uni0320
ENCODING 800
SWIDTH 1000 0
DWIDTH 24 0
BBX 6 1 9 0
BITMAP
FC
ENDCHAR
STARTCHAR uni0324
ENCODING 804
SWIDTH 1000 0
DWIDTH 24 0
BBX 6 2 9 -2
BITMAP
CC
CC
ENDCHAR
STARTCHAR uni0325
ENCODING 805
SWIDTH 960 0
DWIDTH 24 0
BBX 4 4 10 -2
BITMAP
60
90
90
60
ENDCHAR
STARTCHAR uni0329
ENCODING 809
SWIDTH 1000 0
DWIDTH 24 0
BBX 2 4 11 -2
BITMAP
C0
C0
C0
C0
ENDCHAR
STARTCHAR uni032A
ENCODING 810
SWIDTH 1000 0
DWIDTH 24 0
BBX 8 4 8 -2
BITMAP
FF
81
81
81
ENDCHAR
STARTCHAR uni032C
ENCODING 812
SWIDTH 1000 0
DWIDTH 24 0
BBX 7 4 8 -2
BITMAP
82
6C
38
10
ENDCHAR
STARTCHAR uni032F
ENCODING 815
SWIDTH 1000 0
DWIDTH 24 0
BBX 8 3 8 -2
BITMAP
3C
7E
C3
ENDCHAR
STARTCHAR uni0330
ENCODING 816
SWIDTH 1000 0
DWIDTH 24 0
BBX 10 3 7 -2
BITMAP
3840
4C80
8700
ENDCHAR
STARTCHAR uni0334
ENCODING 820
SWIDTH 1000 0
DWIDTH 24 0
BBX 10 3 7 9
BITMAP
3840
4C80
8700
ENDCHAR
STARTCHAR uni0339
ENCODING 825
SWIDTH 1000 0
DWIDTH 24 0
BBX 3 4 11 -2
BITMAP
C0
20
20
C0
ENDCHAR
STARTCHAR uni033A
ENCODING 826
SWIDTH 1000 0
DWIDTH 24 0
BBX 8 4 8 -2
BITMAP
81
81
81
FF
ENDCHAR
STARTCHAR uni033B
ENCODING 827
SWIDTH 960 0
DWIDTH 24 0
BBX 8 4 8 -2
BITMAP
FF
81
81
FF
ENDCHAR
STARTCHAR uni033C
ENCODING 828
SWIDTH 1000 0
DWIDTH 24 0
BBX 12 4 6 -2
BITMAP
30C0
79E0
CF30
8610
ENDCHAR
STARTCHAR uni033D
ENCODING 829
SWIDTH 1000 0
DWIDTH 24 0
BBX 6 5 9 17
BITMAP
8C
58
30
68
C4
ENDCHAR
STARTCHAR uni0361
ENCODING 865
SWIDTH 1000 0
DWIDTH 24 0
BBX 24 5 0 16
BITMAP
01FF80
0FFFF0
3E007C
600006
800001
ENDCHAR
STARTCHAR Alpha
ENCODING 913
SWIDTH 960 0
DWIDTH 24 0
BBX 20 19 2 1
BITMAP
004000
004000
00E000
00E000
00B000
013000
011800
021800
020C00
020C00
040600
040600
0FFF00
080300
100180
100180
2000C0
2000C0
F803F0
ENDCHAR
STARTCHAR Beta
ENCODING 914
SWIDTH 960 0
DWIDTH 24 0
BBX 16 19 4 1
BITMAP
FFE0
3018
300C
3006
3006
3006
3006
300C
3008
3FF0
300C
3006
3003
3003
3003
3003
3006
300C
FFF0
ENDCHAR
STARTCHAR Gamma
ENCODING 915
SWIDTH 960 0
DWIDTH 24 0
BBX 16 19 4 1
BITMAP
FFFF
3003
3001
3001
3001
3000
3000
3000
3000
3000
3000
3000
3000
3000
3000
3000
3000
3000
FC00
ENDCHAR
STARTCHAR uni0394
ENCODING 916
SWIDTH 960 0
DWIDTH 24 0
BBX 18 19 3 1
BITMAP
008000
008000
01C000
01C000
016000
026000
023000
043000
041800
041800
080C00
080C00
100600
100600
200300
200300
400180
7FFF80
FFFFC0
ENDCHAR
STARTCHAR Epsilon
ENCODING 917
SWIDTH 960 0
DWIDTH 24 0
BBX 16 19 3 1
BITMAP
FFFE
3006
3002
3002
3000
3000
3010
3010
3030
3FF0
3030
3010
3010
3000
3001
3001
3001
3003
FFFF
ENDCHAR
STARTCHAR Zeta
ENCODING 918
SWIDTH 960 0
DWIDTH 24 0
BBX 17 19 3 1
BITMAP
7FFF80
600700
400E00
400C00
401C00
003800
003000
006000
00E000
01C000
018000
030000
070000
0E0000
0C0080
180080
380080
700180
FFFF80
ENDCHAR
STARTCHAR Eta
ENCODING 919
SWIDTH 960 0
DWIDTH 24 0
BBX 18 19 3 1
BITMAP
FC0FC0
300300
300300
300300
300300
300300
300300
300300
300300
3FFF00
300300
300300
300300
300300
300300
300300
300300
300300
FC0FC0
ENDCHAR
STARTCHAR Theta
ENCODING 920
SWIDTH 960 0
DWIDTH 24 0
BBX 18 19 3 1
BITMAP
03F000
0C0C00
180600
300300
600180
600180
C000C0
C408C0
C7F8C0
C7F8C0
C408C0
C000C0
C000C0
600180
600180
300300
180600
0C0C00
03F000
ENDCHAR
STARTCHAR Iota
ENCODING 921
SWIDTH 960 0
DWIDTH 24 0
BBX 6 19 9 1
BITMAP
FC
30
30
30
30
30
30
30
30
30
30
30
30
30
30
30
30
30
FC
ENDCHAR
STARTCHAR Kappa
ENCODING 922
SWIDTH 960 0
DWIDTH 24 0
BBX 18 19 3 1
BITMAP
FC3F00
300C00
300800
301000
302000
304000
308000
310000
330000
378000
39C000
30E000
306000
303000
303800
301C00
300E00
300700
FC1FC0
ENDCHAR
STARTCHAR Lambda
ENCODING 923
SWIDTH 960 0
DWIDTH 24 0
BBX 20 19 2 1
BITMAP
004000
004000
00E000
00E000
00B000
013000
011800
021800
020C00
020C00
040600
040600
080300
080300
100180
100180
2000C0
2000C0
F803F0
ENDCHAR
STARTCHAR Mu
ENCODING 924
SWIDTH 960 0
DWIDTH 24 0
BBX 20 19 2 1
BITMAP
FC03F0
2C02C0
2C02C0
2604C0
2604C0
2604C0
2604C0
2308C0
2308C0
2308C0
2310C0
2190C0
2190C0
21A0C0
20A0C0
20E0C0
20E0C0
2040C0
F843F0
ENDCHAR
STARTCHAR Nu
ENCODING 925
SWIDTH 960 0
DWIDTH 24 0
BBX 18 19 3 1
BITMAP
F807C0
380100
2C0100
2E0100
260100
230100
238100
218100
20C100
20E100
206100
203100
203900
201D00
200D00
200700
200700
200300
F80100
ENDCHAR
STARTCHAR Xi
ENCODING 926
SWIDTH 960 0
DWIDTH 24 0
BBX 16 19 4 1
BITMAP
7FFF
7FFF
C003
8002
8002
0000
0000
1004
1FFC
3FF8
2008
0000
0000
0000
4001
4001
C003
FFFE
FFFE
ENDCHAR
STARTCHAR Omicron
ENCODING 927
SWIDTH 960 0
DWIDTH 24 0
BBX 18 19 3 1
BITMAP
03F000
0C0C00
180600
300300
600180
600180
C000C0
C000C0
C000C0
C000C0
C000C0
C000C0
C000C0
600180
600180
300300
180600
0C0C00
03F000
ENDCHAR
STARTCHAR Pi
ENCODING 928
SWIDTH 960 0
DWIDTH 24 0
BBX 18 19 3 1
BITMAP
FFFFC0
180600
180600
180600
180600
180600
180600
180600
180600
180600
180600
180600
180600
180600
180600
180600
180600
180600
FE1FC0
ENDCHAR
STARTCHAR Rho
ENCODING 929
SWIDTH 960 0
DWIDTH 24 0
BBX 16 19 4 1
BITMAP
FFF0
300C
3006
3003
3003
3003
3003
3003
3006
300C
3FF0
3000
3000
3000
3000
3000
3000
3000
FC00
ENDCHAR
STARTCHAR Sigma
ENCODING 931
SWIDTH 960 0
DWIDTH 24 0
BBX 18 21 3 0
BITMAP
000200
FFFF00
700100
380080
1C0080
0E0000
070000
038000
01C000
00E000
006000
00C000
018000
030000
060000
0C0040
180040
3000C0
7FFF80
FFFF80
000080
ENDCHAR
STARTCHAR Tau
ENCODING 932
SWIDTH 960 0
DWIDTH 24 0
BBX 20 19 2 1
BITMAP
7FFFE0
606060
406020
806010
806010
006000
006000
006000
006000
006000
006000
006000
006000
006000
006000
006000
006000
006000
01F800
ENDCHAR
STARTCHAR Upsilon
ENCODING 933
SWIDTH 960 0
DWIDTH 24 0
BBX 20 19 2 1
BITMAP
1E0780
330CC0
619860
40F020
80F010
006000
006000
006000
006000
006000
006000
006000
006000
006000
006000
006000
006000
006000
01F800
ENDCHAR
STARTCHAR Phi
ENCODING 934
SWIDTH 960 0
DWIDTH 24 0
BBX 18 19 3 1
BITMAP
07F800
00C000
00C000
07F800
18C600
30C300
60C180
C0C0C0
C0C0C0
C0C0C0
C0C0C0
C0C0C0
60C180
30C300
18C600
07F800
00C000
00C000
07F800
ENDCHAR
STARTCHAR Chi
ENCODING 935
SWIDTH 960 0
DWIDTH 24 0
BBX 19 19 3 1
BITMAP
FC07C0
380300
180200
0C0400
0E0800
060800
031000
03A000
01C000
00C000
00E000
017000
023800
021800
040C00
080E00
100700
300380
F807E0
ENDCHAR
STARTCHAR Psi
ENCODING 936
SWIDTH 960 0
DWIDTH 24 0
BBX 20 19 2 1
BITMAP
01F800
006000
7060E0
F861F0
986190
186180
186180
186180
186180
0C6300
0C6300
046200
066600
036C00
00F000
006000
006000
006000
01F800
ENDCHAR
STARTCHAR uni03A9
ENCODING 937
SWIDTH 960 0
DWIDTH 24 0
BBX 18 19 3 1
BITMAP
03F000
0C0C00
180600
300300
600180
600180
C000C0
C000C0
C000C0
C000C0
600180
600180
300300
180600
0C0C00
821040
821040
FE1FC0
FE1FC0
ENDCHAR
STARTCHAR alpha
ENCODING 945
SWIDTH 960 0
DWIDTH 24 0
BBX 15 13 4 1
BITMAP
0386
0C46
1826
302C
702C
6038
E030
C060
C060
C0E0
C1A4
633C
3C18
ENDCHAR
STARTCHAR beta
ENCODING 946
SWIDTH 960 0
DWIDTH 24 0
BBX 16 22 3 -2
BITMAP
0038
00C6
0183
0103
0303
0203
0603
0406
0CCC
0CF0
080C
1806
1806
1006
3006
300C
341C
6338
61E0
6000
C000
C000
ENDCHAR
STARTCHAR gamma
ENCODING 947
SWIDTH 960 0
DWIDTH 24 0
BBX 16 16 4 -2
BITMAP
1E03
330F
4198
81A0
01C0
0180
0180
0300
0300
0700
0600
0E00
0E00
0C00
1C00
1800
ENDCHAR
STARTCHAR delta
ENCODING 948
SWIDTH 960 0
DWIDTH 24 0
BBX 15 19 5 1
BITMAP
0780
0860
0830
041C
020E
0106
0080
0740
1860
3020
6030
6030
C030
C030
C060
C060
40C0
6180
1E00
ENDCHAR
STARTCHAR epsilon
ENCODING 949
SWIDTH 960 0
DWIDTH 24 0
BBX 13 13 5 1
BITMAP
07C0
1C70
3018
3008
3800
1F80
7300
E000
C000
C008
E030
7FE0
3F80
ENDCHAR
STARTCHAR zeta
ENCODING 950
SWIDTH 960 0
DWIDTH 24 0
BBX 14 22 5 -2
BITMAP
0600
0800
101C
107C
0FF0
0180
0300
0600
0C00
1800
3000
6000
6000
C000
C000
F800
7F00
07C0
00E0
0060
38C0
3F00
ENDCHAR
STARTCHAR eta
ENCODING 951
SWIDTH 960 0
DWIDTH 24 0
BBX 16 16 4 -2
BITMAP
1C3C
66C2
8703
0603
0C03
0C06
1806
180C
300C
3018
6018
6030
0030
0060
00E0
00C0
ENDCHAR
STARTCHAR theta
ENCODING 952
SWIDTH 960 0
DWIDTH 24 0
BBX 16 19 4 1
BITMAP
0078
0186
0302
0603
0C03
1803
1803
3006
3FFE
6006
600C
600C
C018
C018
C030
C020
4040
6180
1E00
ENDCHAR
STARTCHAR iota
ENCODING 953
SWIDTH 960 0
DWIDTH 24 0
BBX 12 13 6 1
BITMAP
1800
1800
1800
3000
3000
6000
6000
6000
C010
C020
C1C0
7F00
3C00
ENDCHAR
STARTCHAR kappa
ENCODING 954
SWIDTH 960 0
DWIDTH 24 0
BBX 17 13 3 1
BITMAP
060700
060F80
061980
0C3000
0CC000
1F0000
198000
30C000
30C000
60C200
60C400
C0F800
C07000
ENDCHAR
STARTCHAR lambda
ENCODING 955
SWIDTH 960 0
DWIDTH 24 0
BBX 15 19 4 1
BITMAP
0700
0780
0180
00C0
00C0
0040
0040
0040
00C0
01C0
0340
0640
0C60
1860
3830
3030
6038
E01E
C00E
ENDCHAR
STARTCHAR uni03BC
ENCODING 956
SWIDTH 960 0
DWIDTH 24 0
BBX 18 16 2 -2
BITMAP
030180
030180
070380
060300
060300
0E0700
0C0600
0C0600
0C0400
0C0C00
1C0A40
1613C0
31E180
600000
E00000
C00000
ENDCHAR
STARTCHAR nu
ENCODING 957
SWIDTH 960 0
DWIDTH 24 0
BBX 14 12 5 1
BITMAP
6004
7004
3008
3008
3010
2030
2060
41C0
4780
FE00
F800
C000
ENDCHAR
STARTCHAR xi
ENCODING 958
SWIDTH 960 0
DWIDTH 24 0
BBX 15 22 4 -2
BITMAP
01F8
0600
0400
03FE
0FFC
1000
2000
2000
1800
07FE
0FFC
3000
4000
8000
8000
F800
7F80
07E0
0030
0030
3060
3F80
ENDCHAR
STARTCHAR omicron
ENCODING 959
SWIDTH 960 0
DWIDTH 24 0
BBX 13 13 5 1
BITMAP
07C0
1830
3010
6018
6018
C018
C018
C018
C030
C030
4060
60C0
1F00
ENDCHAR
STARTCHAR pi
ENCODING 960
SWIDTH 960 0
DWIDTH 24 0
BBX 16 14 4 1
BITMAP
0001
3FFF
7FFE
4630
8630
0C60
0C60
18C0
18C0
3080
3184
6188
E1F0
C0E0
ENDCHAR
STARTCHAR rho
ENCODING 961
SWIDTH 960 0
DWIDTH 24 0
BBX 15 16 4 -2
BITMAP
00F0
030C
0604
0C06
0806
1806
1006
300C
280C
2818
6430
63C0
6000
C000
C000
C000
ENDCHAR
STARTCHAR sigma1
ENCODING 962
SWIDTH 1000 0
DWIDTH 24 0
BBX 14 16 5 -2
BITMAP
07C0
1830
3018
200C
600C
601C
2018
3000
1800
0C00
0600
0200
0300
4700
FE00
7C00
ENDCHAR
STARTCHAR sigma
ENCODING 963
SWIDTH 960 0
DWIDTH 24 0
BBX 15 15 5 1
BITMAP
0004
0006
03FE
0FFC
1840
3020
6010
6018
C018
C018
C030
C030
4060
60C0
1F00
ENDCHAR
STARTCHAR tau
ENCODING 964
SWIDTH 960 0
DWIDTH 24 0
BBX 16 14 4 1
BITMAP
0001
3FFF
7FFE
4300
8300
0600
0600
0C00
0C00
1808
1810
1860
0FC0
0700
ENDCHAR
STARTCHAR upsilon
ENCODING 965
SWIDTH 960 0
DWIDTH 24 0
BBX 14 12 5 1
BITMAP
3018
300C
300C
300C
6018
6018
6030
C030
C060
C0C0
4300
3C00
ENDCHAR
STARTCHAR phi
ENCODING 966
SWIDTH 960 0
DWIDTH 24 0
BBX 16 22 4 -2
BITMAP
0030
0030
0030
0060
0060
0040
0040
07F0
18CC
3086
6083
C183
C103
C103
C306
620C
3218
0FE0
0600
0600
0C00
0C00
ENDCHAR
STARTCHAR chi
ENCODING 967
SWIDTH 960 0
DWIDTH 24 0
BBX 16 15 3 -2
BITMAP
0E03
1F07
118E
209C
00B8
00E0
00C0
0180
0380
0E80
1C80
3882
70C4
E07C
C038
ENDCHAR
STARTCHAR psi
ENCODING 968
SWIDTH 960 0
DWIDTH 24 0
BBX 16 22 4 -2
BITMAP
0030
0030
0030
0020
0060
0060
7046
9847
18C3
18C3
3083
3083
3186
6106
610C
6318
2230
1FC0
0600
0600
0C00
0C00
ENDCHAR
STARTCHAR omega
ENCODING 969
SWIDTH 960 0
DWIDTH 24 0
BBX 18 13 3 1
BITMAP
030200
0C0100
180180
300080
6060C0
6060C0
C0E0C0
C0C0C0
C0C0C0
C1C180
41A180
632300
1C1C00
ENDCHAR
STARTCHAR uni0401
ENCODING 1025
SWIDTH 960 0
DWIDTH 24 0
BBX 17 21 4 1
BITMAP
1C3800
1C3800
1C3800
000000
000000
FFFE00
300600
300200
300100
300800
301800
3FF800
301800
300800
300000
300000
300080
300080
300100
300300
FFFF00
ENDCHAR
STARTCHAR uni0410
ENCODING 1040
SWIDTH 960 0
DWIDTH 24 0
BBX 20 19 2 1
BITMAP
004000
00C000
01E000
00E000
00F000
00B000
013800
011800
021C00
020C00
040E00
040600
0FFF00
080300
100380
100180
2001C0
2000C0
F803F0
ENDCHAR
STARTCHAR uni0411
ENCODING 1041
SWIDTH 960 0
DWIDTH 24 0
BBX 16 19 4 1
BITMAP
FFFE
3006
3002
3001
3001
3000
3000
3000
3FF0
300C
3006
3003
3003
3003
3003
3003
3006
300C
FFF0
ENDCHAR
STARTCHAR uni0412
ENCODING 1042
SWIDTH 960 0
DWIDTH 24 0
BBX 16 19 4 1
BITMAP
FFE0
3018
300C
3006
3006
3006
3006
300C
3008
3FF0
300C
3006
3003
3003
3003
3003
3006
300C
FFF0
ENDCHAR
STARTCHAR uni0413
ENCODING 1043
SWIDTH 960 0
DWIDTH 24 0
BBX 16 19 4 1
BITMAP
FFFE
3006
3002
3001
3001
3000
3000
3000
3000
3000
3000
3000
3000
3000
3000
3000
3000
3000
FC00
ENDCHAR
STARTCHAR uni0414
ENCODING 1044
SWIDTH 960 0
DWIDTH 24 0
BBX 20 22 2 -2
BITMAP
07FFE0
008180
008180
008180
008180
008180
008180
008180
018180
010180
010180
010180
010180
030180
020180
020180
040180
080180
7FFFE0
600060
400020
800010
ENDCHAR
STARTCHAR uni0415
ENCODING 1045
SWIDTH 960 0
DWIDTH 24 0
BBX 17 19 4 1
BITMAP
FFFE00
300600
300200
300100
300900
300800
301800
3FF800
301800
300800
300800
300000
300000
300000
300080
300080
300100
300300
FFFF00
ENDCHAR
STARTCHAR uni0416
ENCODING 1046
SWIDTH 960 0
DWIDTH 24 0
BBX 24 19 0 1
BITMAP
307E0C
78181E
78181E
081810
0C1830
041820
041820
021840
011880
03FFC0
0318C0
061860
061860
0C1830
0C1830
181818
181818
30180C
FC7E3F
ENDCHAR
STARTCHAR uni0417
ENCODING 1047
SWIDTH 960 0
DWIDTH 24 0
BBX 15 19 5 1
BITMAP
07C0
3830
E018
C00C
800C
000C
000C
0018
0030
03C0
0038
000C
0006
0006
8006
C00E
E01C
3838
07E0
ENDCHAR
STARTCHAR uni0418
ENCODING 1048
SWIDTH 960 0
DWIDTH 24 0
BBX 18 19 3 1
BITMAP
FC0FC0
300300
300300
300700
300B00
301300
301300
302300
304300
304300
308300
310300
320300
320300
340300
380300
300300
300300
FC0FC0
ENDCHAR
STARTCHAR uni0419
ENCODING 1049
SWIDTH 960 0
DWIDTH 24 0
BBX 18 21 3 1
BITMAP
061800
0E1C00
0C0C00
061800
01E000
FC0FC0
300300
300300
300700
300B00
301300
302300
304300
308300
310300
320300
340300
380300
300300
300300
FC0FC0
ENDCHAR
STARTCHAR uni041A
ENCODING 1050
SWIDTH 960 0
DWIDTH 24 0
BBX 18 19 3 1
BITMAP
FC0700
300F80
301980
301000
303000
302000
306000
30C000
3F8000
31C000
30E000
306000
307000
303800
301C00
300C00
300E00
300700
FC1FC0
ENDCHAR
STARTCHAR uni041B
ENCODING 1051
SWIDTH 960 0
DWIDTH 24 0
BBX 19 19 2 1
BITMAP
07FFE0
008180
008180
008180
008180
008180
008180
008180
018180
010180
010180
010180
010180
010180
630180
E20180
C20180
C40180
7807E0
ENDCHAR
STARTCHAR uni041C
ENCODING 1052
SWIDTH 960 0
DWIDTH 24 0
BBX 22 19 1 1
BITMAP
3E01F0
0E01C0
0E01C0
0B02C0
0B02C0
0B02C0
0984C0
118460
118460
10C860
10C860
10C860
107060
207030
207030
202030
202030
200030
F800FC
ENDCHAR
STARTCHAR uni041D
ENCODING 1053
SWIDTH 960 0
DWIDTH 24 0
BBX 18 19 3 1
BITMAP
FC0FC0
300300
300300
300300
300300
300300
300300
3FFF00
300300
300300
300300
300300
300300
300300
300300
300300
300300
300300
FC0FC0
ENDCHAR
STARTCHAR uni041E
ENCODING 1054
SWIDTH 960 0
DWIDTH 24 0
BBX 18 19 3 1
BITMAP
03F000
0C0C00
180600
300300
600180
600180
C000C0
C000C0
C000C0
C000C0
C000C0
C000C0
C000C0
600180
600180
300300
180600
0C0C00
03F000
ENDCHAR
STARTCHAR uni041F
ENCODING 1055
SWIDTH 960 0
DWIDTH 24 0
BBX 18 19 3 1
BITMAP
FFFFC0
300300
300300
300300
300300
300300
300300
300300
300300
300300
300300
300300
300300
300300
300300
300300
300300
300300
FC0FC0
ENDCHAR
STARTCHAR uni0420
ENCODING 1056
SWIDTH 960 0
DWIDTH 24 0
BBX 16 19 4 1
BITMAP
FFF0
301C
3006
3003
3003
3003
3003
3003
3003
3006
301C
3FF0
3000
3000
3000
3000
3000
3000
FC00
ENDCHAR
STARTCHAR uni0421
ENCODING 1057
SWIDTH 960 0
DWIDTH 24 0
BBX 16 19 3 1
BITMAP
01F8
060F
1803
3001
6001
6000
C000
C000
C000
C000
C000
C000
C000
6000
6001
3001
1803
060F
01F8
ENDCHAR
STARTCHAR uni0422
ENCODING 1058
SWIDTH 960 0
DWIDTH 24 0
BBX 20 19 2 1
BITMAP
3FFFC0
3060C0
606060
406020
806010
006000
006000
006000
006000
006000
006000
006000
006000
006000
006000
006000
006000
006000
01F800
ENDCHAR
STARTCHAR uni0423
ENCODING 1059
SWIDTH 960 0
DWIDTH 24 0
BBX 20 19 2 1
BITMAP
FE03F0
3800C0
180080
180080
0C0100
0C0100
060200
060200
030400
030400
018800
018800
00D000
00F000
186000
386000
304000
108000
0F0000
ENDCHAR
STARTCHAR uni0424
ENCODING 1060
SWIDTH 960 0
DWIDTH 24 0
BBX 18 19 3 1
BITMAP
07F800
00C000
00C000
07F800
18C600
30C300
60C180
C0C0C0
C0C0C0
C0C0C0
C0C0C0
C0C0C0
60C180
30C300
18C600
07F800
00C000
00C000
07F800
ENDCHAR
STARTCHAR uni0425
ENCODING 1061
SWIDTH 960 0
DWIDTH 24 0
BBX 19 19 3 1
BITMAP
FC07C0
380300
180200
0C0400
0E0800
060800
031000
03A000
01C000
00C000
00E000
017000
023800
021800
040C00
080E00
100700
300380
F807E0
ENDCHAR
STARTCHAR uni0426
ENCODING 1062
SWIDTH 960 0
DWIDTH 24 0
BBX 19 22 3 -2
BITMAP
FC1F80
300600
300600
300600
300600
300600
300600
300600
300600
300600
300600
300600
300600
300600
300600
300600
300600
300600
FFFFC0
0000C0
000040
000020
ENDCHAR
STARTCHAR uni0427
ENCODING 1063
SWIDTH 960 0
DWIDTH 24 0
BBX 18 19 3 1
BITMAP
FC0FC0
300300
300300
300300
300300
300300
300300
300300
300300
300300
380300
1C0F00
07F300
000300
000300
000300
000300
000300
000FC0
ENDCHAR
STARTCHAR uni0428
ENCODING 1064
SWIDTH 960 0
DWIDTH 24 0
BBX 22 19 1 1
BITMAP
FCFCFC
303030
303030
303030
303030
303030
303030
303030
303030
303030
303030
303030
303030
303030
303030
303030
303030
303030
FFFFFC
ENDCHAR
STARTCHAR uni0429
ENCODING 1065
SWIDTH 960 0
DWIDTH 24 0
BBX 23 22 1 -2
BITMAP
FCFCFC
303030
303030
303030
303030
303030
303030
303030
303030
303030
303030
303030
303030
303030
303030
303030
303030
303030
FFFFFC
00000C
000004
000002
ENDCHAR
STARTCHAR uni042A
ENCODING 1066
SWIDTH 960 0
DWIDTH 24 0
BBX 21 19 1 1
BITMAP
7FF000
60C000
40C000
80C000
80C000
00C000
00C000
00C000
00FF80
00C060
00C030
00C018
00C018
00C018
00C018
00C018
00C030
00C060
03FF80
ENDCHAR
STARTCHAR uni042B
ENCODING 1067
SWIDTH 960 0
DWIDTH 24 0
BBX 22 19 1 1
BITMAP
FC00FC
300030
300030
300030
300030
300030
300030
300030
3FE030
301830
300C30
300630
300630
300630
300630
300630
300C30
301830
FFE0FC
ENDCHAR
STARTCHAR uni042C
ENCODING 1068
SWIDTH 960 0
DWIDTH 24 0
BBX 16 19 4 1
BITMAP
FC00
3000
3000
3000
3000
3000
3000
3000
3FF0
300C
3006
3003
3003
3003
3003
3003
3006
300C
FFF0
ENDCHAR
STARTCHAR uni042D
ENCODING 1069
SWIDTH 960 0
DWIDTH 24 0
BBX 16 19 4 1
BITMAP
1F80
F060
C018
800C
8006
0006
0003
0003
0387
0FFB
1073
0003
0003
0006
8006
800C
C018
F060
1F80
ENDCHAR
STARTCHAR uni042E
ENCODING 1070
SWIDTH 960 0
DWIDTH 24 0
BBX 22 19 1 1
BITMAP
FC0F80
303060
306030
30C018
30C018
31800C
31800C
3F800C
31800C
31800C
31800C
31800C
31800C
31800C
30C018
30C018
306030
303060
FC0F80
ENDCHAR
STARTCHAR uni042F
ENCODING 1071
SWIDTH 960 0
DWIDTH 24 0
BBX 17 19 3 1
BITMAP
07FF80
180600
300600
600600
600600
600600
600600
600600
300600
180600
07FE00
030600
030600
060600
060600
0C0600
180600
300600
C01F80
ENDCHAR
STARTCHAR uni0430
ENCODING 1072
SWIDTH 960 0
DWIDTH 24 0
BBX 14 13 5 1
BITMAP
0F80
7860
6030
0030
0030
03F0
1C30
6030
C030
C030
C030
60F0
1F3C
ENDCHAR
STARTCHAR uni0431
ENCODING 1073
SWIDTH 960 0
DWIDTH 24 0
BBX 14 19 5 1
BITMAP
0008
07F8
1FF0
3000
6000
4000
8780
9860
B030
E018
E018
C00C
C00C
C00C
6018
6018
3030
1860
0780
ENDCHAR
STARTCHAR uni0432
ENCODING 1074
SWIDTH 960 0
DWIDTH 24 0
BBX 13 13 5 1
BITMAP
FFC0
3030
3018
3018
3018
3030
3FC0
3030
3018
3018
3018
3030
FFC0
ENDCHAR
STARTCHAR uni0433
ENCODING 1075
SWIDTH 960 0
DWIDTH 24 0
BBX 14 13 5 1
BITMAP
FFF8
3018
3008
3004
3000
3000
3000
3000
3000
3000
3000
3000
FC00
ENDCHAR
STARTCHAR uni0434
ENCODING 1076
SWIDTH 960 0
DWIDTH 24 0
BBX 16 16 4 -2
BITMAP
0FFE
0218
0218
0218
0218
0218
0218
0618
0418
0418
0818
1018
7FFE
6006
4002
8001
ENDCHAR
STARTCHAR uni0435
ENCODING 1077
SWIDTH 960 0
DWIDTH 24 0
BBX 13 13 5 1
BITMAP
0780
1860
3030
6030
6018
FFF8
C000
C000
6000
6000
3008
1830
07C0
ENDCHAR
STARTCHAR uni0436
ENCODING 1078
SWIDTH 960 0
DWIDTH 24 0
BBX 20 14 2 0
BITMAP
61F860
7060E0
106080
186180
086100
046200
03FC00
066600
066600
0C6300
186180
186180
3060C0
F9F9F0
ENDCHAR
STARTCHAR uni0437
ENCODING 1079
SWIDTH 960 0
DWIDTH 24 0
BBX 12 13 6 1
BITMAP
1F80
F0E0
C030
8030
0030
0060
1F80
0060
0030
8030
C030
F060
1F80
ENDCHAR
STARTCHAR uni0438
ENCODING 1080
SWIDTH 960 0
DWIDTH 24 0
BBX 14 13 5 1
BITMAP
F03C
6018
6038
6058
6098
6118
6218
6418
6818
7018
6018
6018
F03C
ENDCHAR
STARTCHAR uni0439
ENCODING 1081
SWIDTH 960 0
DWIDTH 24 0
BBX 14 18 5 1
BITMAP
0CC0
1CE0
1860
0840
0780
F03C
6018
6038
6058
6098
6118
6218
6418
6818
7018
6018
6018
F03C
ENDCHAR
STARTCHAR uni043A
ENCODING 1082
SWIDTH 960 0
DWIDTH 24 0
BBX 15 13 5 1
BITMAP
FC18
303C
304C
3080
3300
3E00
3700
3380
31C0
30E0
3070
3038
FC7E
ENDCHAR
STARTCHAR uni043B
ENCODING 1083
SWIDTH 960 0
DWIDTH 24 0
BBX 16 13 3 1
BITMAP
07FF
010C
010C
010C
010C
010C
030C
020C
620C
E60C
C40C
C80C
703F
ENDCHAR
STARTCHAR uni043C
ENCODING 1084
SWIDTH 960 0
DWIDTH 24 0
BBX 16 13 4 1
BITMAP
F00F
700E
5816
5816
4C26
4C26
4C26
4646
4646
4386
4386
4106
F10F
ENDCHAR
STARTCHAR uni043D
ENCODING 1085
SWIDTH 960 0
DWIDTH 24 0
BBX 14 13 5 1
BITMAP
F03C
6018
6018
6018
6018
7FF8
6018
6018
6018
6018
6018
6018
F03C
ENDCHAR
STARTCHAR uni043E
ENCODING 1086
SWIDTH 960 0
DWIDTH 24 0
BBX 14 13 5 1
BITMAP
0780
1860
3030
6018
6018
C00C
C00C
C00C
6018
6018
3030
1860
0780
ENDCHAR
STARTCHAR uni043F
ENCODING 1087
SWIDTH 960 0
DWIDTH 24 0
BBX 14 13 5 1
BITMAP
FFFC
3030
3030
3030
3030
3030
3030
3030
3030
3030
3030
3030
F87C
ENDCHAR
STARTCHAR uni0440
ENCODING 1088
SWIDTH 960 0
DWIDTH 24 0
BBX 15 16 4 -2
BITMAP
31E0
F618
380C
300C
3006
3006
3006
300C
300C
3C18
33E0
3000
3000
3000
3000
FC00
ENDCHAR
STARTCHAR uni0441
ENCODING 1089
SWIDTH 960 0
DWIDTH 24 0
BBX 13 13 5 1
BITMAP
07C0
1830
3018
6018
6000
C000
C000
C000
6000
6000
3008
1830
07C0
ENDCHAR
STARTCHAR uni0442
ENCODING 1090
SWIDTH 960 0
DWIDTH 24 0
BBX 14 13 5 1
BITMAP
7FF8
6318
4308
8304
0300
0300
0300
0300
0300
0300
0300
0300
0FC0
ENDCHAR
STARTCHAR uni0443
ENCODING 1091
SWIDTH 960 0
DWIDTH 24 0
BBX 15 16 5 -2
BITMAP
FC3E
3008
3008
1810
1810
1820
0C20
0C40
0640
0680
0680
0300
0300
C200
C400
7800
ENDCHAR
STARTCHAR uni0444
ENCODING 1092
SWIDTH 960 0
DWIDTH 24 0
BBX 16 22 4 -2
BITMAP
0180
0780
0180
0180
0180
0180
1DB8
23C4
6186
4182
C183
C183
C183
C183
C183
4182
6186
23C4
1DB8
0180
0180
07E0
ENDCHAR
STARTCHAR uni0445
ENCODING 1093
SWIDTH 960 0
DWIDTH 24 0
BBX 17 13 4 1
BITMAP
FE3F00
380800
1C1000
0E2000
074000
038000
01C000
02E000
047000
083800
101C00
200E00
F83F80
ENDCHAR
STARTCHAR uni0446
ENCODING 1094
SWIDTH 960 0
DWIDTH 24 0
BBX 15 16 5 -2
BITMAP
F87C
3030
3030
3030
3030
3030
3030
3030
3030
3030
3030
3030
FFFC
000C
0004
0002
ENDCHAR
STARTCHAR uni0447
ENCODING 1095
SWIDTH 960 0
DWIDTH 24 0
BBX 14 13 5 1
BITMAP
F87C
3030
3030
3030
3030
3030
1870
07B0
0030
0030
0030
0030
00FC
ENDCHAR
STARTCHAR uni0448
ENCODING 1096
SWIDTH 960 0
DWIDTH 24 0
BBX 16 13 4 1
BITMAP
F3CF
6186
6186
6186
6186
6186
6186
6186
6186
6186
6186
6186
FFFF
ENDCHAR
STARTCHAR uni0449
ENCODING 1097
SWIDTH 960 0
DWIDTH 24 0
BBX 18 16 4 -2
BITMAP
F3CF00
618600
618600
618600
618600
618600
618600
618600
618600
618600
618600
618600
FFFF80
000180
000080
000040
ENDCHAR
STARTCHAR uni044A
ENCODING 1098
SWIDTH 960 0
DWIDTH 24 0
BBX 18 13 3 1
BITMAP
7FE000
618000
418000
818000
018000
01FE00
018180
0180C0
0180C0
0180C0
0180C0
018180
07FE00
ENDCHAR
STARTCHAR uni044B
ENCODING 1099
SWIDTH 960 0
DWIDTH 24 0
BBX 18 13 3 1
BITMAP
FC0FC0
300300
300300
300300
300300
3F0300
30C300
306300
306300
306300
306300
30C300
FF0FC0
ENDCHAR
STARTCHAR uni044C
ENCODING 1100
SWIDTH 960 0
DWIDTH 24 0
BBX 13 13 6 1
BITMAP
FC00
3000
3000
3000
3000
3FC0
3030
3018
3018
3018
3018
3030
FFC0
ENDCHAR
STARTCHAR uni044D
ENCODING 1101
SWIDTH 960 0
DWIDTH 24 0
BBX 13 13 7 1
BITMAP
3F00
E0C0
C060
8030
0C30
1FD8
2318
0018
0030
0030
8060
60C0
1F00
ENDCHAR
STARTCHAR uni044E
ENCODING 1102
SWIDTH 960 0
DWIDTH 24 0
BBX 18 13 3 1
BITMAP
FC1C00
306300
30C180
30C180
3180C0
3F80C0
3180C0
3180C0
3180C0
30C180
30C180
306300
FC1C00
ENDCHAR
STARTCHAR uni044F
ENCODING 1103
SWIDTH 960 0
DWIDTH 24 0
BBX 14 13 5 1
BITMAP
0FFC
3030
6030
6030
6030
3030
0FF0
0C30
1C30
1830
3830
3030
F0FC
ENDCHAR
STARTCHAR uni0451
ENCODING 1105
SWIDTH 960 0
DWIDTH 24 0
BBX 13 18 5 1
BITMAP
3870
3870
3870
0000
0000
0780
1860
3030
6030
6018
FFF8
C000
C000
6000
6000
3008
1830
07C0
ENDCHAR
STARTCHAR uni1E3E
ENCODING 7742
SWIDTH 1000 0
DWIDTH 24 0
BBX 20 21 2 1
BITMAP
007800
00E000
018000
020000
FC03F0
2C02C0
2C02C0
2604C0
2604C0
2604C0
2308C0
2308C0
2308C0
2190C0
2190C0
2190C0
20A0C0
20E0C0
20E0C0
2040C0
F843F0
ENDCHAR
STARTCHAR uni1E3F
ENCODING 7743
SWIDTH 1000 0
DWIDTH 24 0
BBX 20 18 2 1
BITMAP
007800
00E000
018000
020000
000000
338700
FC5880
3060C0
3060C0
3060C0
3060C0
3060C0
3060C0
3060C0
3060C0
3060C0
3060C0
F8F1F0
ENDCHAR
STARTCHAR uni1F70
ENCODING 8048
SWIDTH 1000 0
DWIDTH 24 0
BBX 15 18 5 1
BITMAP
1E00
0700
0180
0040
0000
0F90
3070
6030
6030
C030
C030
C030
C030
C030
6030
6032
3072
0F9C
ENDCHAR
STARTCHAR uni1F71
ENCODING 8049
SWIDTH 1000 0
DWIDTH 24 0
BBX 15 18 5 1
BITMAP
0780
0E00
1800
2000
0000
0F90
3070
6030
6030
C030
C030
C030
C030
C030
6030
6032
3072
0F9C
ENDCHAR
STARTCHAR uni1F72
ENCODING 8050
SWIDTH 1000 0
DWIDTH 24 0
BBX 10 18 7 1
BITMAP
3C00
0E00
0300
0080
0000
1F00
71C0
C0C0
C040
C000
6000
1E00
6000
C000
C040
C0C0
61C0
1F00
ENDCHAR
STARTCHAR uni1F73
ENCODING 8051
SWIDTH 1000 0
DWIDTH 24 0
BBX 10 18 7 1
BITMAP
0F00
1C00
3000
4000
0000
1F00
71C0
C0C0
C040
C000
6000
1E00
6000
C000
C040
C0C0
61C0
1F00
ENDCHAR
STARTCHAR uni2010
ENCODING 8208
SWIDTH 960 0
DWIDTH 24 0
BBX 6 1 9 9
BITMAP
FC
ENDCHAR
STARTCHAR endash
ENCODING 8211
SWIDTH 960 0
DWIDTH 24 0
BBX 12 1 6 9
BITMAP
FFF0
ENDCHAR
STARTCHAR emdash
ENCODING 8212
SWIDTH 960 0
DWIDTH 24 0
BBX 24 1 0 9
BITMAP
FFFFFF
ENDCHAR
STARTCHAR uni2016
ENCODING 8214
SWIDTH 960 0
DWIDTH 24 0
BBX 6 24 9 -2
BITMAP
84
84
84
84
84
84
84
84
84
84
84
84
84
84
84
84
84
84
84
84
84
84
84
84
ENDCHAR
STARTCHAR quoteleft
ENCODING 8216
SWIDTH 960 0
DWIDTH 24 0
BBX 3 6 17 16
BITMAP
20
40
C0
C0
E0
E0
ENDCHAR
STARTCHAR quoteright
ENCODING 8217
SWIDTH 960 0
DWIDTH 24 0
BBX 3 6 4 16
BITMAP
E0
E0
60
60
40
80
ENDCHAR
STARTCHAR quotedblleft
ENCODING 8220
SWIDTH 960 0
DWIDTH 24 0
BBX 8 6 14 16
BITMAP
21
42
C6
C6
E7
E7
ENDCHAR
STARTCHAR quotedblright
ENCODING 8221
SWIDTH 960 0
DWIDTH 24 0
BBX 8 6 2 16
BITMAP
E7
E7
63
63
42
84
ENDCHAR
STARTCHAR dagger
ENCODING 8224
SWIDTH 960 0
DWIDTH 24 0
BBX 11 24 6 -2
BITMAP
0400
0E00
0E00
0E00
0400
64C0
FFE0
64C0
0400
0400
1F00
0E00
0E00
0E00
0E00
0E00
0E00
0E00
0E00
0400
0400
0400
0400
0400
ENDCHAR
STARTCHAR daggerdbl
ENCODING 8225
SWIDTH 960 0
DWIDTH 24 0
BBX 11 24 6 -2
BITMAP
0400
0E00
0E00
0400
64C0
FFE0
64C0
0400
1F00
0E00
0E00
0400
0400
0E00
0E00
1F00
0400
64C0
FFE0
64C0
0400
0E00
0E00
0400
ENDCHAR
STARTCHAR bullet
ENCODING 8226
SWIDTH 1000 0
DWIDTH 24 0
BBX 8 8 8 6
BITMAP
3C
7E
FF
FF
FF
FF
7E
3C
ENDCHAR
STARTCHAR twodotenleader
ENCODING 8229
SWIDTH 1000 0
DWIDTH 24 0
BBX 15 3 4 8
BITMAP
E00E
E00E
E00E
ENDCHAR
STARTCHAR ellipsis
ENCODING 8230
SWIDTH 1000 0
DWIDTH 24 0
BBX 19 3 2 8
BITMAP
E0E0E0
E0E0E0
E0E0E0
ENDCHAR
STARTCHAR perthousand
ENCODING 8240
SWIDTH 960 0
DWIDTH 24 0
BBX 22 22 1 -1
BITMAP
380400
440400
440800
C61000
C61000
C62000
C64000
444000
448000
390000
010000
020000
047070
048888
088888
118D8C
118D8C
218D8C
218D8C
408888
808888
807070
ENDCHAR
STARTCHAR minute
ENCODING 8242
SWIDTH 960 0
DWIDTH 24 0
BBX 5 5 4 15
BITMAP
38
30
60
40
80
ENDCHAR
STARTCHAR second
ENCODING 8243
SWIDTH 960 0
DWIDTH 24 0
BBX 10 5 1 15
BITMAP
39C0
3180
6300
4200
8400
ENDCHAR
STARTCHAR uni203B
ENCODING 8251
SWIDTH 960 0
DWIDTH 24 0
BBX 18 18 3 1
BITMAP
80C040
41E080
21E100
10C200
080400
040800
021000
612180
F0C3C0
F0C3C0
612180
021000
040800
080400
10C200
21E100
41E080
80C040
ENDCHAR
STARTCHAR exclamdbl
ENCODING 8252
SWIDTH 1000 0
DWIDTH 24 0
BBX 10 19 7 1
BITMAP
E1C0
E1C0
E1C0
E1C0
E1C0
E1C0
E1C0
E1C0
E1C0
4080
4080
4080
4080
4080
0000
0000
E1C0
E1C0
E1C0
ENDCHAR
STARTCHAR uni203E
ENCODING 8254
SWIDTH 960 0
DWIDTH 24 0
BBX 24 1 0 21
BITMAP
FFFFFF
ENDCHAR
STARTCHAR uni203F
ENCODING 8255
SWIDTH 1000 0
DWIDTH 24 0
BBX 22 5 1 -1
BITMAP
800004
600018
3E01F0
0FFFC0
01FE00
ENDCHAR
STARTCHAR uni2042
ENCODING 8258
SWIDTH 1000 0
DWIDTH 24 0
BBX 23 24 0 -2
BITMAP
001000
003800
003800
039380
01D700
003800
003800
01D700
039380
003800
003800
001000
040040
0E00E0
0E00E0
E4EE4E
75C75C
0E00E0
0E00E0
75C75C
E4EE4E
0E00E0
0E00E0
040040
ENDCHAR
STARTCHAR uni2047
ENCODING 8263
SWIDTH 1000 0
DWIDTH 24 0
BBX 23 19 1 1
BITMAP
1E01E0
618618
C0CC0C
C06C06
E06E06
606606
00C00C
00C00C
018018
030030
060060
040040
080080
080080
000000
000000
1C01C0
1C01C0
1C01C0
ENDCHAR
STARTCHAR uni2048
ENCODING 8264
SWIDTH 1000 0
DWIDTH 24 0
BBX 18 19 2 1
BITMAP
1F01C0
60C1C0
C061C0
C031C0
E031C0
6031C0
0061C0
0061C0
00C1C0
018080
030080
020080
040080
040080
000000
000000
0E01C0
0E01C0
0E01C0
ENDCHAR
STARTCHAR uni2049
ENCODING 8265
SWIDTH 1000 0
DWIDTH 24 0
BBX 18 19 4 1
BITMAP
E07C00
E18300
E30180
E300C0
E380C0
E180C0
E00180
E00180
E00300
400600
400C00
400800
401000
401000
000000
000000
E03800
E03800
E03800
ENDCHAR
STARTCHAR uni2051
ENCODING 8273
SWIDTH 1000 0
DWIDTH 24 0
BBX 11 24 6 -2
BITMAP
0400
0E00
0E00
E4E0
75C0
0E00
0E00
75C0
E4E0
0E00
0E00
0000
0400
0E00
0E00
E4E0
75C0
0E00
0E00
75C0
E4E0
0E00
0E00
0400
ENDCHAR
STARTCHAR Euro
ENCODING 8364
SWIDTH 1000 0
DWIDTH 24 0
BBX 18 20 2 0
BITMAP
007C00
01FF00
038380
0600C0
0C0040
0C0000
180000
7FFF00
FFFE00
180000
180000
7FFE00
FFFC00
180000
0C0000
0C0040
0600C0
038380
01FF00
007C00
ENDCHAR
STARTCHAR uni2103
ENCODING 8451
SWIDTH 960 0
DWIDTH 24 0
BBX 23 20 0 0
BITMAP
300380
480C64
84301C
84600C
48C004
318004
018000
030000
030000
030000
030000
030000
030000
018000
018000
00C002
00C004
006008
001830
0007C0
ENDCHAR
STARTCHAR uni210F
ENCODING 8463
SWIDTH 1000 0
DWIDTH 24 0
BBX 15 19 4 1
BITMAP
0600
1E00
0660
0780
0C00
3C00
CCE0
19F0
1B38
1C18
1818
3018
3030
3030
3030
6060
6062
6076
603C
ENDCHAR
STARTCHAR uni2113
ENCODING 8467
SWIDTH 1000 0
DWIDTH 24 0
BBX 13 19 5 1
BITMAP
01C0
0360
0620
0620
0C20
0C20
0C20
1820
1860
1840
18C0
1880
1980
1B00
1E00
0C08
3C10
C660
03C0
ENDCHAR
STARTCHAR uni2116
ENCODING 8470
SWIDTH 1000 0
DWIDTH 24 0
BBX 22 19 1 1
BITMAP
E07000
602000
702000
702000
582000
582000
4C23C0
4C2660
462660
462C30
432C30
432C30
41AC30
41AC30
40EC30
40EC30
406660
40666C
F023CC
ENDCHAR
STARTCHAR uni2121
ENCODING 8481
SWIDTH 1000 0
DWIDTH 24 0
BBX 24 19 0 1
BITMAP
FFC000
8C4000
8C4000
0C0000
0C0000
0C0000
0CFEF0
0C6260
0C6160
0C6060
0C6060
0C6460
0C7C60
0C6460
0C6060
0C6060
0C6161
0C6262
1EFEFE
ENDCHAR
STARTCHAR uni2127
ENCODING 8487
SWIDTH 1000 0
DWIDTH 24 0
BBX 18 19 3 1
BITMAP
FE1FC0
FE1FC0
821040
821040
0C0C00
180600
300300
600180
600180
C000C0
C000C0
C000C0
C000C0
600180
600180
300300
180600
0C0C00
03F000
ENDCHAR
STARTCHAR uni212B
ENCODING 8491
SWIDTH 960 0
DWIDTH 24 0
BBX 20 22 2 0
BITMAP
006000
009000
010800
010800
009000
006000
000000
006000
006000
00F000
00B000
011800
011800
020C00
020C00
040600
07FE00
080300
080300
100180
3001C0
FC07F0
ENDCHAR
STARTCHAR aleph
ENCODING 8501
SWIDTH 1000 0
DWIDTH 24 0
BBX 16 19 4 0
BITMAP
4030
4038
601C
700E
380E
1C1F
0E33
0762
0FC0
19C0
30E0
2070
6038
601C
600E
7006
7007
7003
E002
ENDCHAR
STARTCHAR onethird
ENCODING 8531
SWIDTH 1000 0
DWIDTH 24 0
BBX 16 23 4 -2
BITMAP
0080
0180
0780
0180
0180
0180
0180
0180
0180
07E0
0000
FFFF
0000
03C0
0660
0420
0060
03C0
0060
0C30
0C30
0660
03C0
ENDCHAR
STARTCHAR twothirds
ENCODING 8532
SWIDTH 1000 0
DWIDTH 24 0
BBX 16 23 4 -2
BITMAP
03C0
0660
0C20
0420
0060
00C0
0180
0310
0620
0FE0
0000
FFFF
0000
03C0
0660
0420
0060
03C0
0060
0C30
0C30
0660
03C0
ENDCHAR
STARTCHAR uni2155
ENCODING 8533
SWIDTH 1000 0
DWIDTH 24 0
BBX 16 23 4 -2
BITMAP
0080
0180
0780
0180
0180
0180
0180
0180
0180
07E0
0000
FFFF
0000
07F0
0400
0400
07C0
0460
0030
0030
0C30
0C60
07C0
ENDCHAR
STARTCHAR uni2160
ENCODING 8544
SWIDTH 1000 0
DWIDTH 24 0
BBX 8 19 8 1
BITMAP
FF
18
18
18
18
18
18
18
18
18
18
18
18
18
18
18
18
18
FF
ENDCHAR
STARTCHAR uni2161
ENCODING 8545
SWIDTH 1000 0
DWIDTH 24 0
BBX 14 19 5 1
BITMAP
FFFC
1860
1860
1860
1860
1860
1860
1860
1860
1860
1860
1860
1860
1860
1860
1860
1860
1860
FFFC
ENDCHAR
STARTCHAR uni2162
ENCODING 8546
SWIDTH 1000 0
DWIDTH 24 0
BBX 20 19 2 1
BITMAP
FFFFF0
186180
186180
186180
186180
186180
186180
186180
186180
186180
186180
186180
186180
186180
186180
186180
186180
186180
FFFFF0
ENDCHAR
STARTCHAR uni2163
ENCODING 8547
SWIDTH 1000 0
DWIDTH 24 0
BBX 21 19 2 1
BITMAP
FFE0F8
318020
318020
318020
30C040
30C040
30C040
306080
306080
306080
303080
303100
303100
301900
301A00
301A00
300E00
300C00
FC0400
ENDCHAR
STARTCHAR uni2164
ENCODING 8548
SWIDTH 1000 0
DWIDTH 24 0
BBX 20 19 2 1
BITMAP
FE03F0
3800C0
180080
180080
0C0100
0C0100
0C0100
060200
060200
030400
030400
030400
018800
018800
00D000
00D000
007000
006000
002000
ENDCHAR
STARTCHAR uni2165
ENCODING 8549
SWIDTH 1000 0
DWIDTH 24 0
BBX 20 19 2 1
BITMAP
FC1FF0
3004C0
3004C0
3004C0
1808C0
1808C0
1808C0
0C10C0
0C10C0
0C10C0
0610C0
0620C0
0620C0
0320C0
0340C0
0340C0
01C0C0
0180C0
0083F0
ENDCHAR
STARTCHAR uni2166
ENCODING 8550
SWIDTH 1000 0
DWIDTH 24 0
BBX 23 19 0 1
BITMAP
FC7FFE
301318
301318
301318
181318
182318
182318
182318
0C2318
0C4318
0C4318
0C4318
064318
068318
068318
068318
038318
030318
010FFE
ENDCHAR
STARTCHAR uni2167
ENCODING 8551
SWIDTH 1000 0
DWIDTH 24 0
BBX 24 19 0 1
BITMAP
FDFFFF
304CCC
304CCC
304CCC
304CCC
184CCC
188CCC
188CCC
188CCC
188CCC
0C8CCC
0D0CCC
0D0CCC
0D0CCC
0D0CCC
070CCC
070CCC
060CCC
023FFF
ENDCHAR
STARTCHAR uni2168
ENCODING 8552
SWIDTH 1000 0
DWIDTH 24 0
BBX 20 19 2 1
BITMAP
FFC3F0
3380C0
318180
30C100
30C200
306200
306400
303400
303800
301800
301C00
302C00
302600
304600
304300
308300
318180
3301C0
FF87F0
ENDCHAR
STARTCHAR uni2169
ENCODING 8553
SWIDTH 1000 0
DWIDTH 24 0
BBX 19 19 3 1
BITMAP
FC07C0
380300
180200
0C0400
0E0800
060800
031000
03A000
01C000
00C000
00E000
017000
023800
021800
040C00
080E00
100700
300380
F807E0
ENDCHAR
STARTCHAR uni216A
ENCODING 8554
SWIDTH 1000 0
DWIDTH 24 0
BBX 20 19 2 1
BITMAP
FC3FF0
380CC0
1818C0
0C10C0
0C20C0
0620C0
0640C0
0340C0
0380C0
0180C0
01C0C0
02C0C0
0260C0
0460C0
0430C0
0830C0
1818C0
301CC0
F87FF0
ENDCHAR
STARTCHAR uni216B
ENCODING 8555
SWIDTH 1000 0
DWIDTH 24 0
BBX 24 19 0 1
BITMAP
FC3FFF
380CCC
1818CC
0C10CC
0C20CC
0620CC
0640CC
0340CC
0380CC
0180CC
01C0CC
02C0CC
0260CC
0460CC
0430CC
0830CC
1818CC
301CCC
F87FFF
ENDCHAR
STARTCHAR uni2170
ENCODING 8560
SWIDTH 1000 0
DWIDTH 24 0
BBX 8 19 8 1
BITMAP
38
38
38
00
00
00
F8
18
18
18
18
18
18
18
18
18
18
18
FF
ENDCHAR
STARTCHAR uni2171
ENCODING 8561
SWIDTH 960 0
DWIDTH 24 0
BBX 14 19 5 1
BITMAP
7070
7070
7070
0000
0000
0000
F0F0
3030
3030
3030
3030
3030
3030
3030
3030
3030
3030
3030
FCFC
ENDCHAR
STARTCHAR uni2172
ENCODING 8562
SWIDTH 1000 0
DWIDTH 24 0
BBX 18 19 3 1
BITMAP
71C700
71C700
71C700
000000
000000
000000
F3CF00
30C300
30C300
30C300
30C300
30C300
30C300
30C300
30C300
30C300
30C300
30C300
FFFFC0
ENDCHAR
STARTCHAR uni2173
ENCODING 8563
SWIDTH 1000 0
DWIDTH 24 0
BBX 19 19 3 1
BITMAP
700000
700000
700000
000000
000000
000000
F7E3E0
318080
318080
30C100
30C100
306100
306200
306200
303400
303400
301C00
301800
FC0800
ENDCHAR
STARTCHAR uni2174
ENCODING 8564
SWIDTH 1000 0
DWIDTH 24 0
BBX 16 13 4 1
BITMAP
FC1F
3004
1804
1808
0C08
0C10
0610
0620
0320
0340
01C0
0180
0080
ENDCHAR
STARTCHAR uni2175
ENCODING 8565
SWIDTH 1000 0
DWIDTH 24 0
BBX 19 19 2 1
BITMAP
000380
000380
000380
000000
000000
000000
FC7F80
301180
301180
182180
182180
0C2180
0C4180
0C4180
068180
068180
038180
030180
0107E0
ENDCHAR
STARTCHAR uni2176
ENCODING 8566
SWIDTH 1000 0
DWIDTH 24 0
BBX 24 19 0 1
BITMAP
00039C
00039C
00039C
000000
000000
000000
FC7FBC
30118C
30118C
18218C
18218C
0C218C
0C418C
0C418C
06818C
06818C
03818C
03018C
0107FF
ENDCHAR
STARTCHAR uni2177
ENCODING 8567
SWIDTH 1000 0
DWIDTH 24 0
BBX 24 19 0 1
BITMAP
001DDC
001DDC
001DDC
000000
000000
000000
FDFDDC
304CCC
304CCC
304CCC
188CCC
188CCC
188CCC
0D0CCC
0D0CCC
0D0CCC
070CCC
060CCC
023FFF
ENDCHAR
STARTCHAR uni2178
ENCODING 8568
SWIDTH 1000 0
DWIDTH 24 0
BBX 16 19 4 1
BITMAP
7000
7000
7000
0000
0000
0000
F7DF
3184
3188
30C8
30D0
3060
3060
3070
30B0
3098
3118
320C
FFBF
ENDCHAR
STARTCHAR uni2179
ENCODING 8569
SWIDTH 1000 0
DWIDTH 24 0
BBX 17 13 4 1
BITMAP
FE3F00
380800
1C1000
0E2000
074000
038000
01C000
02E000
047000
083800
101C00
200E00
F83F80
ENDCHAR
STARTCHAR uni217A
ENCODING 8570
SWIDTH 1000 0
DWIDTH 24 0
BBX 17 19 3 1
BITMAP
000E00
000E00
000E00
000000
000000
000000
7DFE00
184600
188600
0C8600
0D0600
060600
060600
070600
0B0600
098600
118600
20C600
FBFF80
ENDCHAR
STARTCHAR uni217B
ENCODING 8571
SWIDTH 1000 0
DWIDTH 24 0
BBX 22 19 1 1
BITMAP
000E70
000E70
000E70
000000
000000
000000
7DFEF0
184630
188630
0C8630
0D0630
060630
060630
070630
0B0630
098630
118630
20C630
FBFFFC
ENDCHAR
STARTCHAR arrowleft
ENCODING 8592
SWIDTH 960 0
DWIDTH 24 0
BBX 24 9 0 6
BITMAP
020000
040000
180000
300000
FFFFFF
300000
180000
040000
020000
ENDCHAR
STARTCHAR arrowup
ENCODING 8593
SWIDTH 960 0
DWIDTH 24 0
BBX 9 24 7 -2
BITMAP
0800
0800
1C00
3E00
2A00
4900
8880
0800
0800
0800
0800
0800
0800
0800
0800
0800
0800
0800
0800
0800
0800
0800
0800
0800
ENDCHAR
STARTCHAR arrowright
ENCODING 8594
SWIDTH 960 0
DWIDTH 24 0
BBX 24 9 0 6
BITMAP
000040
000020
000018
00000C
FFFFFF
00000C
000018
000020
000040
ENDCHAR
STARTCHAR arrowdown
ENCODING 8595
SWIDTH 960 0
DWIDTH 24 0
BBX 9 24 7 -2
BITMAP
0800
0800
0800
0800
0800
0800
0800
0800
0800
0800
0800
0800
0800
0800
0800
0800
0800
8880
4900
2A00
3E00
1C00
0800
0800
ENDCHAR
STARTCHAR arrowboth
ENCODING 8596
SWIDTH 960 0
DWIDTH 24 0
BBX 24 9 0 6
BITMAP
020040
040020
180018
30000C
FFFFFF
30000C
180018
040020
020040
ENDCHAR
STARTCHAR uni2196
ENCODING 8598
SWIDTH 1000 0
DWIDTH 24 0
BBX 18 18 3 1
BITMAP
C00000
F80000
670000
500000
480000
240000
220000
210000
008000
004000
002000
001000
000800
000400
000200
000100
000080
000040
ENDCHAR
STARTCHAR uni2197
ENCODING 8599
SWIDTH 1000 0
DWIDTH 24 0
BBX 18 18 3 1
BITMAP
0000C0
0007C0
003980
000280
000480
000900
001100
002100
004000
008000
010000
020000
040000
080000
100000
200000
400000
800000
ENDCHAR
STARTCHAR uni2198
ENCODING 8600
SWIDTH 1000 0
DWIDTH 24 0
BBX 18 18 3 1
BITMAP
800000
400000
200000
100000
080000
040000
020000
010000
008000
004000
002100
001100
000900
000480
000280
003980
0007C0
0000C0
ENDCHAR
STARTCHAR uni2199
ENCODING 8601
SWIDTH 1000 0
DWIDTH 24 0
BBX 18 18 3 1
BITMAP
000040
000080
000100
000200
000400
000800
001000
002000
004000
008000
210000
220000
240000
480000
500000
670000
F80000
C00000
ENDCHAR
STARTCHAR uni21C4
ENCODING 8644
SWIDTH 1000 0
DWIDTH 24 0
BBX 24 16 0 2
BITMAP
000040
000020
000018
00000C
FFFFFF
00000C
000018
020020
040040
180000
300000
FFFFFF
300000
180000
040000
020000
ENDCHAR
STARTCHAR arrowdblright
ENCODING 8658
SWIDTH 960 0
DWIDTH 24 0
BBX 24 15 0 3
BITMAP
000080
000040
000020
000010
FFFFF8
000004
000002
000001
000002
000004
FFFFF8
000010
000020
000040
000080
ENDCHAR
STARTCHAR arrowdblboth
ENCODING 8660
SWIDTH 960 0
DWIDTH 24 0
BBX 24 15 0 3
BITMAP
010080
020040
040020
080010
1FFFF8
200004
400002
800001
400002
200004
1FFFF8
080010
040020
020040
010080
ENDCHAR
STARTCHAR uni21E6
ENCODING 8678
SWIDTH 1000 0
DWIDTH 24 0
BBX 22 17 1 2
BITMAP
008000
018000
028000
048000
088000
10FFFC
200004
400004
800004
400004
200004
10FFFC
088000
048000
028000
018000
008000
ENDCHAR
STARTCHAR uni21E7
ENCODING 8679
SWIDTH 1000 0
DWIDTH 24 0
BBX 17 22 3 -1
BITMAP
008000
014000
022000
041000
080800
100400
200200
400100
FC1F80
041000
041000
041000
041000
041000
041000
041000
041000
041000
041000
041000
041000
07F000
ENDCHAR
STARTCHAR uni21E8
ENCODING 8680
SWIDTH 1000 0
DWIDTH 24 0
BBX 22 17 1 2
BITMAP
000400
000600
000500
000480
000440
FFFC20
800010
800008
800004
800008
800010
FFFC20
000440
000480
000500
000600
000400
ENDCHAR
STARTCHAR uni21E9
ENCODING 8681
SWIDTH 1000 0
DWIDTH 24 0
BBX 17 22 3 -1
BITMAP
07F000
041000
041000
041000
041000
041000
041000
041000
041000
041000
041000
041000
041000
FC1F80
400100
200200
100400
080800
041000
022000
014000
008000
ENDCHAR
STARTCHAR universal
ENCODING 8704
SWIDTH 960 0
DWIDTH 24 0
BBX 19 20 2 0
BITMAP
800020
800020
400040
400040
200080
200080
100100
1FFF00
080200
080200
040400
040400
020800
020800
011000
011000
00A000
00A000
004000
004000
ENDCHAR
STARTCHAR partialdiff
ENCODING 8706
SWIDTH 960 0
DWIDTH 24 0
BBX 14 19 5 1
BITMAP
00E0
03F8
0618
080C
0004
0004
0004
078C
1848
3028
6038
6030
C030
C030
C060
C060
40C0
6180
1E00
ENDCHAR
STARTCHAR existential
ENCODING 8707
SWIDTH 960 0
DWIDTH 24 0
BBX 14 17 5 2
BITMAP
FFFC
0004
0004
0004
0004
0004
0004
0004
FFFC
0004
0004
0004
0004
0004
0004
0004
FFFC
ENDCHAR
STARTCHAR emptyset
ENCODING 8709
SWIDTH 1000 0
DWIDTH 24 0
BBX 20 20 2 0
BITMAP
000010
000020
01F840
060680
080100
100280
100480
200840
201040
202040
204040
208040
210040
120080
140080
080100
160600
21F800
400000
800000
ENDCHAR
STARTCHAR gradient
ENCODING 8711
SWIDTH 960 0
DWIDTH 24 0
BBX 18 19 3 1
BITMAP
FFFFC0
7FFF80
600080
300100
300100
180200
180200
0C0400
0C0400
060800
060800
030800
031000
019000
01A000
00E000
00E000
004000
004000
ENDCHAR
STARTCHAR element
ENCODING 8712
SWIDTH 960 0
DWIDTH 24 0
BBX 14 13 5 4
BITMAP
0FFC
3800
6000
4000
C000
8000
FFFC
8000
C000
4000
6000
3800
0FFC
ENDCHAR
STARTCHAR notelement
ENCODING 8713
SWIDTH 1000 0
DWIDTH 24 0
BBX 14 19 5 1
BITMAP
0100
0100
0100
0FFC
3900
6100
4100
C100
8100
FFFC
8100
C100
4100
6100
3900
0FFC
0100
0100
0100
ENDCHAR
STARTCHAR suchthat
ENCODING 8715
SWIDTH 960 0
DWIDTH 24 0
BBX 14 13 5 4
BITMAP
FFC0
0070
0018
0008
000C
0004
FFFC
0004
000C
0008
0018
0070
FFC0
ENDCHAR
STARTCHAR minus
ENCODING 8722
SWIDTH 960 0
DWIDTH 24 0
BBX 18 1 3 10
BITMAP
FFFFC0
ENDCHAR
STARTCHAR uni2213
ENCODING 8723
SWIDTH 1000 0
DWIDTH 24 0
BBX 18 18 3 1
BITMAP
FFFFC0
000000
000000
008000
008000
008000
008000
008000
008000
008000
FFFFC0
008000
008000
008000
008000
008000
008000
008000
ENDCHAR
STARTCHAR radical
ENCODING 8730
SWIDTH 960 0
DWIDTH 24 0
BBX 24 24 0 -2
BITMAP
0007FF
000400
000800
000800
000800
001000
001000
001000
002000
002000
002000
004000
004000
004000
108000
308000
788000
990000
1D0000
0D0000
0E0000
0E0000
040000
040000
ENDCHAR
STARTCHAR proportional
ENCODING 8733
SWIDTH 960 0
DWIDTH 24 0
BBX 21 12 1 4
BITMAP
0E01E0
3B8738
60CC08
404800
C07800
803000
803000
C07800
404800
60CC08
3B8738
0E01E0
ENDCHAR
STARTCHAR infinity
ENCODING 8734
SWIDTH 960 0
DWIDTH 24 0
BBX 22 12 1 4
BITMAP
0E01C0
3B8770
60CC18
404808
C0780C
803004
803004
C0780C
404808
60CC18
3B8770
0E01C0
ENDCHAR
STARTCHAR orthogonal
ENCODING 8735
SWIDTH 1000 0
DWIDTH 24 0
BBX 18 18 3 1
BITMAP
800000
800000
800000
800000
800000
800000
800000
800000
800000
800000
800000
800000
800000
800000
800000
800000
800000
FFFFC0
ENDCHAR
STARTCHAR angle
ENCODING 8736
SWIDTH 960 0
DWIDTH 24 0
BBX 19 17 2 2
BITMAP
000080
000100
000200
000400
000800
001000
002000
004000
008000
010000
020000
040000
080000
100000
200000
400000
FFFFE0
ENDCHAR
STARTCHAR uni2225
ENCODING 8741
SWIDTH 1000 0
DWIDTH 24 0
BBX 16 18 4 1
BITMAP
0081
0081
0102
0102
0204
0204
0408
0408
0810
0810
1020
1020
2040
2040
4080
4080
8100
8100
ENDCHAR
STARTCHAR uni2226
ENCODING 8742
SWIDTH 1000 0
DWIDTH 24 0
BBX 16 18 4 1
BITMAP
0081
0081
0102
2102
1204
0A04
0408
0608
0910
0890
1060
1020
2050
2048
4084
4080
8100
8100
ENDCHAR
STARTCHAR logicaland
ENCODING 8743
SWIDTH 960 0
DWIDTH 24 0
BBX 17 18 3 1
BITMAP
008000
008000
014000
014000
022000
022000
041000
041000
080800
080800
100400
100400
200200
200200
400100
400100
800080
800080
ENDCHAR
STARTCHAR logicalor
ENCODING 8744
SWIDTH 960 0
DWIDTH 24 0
BBX 17 18 3 1
BITMAP
800080
800080
400100
400100
200200
200200
100400
100400
080800
080800
041000
041000
022000
022000
014000
014000
008000
008000
ENDCHAR
STARTCHAR intersection
ENCODING 8745
SWIDTH 960 0
DWIDTH 24 0
BBX 14 18 5 1
BITMAP
0780
1CE0
3030
6018
4008
C00C
8004
8004
8004
8004
8004
8004
8004
8004
8004
8004
8004
8004
ENDCHAR
STARTCHAR union
ENCODING 8746
SWIDTH 960 0
DWIDTH 24 0
BBX 14 18 5 1
BITMAP
8004
8004
8004
8004
8004
8004
8004
8004
8004
8004
8004
8004
C00C
4008
6018
3030
1CE0
0780
ENDCHAR
STARTCHAR integral
ENCODING 8747
SWIDTH 960 0
DWIDTH 24 0
BBX 6 24 9 -2
BITMAP
18
3C
4C
40
40
40
60
60
60
70
30
30
30
30
38
18
18
18
08
08
08
C8
F0
60
ENDCHAR
STARTCHAR uni222C
ENCODING 8748
SWIDTH 960 0
DWIDTH 24 0
BBX 14 24 5 -2
BITMAP
1818
3C3C
4C4C
4040
4040
4040
6060
6060
6060
7070
3030
3030
3030
3030
3838
1818
1818
1818
0808
0808
0808
C8C8
F0F0
6060
ENDCHAR
STARTCHAR uni222E
ENCODING 8750
SWIDTH 1000 0
DWIDTH 24 0
BBX 8 24 8 -2
BITMAP
0C
1E
26
20
20
20
30
30
3C
7A
99
99
99
99
5E
3C
0C
0C
04
04
04
64
78
30
ENDCHAR
STARTCHAR therefore
ENCODING 8756
SWIDTH 960 0
DWIDTH 24 0
BBX 17 16 3 2
BITMAP
01C000
01C000
01C000
000000
000000
000000
000000
000000
000000
000000
000000
000000
000000
E00380
E00380
E00380
ENDCHAR
STARTCHAR uni2235
ENCODING 8757
SWIDTH 960 0
DWIDTH 24 0
BBX 17 16 3 2
BITMAP
E00380
E00380
E00380
000000
000000
000000
000000
000000
000000
000000
000000
000000
000000
01C000
01C000
01C000
ENDCHAR
STARTCHAR uni223D
ENCODING 8765
SWIDTH 960 0
DWIDTH 24 0
BBX 22 12 1 4
BITMAP
0F01C0
398770
600C18
401808
C0100C
803004
802004
C0600C
404008
60C018
3B8670
0E03C0
ENDCHAR
STARTCHAR uni2243
ENCODING 8771
SWIDTH 1000 0
DWIDTH 24 0
BBX 18 8 3 7
BITMAP
3E0000
638000
80C040
007180
001F00
000000
000000
FFFFC0
ENDCHAR
STARTCHAR congruent
ENCODING 8773
SWIDTH 1000 0
DWIDTH 24 0
BBX 18 13 3 5
BITMAP
3E0000
638000
80C040
007180
001F00
000000
000000
FFFFC0
000000
000000
000000
000000
FFFFC0
ENDCHAR
STARTCHAR approxequal
ENCODING 8776
SWIDTH 1000 0
DWIDTH 24 0
BBX 18 10 3 5
BITMAP
3E0000
638000
80C040
007180
001F00
3E0000
638000
80C040
007180
001F00
ENDCHAR
STARTCHAR uni2252
ENCODING 8786
SWIDTH 960 0
DWIDTH 24 0
BBX 18 16 3 2
BITMAP
380000
380000
380000
000000
000000
FFFFC0
000000
000000
000000
000000
FFFFC0
000000
000000
000700
000700
000700
ENDCHAR
STARTCHAR notequal
ENCODING 8800
SWIDTH 960 0
DWIDTH 24 0
BBX 18 16 3 2
BITMAP
001000
001000
001000
002000
002000
FFFFC0
004000
004000
008000
008000
FFFFC0
010000
010000
020000
020000
020000
ENDCHAR
STARTCHAR equivalence
ENCODING 8801
SWIDTH 960 0
DWIDTH 24 0
BBX 18 11 3 5
BITMAP
FFFFC0
000000
000000
000000
000000
FFFFC0
000000
000000
000000
000000
FFFFC0
ENDCHAR
STARTCHAR uni2262
ENCODING 8802
SWIDTH 1000 0
DWIDTH 24 0
BBX 18 19 3 1
BITMAP
000800
000800
001000
001000
FFFFC0
002000
002000
004000
004000
FFFFC0
008000
008000
010000
010000
FFFFC0
020000
020000
040000
040000
ENDCHAR
STARTCHAR uni2266
ENCODING 8806
SWIDTH 960 0
DWIDTH 24 0
BBX 18 19 3 1
BITMAP
0000C0
000700
003800
01C000
0E0000
300000
C00000
300000
0E0000
01C000
003800
000700
0000C0
000000
FFFFC0
000000
000000
000000
FFFFC0
ENDCHAR
STARTCHAR uni2267
ENCODING 8807
SWIDTH 960 0
DWIDTH 24 0
BBX 18 19 3 1
BITMAP
C00000
380000
070000
00E000
001C00
000300
0000C0
000300
001C00
00E000
070000
380000
C00000
000000
FFFFC0
000000
000000
000000
FFFFC0
ENDCHAR
STARTCHAR uni226A
ENCODING 8810
SWIDTH 960 0
DWIDTH 24 0
BBX 20 20 2 0
BITMAP
000410
001860
002080
00C300
010400
061800
082000
30C000
410000
820000
410000
30C000
082000
041000
030C00
008200
004100
0030C0
000820
000410
ENDCHAR
STARTCHAR uni226B
ENCODING 8811
SWIDTH 960 0
DWIDTH 24 0
BBX 20 20 2 0
BITMAP
820000
618000
104000
0C3000
020800
018600
004100
0030C0
000820
000410
000820
0030C0
004100
008200
030C00
041000
082000
30C000
410000
820000
ENDCHAR
STARTCHAR uni2276
ENCODING 8822
SWIDTH 1000 0
DWIDTH 24 0
BBX 18 20 3 0
BITMAP
0001C0
000E00
007000
038000
1C0000
E00000
1C0000
038000
007000
E00E00
1C01C0
038000
007000
000E00
0001C0
000E00
007000
038000
1C0000
E00000
ENDCHAR
STARTCHAR uni2277
ENCODING 8823
SWIDTH 1000 0
DWIDTH 24 0
BBX 18 20 3 0
BITMAP
E00000
1C0000
038000
007000
000E00
0001C0
000E00
007000
038000
1C01C0
E00E00
007000
038000
1C0000
E00000
1C0000
038000
007000
000E00
0001C0
ENDCHAR
STARTCHAR propersubset
ENCODING 8834
SWIDTH 960 0
DWIDTH 24 0
BBX 18 14 3 3
BITMAP
07FFC0
1C0000
300000
600000
400000
C00000
800000
800000
C00000
400000
600000
300000
1C0000
07FFC0
ENDCHAR
STARTCHAR propersuperset
ENCODING 8835
SWIDTH 960 0
DWIDTH 24 0
BBX 18 14 3 3
BITMAP
FFF800
000E00
000300
000180
000080
0000C0
000040
000040
0000C0
000080
000180
000300
000E00
FFF800
ENDCHAR
STARTCHAR notsubset
ENCODING 8836
SWIDTH 1000 0
DWIDTH 24 0
BBX 18 20 3 0
BITMAP
000080
000080
000100
07FFC0
1C0200
300400
600400
400800
C00800
801000
801000
C02000
402000
604000
304000
1C8000
07FFC0
010000
020000
020000
ENDCHAR
STARTCHAR uni2285
ENCODING 8837
SWIDTH 1000 0
DWIDTH 24 0
BBX 18 20 3 0
BITMAP
001000
001000
002000
FFF800
004E00
008300
008180
010080
0100C0
020040
020040
0400C0
040080
080180
080300
100E00
FFF800
200000
400000
400000
ENDCHAR
STARTCHAR reflexsubset
ENCODING 8838
SWIDTH 960 0
DWIDTH 24 0
BBX 18 16 3 2
BITMAP
0FFFC0
380000
600000
400000
C00000
800000
800000
C00000
400000
600000
380000
0FFFC0
000000
000000
000000
FFFFC0
ENDCHAR
STARTCHAR reflexsuperset
ENCODING 8839
SWIDTH 960 0
DWIDTH 24 0
BBX 18 16 3 2
BITMAP
FFFC00
000700
000180
000080
0000C0
000040
000040
0000C0
000080
000180
000700
FFFC00
000000
000000
000000
FFFFC0
ENDCHAR
STARTCHAR uni228A
ENCODING 8842
SWIDTH 1000 0
DWIDTH 24 0
BBX 18 19 3 -1
BITMAP
0FFFC0
380000
600000
400000
C00000
800000
800000
C00000
400000
600000
380000
0FFFC0
000800
001000
002000
FFFFC0
004000
008000
010000
ENDCHAR
STARTCHAR uni228B
ENCODING 8843
SWIDTH 1000 0
DWIDTH 24 0
BBX 18 19 3 -1
BITMAP
FFFC00
000700
000180
000080
0000C0
000040
000040
0000C0
000080
000180
000700
FFFC00
002000
004000
008000
FFFFC0
010000
020000
040000
ENDCHAR
STARTCHAR circleplus
ENCODING 8853
SWIDTH 1000 0
DWIDTH 24 0
BBX 22 22 1 -1
BITMAP
00FC00
030300
0C00C0
102020
202010
202010
402008
402008
802004
802004
9FFFE4
802004
802004
802004
402008
402008
202010
202010
102020
0C00C0
030300
00FC00
ENDCHAR
STARTCHAR uni2296
ENCODING 8854
SWIDTH 960 0
DWIDTH 24 0
BBX 22 22 1 -1
BITMAP
00FC00
030300
0C00C0
100020
200010
200010
400008
400008
800004
800004
9FFFE4
800004
800004
800004
400008
400008
200010
200010
100020
0C00C0
030300
00FC00
ENDCHAR
STARTCHAR circlemultiply
ENCODING 8855
SWIDTH 960 0
DWIDTH 24 0
BBX 22 22 1 -1
BITMAP
00FC00
030300
0C00C0
100020
200010
240090
420108
410208
808404
804804
803004
803004
804804
808404
410208
420108
240090
200010
100020
0C00C0
030300
00FC00
ENDCHAR
STARTCHAR perpendicular
ENCODING 8869
SWIDTH 960 0
DWIDTH 24 0
BBX 18 17 3 2
BITMAP
008000
008000
008000
008000
008000
008000
008000
008000
008000
008000
008000
008000
008000
008000
008000
008000
FFFFC0
ENDCHAR
STARTCHAR uni22BF
ENCODING 8895
SWIDTH 1000 0
DWIDTH 24 0
BBX 18 18 3 1
BITMAP
000040
0000C0
000140
000240
000440
000840
001040
002040
004040
008040
010040
020040
040040
080040
100040
200040
400040
FFFFC0
ENDCHAR
STARTCHAR uni22DA
ENCODING 8922
SWIDTH 1000 0
DWIDTH 24 0
BBX 15 21 4 0
BITMAP
000E
0070
0380
1C00
E000
1C00
0380
0070
000E
0000
FFFE
0000
E000
1C00
0380
0070
000E
0070
0380
1C00
E000
ENDCHAR
STARTCHAR uni22DB
ENCODING 8923
SWIDTH 1000 0
DWIDTH 24 0
BBX 15 21 4 0
BITMAP
E000
1C00
0380
0070
000E
0070
0380
1C00
E000
0000
FFFE
0000
000E
0070
0380
1C00
E000
1C00
0380
0070
000E
ENDCHAR
STARTCHAR uni2305
ENCODING 8965
SWIDTH 1000 0
DWIDTH 24 0
BBX 17 11 3 3
BITMAP
FFFF80
008000
01C000
014000
022000
041000
041000
080800
100400
100400
200200
ENDCHAR
STARTCHAR uni2306
ENCODING 8966
SWIDTH 1000 0
DWIDTH 24 0
BBX 17 14 3 3
BITMAP
FFFF80
000000
000000
FFFF80
008000
01C000
014000
022000
041000
041000
080800
100400
100400
200200
ENDCHAR
STARTCHAR uni2312
ENCODING 8978
SWIDTH 960 0
DWIDTH 24 0
BBX 24 3 0 19
BITMAP
03FFC0
3FFFFC
E00007
ENDCHAR
STARTCHAR uni2318
ENCODING 8984
SWIDTH 1000 0
DWIDTH 24 0
BBX 22 22 1 -1
BITMAP
3C00F0
660198
C3030C
810204
810204
C1020C
610218
3FFFF0
010200
010200
010200
010200
010200
010200
3FFFF0
610218
C1020C
810204
810204
C3030C
660198
3C00F0
ENDCHAR
STARTCHAR uni23BE
ENCODING 9150
SWIDTH 960 0
DWIDTH 24 0
BBX 13 24 11 -2
BITMAP
FFF8
8000
8000
8000
8000
8000
8000
8000
8000
8000
8000
8000
8000
8000
8000
8000
8000
8000
8000
8000
8000
8000
8000
8000
ENDCHAR
STARTCHAR uni23BF
ENCODING 9151
SWIDTH 960 0
DWIDTH 24 0
BBX 13 24 11 -2
BITMAP
8000
8000
8000
8000
8000
8000
8000
8000
8000
8000
8000
8000
8000
8000
8000
8000
8000
8000
8000
8000
8000
8000
8000
FFF8
ENDCHAR
STARTCHAR uni23C0
ENCODING 9152
SWIDTH 1000 0
DWIDTH 24 0
BBX 17 24 3 -2
BITMAP
008000
008000
008000
03E000
0C9800
308600
208200
408100
408100
808080
808080
808080
808080
808080
408100
408100
208200
308600
0C9800
03E000
008000
008000
008000
008000
ENDCHAR
STARTCHAR uni23C1
ENCODING 9153
SWIDTH 1000 0
DWIDTH 24 0
BBX 24 24 0 -2
BITMAP
FFFFFF
001000
001000
007C00
019300
0610C0
041040
081020
081020
101010
101010
101010
101010
101010
081020
081020
041040
0610C0
019300
007C00
001000
001000
001000
001000
ENDCHAR
STARTCHAR uni23C2
ENCODING 9154
SWIDTH 1000 0
DWIDTH 24 0
BBX 24 24 0 -2
BITMAP
001000
001000
001000
007C00
019300
0610C0
041040
081020
081020
101010
101010
101010
101010
101010
081020
081020
041040
0610C0
019300
007C00
001000
001000
001000
FFFFFF
ENDCHAR
STARTCHAR uni23C3
ENCODING 9155
SWIDTH 1000 0
DWIDTH 24 0
BBX 17 24 3 -2
BITMAP
008000
008000
008000
008000
008000
01C000
01C000
02A000
02A000
049000
049000
088800
088800
108400
108400
208200
208200
408100
408100
FFFF80
008000
008000
008000
008000
ENDCHAR
STARTCHAR uni23C4
ENCODING 9156
SWIDTH 1000 0
DWIDTH 24 0
BBX 24 24 0 -2
BITMAP
FFFFFF
001000
001000
001000
001000
003800
003800
005400
005400
009200
009200
011100
011100
021080
021080
041040
041040
081020
081020
1FFFF0
001000
001000
001000
001000
ENDCHAR
STARTCHAR uni23C5
ENCODING 9157
SWIDTH 1000 0
DWIDTH 24 0
BBX 24 24 0 -2
BITMAP
001000
001000
001000
001000
001000
003800
003800
005400
005400
009200
009200
011100
011100
021080
021080
041040
041040
081020
081020
1FFFF0
001000
001000
001000
FFFFFF
ENDCHAR
STARTCHAR uni23C6
ENCODING 9158
SWIDTH 1000 0
DWIDTH 24 0
BBX 17 24 3 -2
BITMAP
008000
008000
008000
008000
008000
008000
008000
008000
008000
008000
3E8000
638080
80E300
00BE00
008000
008000
008000
008000
008000
008000
008000
008000
008000
008000
ENDCHAR
STARTCHAR uni23C7
ENCODING 9159
SWIDTH 1000 0
DWIDTH 24 0
BBX 24 24 0 -2
BITMAP
FFFFFF
001000
001000
001000
001000
001000
001000
001000
001000
001000
07D000
0C7010
101C60
0017C0
001000
001000
001000
001000
001000
001000
001000
001000
001000
001000
ENDCHAR
STARTCHAR uni23C8
ENCODING 9160
SWIDTH 1000 0
DWIDTH 24 0
BBX 24 24 0 -2
BITMAP
001000
001000
001000
001000
001000
001000
001000
001000
001000
001000
07D000
0C7010
101C60
0017C0
001000
001000
001000
001000
001000
001000
001000
001000
001000
FFFFFF
ENDCHAR
STARTCHAR uni23C9
ENCODING 9161
SWIDTH 960 0
DWIDTH 24 0
BBX 24 24 0 -2
BITMAP
FFFFFF
001000
001000
001000
001000
001000
001000
001000
001000
001000
001000
001000
001000
001000
001000
001000
001000
001000
001000
001000
001000
001000
001000
001000
ENDCHAR
STARTCHAR uni23CA
ENCODING 9162
SWIDTH 960 0
DWIDTH 24 0
BBX 24 24 0 -2
BITMAP
001000
001000
001000
001000
001000
001000
001000
001000
001000
001000
001000
001000
001000
001000
001000
001000
001000
001000
001000
001000
001000
001000
001000
FFFFFF
ENDCHAR
STARTCHAR uni23CB
ENCODING 9163
SWIDTH 960 0
DWIDTH 24 0
BBX 12 24 0 -2
BITMAP
FFF0
0010
0010
0010
0010
0010
0010
0010
0010
0010
0010
0010
0010
0010
0010
0010
0010
0010
0010
0010
0010
0010
0010
0010
ENDCHAR
STARTCHAR uni23CC
ENCODING 9164
SWIDTH 960 0
DWIDTH 24 0
BBX 12 24 0 -2
BITMAP
0010
0010
0010
0010
0010
0010
0010
0010
0010
0010
0010
0010
0010
0010
0010
0010
0010
0010
0010
0010
0010
0010
0010
FFF0
ENDCHAR
STARTCHAR uni23CE
ENCODING 9166
SWIDTH 1000 0
DWIDTH 24 0
BBX 22 20 1 0
BITMAP
0001FC
000104
000104
008104
018104
028104
048104
088304
10FE04
200004
400004
800008
400008
200030
10FFC0
088000
048000
028000
018000
008000
ENDCHAR
STARTCHAR uni2423
ENCODING 9251
SWIDTH 1000 0
DWIDTH 24 0
BBX 20 4 2 0
BITMAP
800010
800010
800010
FFFFF0
ENDCHAR
STARTCHAR uni2460
ENCODING 9312
SWIDTH 1000 0
DWIDTH 24 0
BBX 24 24 0 -2
BITMAP
007E00
018180
060060
080010
100808
201804
20F804
401802
401802
801801
801801
801801
801801
801801
801801
401802
401802
201804
201804
10FF08
080010
060060
018180
007E00
ENDCHAR
STARTCHAR uni2461
ENCODING 9313
SWIDTH 1000 0
DWIDTH 24 0
BBX 24 24 0 -2
BITMAP
007E00
018180
060060
080010
103C08
20E704
20C304
418182
418182
800301
800301
800601
800C01
801801
803001
406002
40C082
208084
21FF84
11FF88
080010
060060
018180
007E00
ENDCHAR
STARTCHAR uni2462
ENCODING 9314
SWIDTH 1000 0
DWIDTH 24 0
BBX 24 24 0 -2
BITMAP
007E00
018180
060060
080010
103C08
20E704
20C304
418182
418182
800181
800301
803E01
800701
800301
818181
418182
418182
20C304
20E704
103C08
080010
060060
018180
007E00
ENDCHAR
STARTCHAR uni2463
ENCODING 9315
SWIDTH 1000 0
DWIDTH 24 0
BBX 24 24 0 -2
BITMAP
007E00
018180
060060
080010
101E08
201604
202604
402602
404602
804601
808601
808601
810601
810601
820601
43FFC2
400602
200604
200604
101F88
080010
060060
018180
007E00
ENDCHAR
STARTCHAR uni2464
ENCODING 9316
SWIDTH 1000 0
DWIDTH 24 0
BBX 24 24 0 -2
BITMAP
007E00
018180
060060
080010
10FF08
20FF04
208004
408002
408002
808001
80BE01
80C301
808301
800181
800181
400182
418182
218304
20C304
107E08
080010
060060
018180
007E00
ENDCHAR
STARTCHAR uni2465
ENCODING 9317
SWIDTH 1000 0
DWIDTH 24 0
BBX 24 24 0 -2
BITMAP
007E00
018180
060060
080010
107E08
20C304
20C304
418002
418002
818001
81BE01
81C301
818301
818181
818181
418182
418182
20C304
20C304
107E08
080010
060060
018180
007E00
ENDCHAR
STARTCHAR uni2466
ENCODING 9318
SWIDTH 1000 0
DWIDTH 24 0
BBX 24 24 0 -2
BITMAP
007E00
018180
060060
080010
11FF88
21FF84
210084
410102
400302
800201
800601
800401
800C01
800801
800801
401802
401802
201804
201804
101808
080010
060060
018180
007E00
ENDCHAR
STARTCHAR uni2467
ENCODING 9319
SWIDTH 1000 0
DWIDTH 24 0
BBX 24 24 0 -2
BITMAP
007E00
018180
060060
080010
103C08
20E704
20C304
418182
418182
80C101
80F201
807E01
804E01
808301
818381
418182
418182
20C304
20E704
103C08
080010
060060
018180
007E00
ENDCHAR
STARTCHAR uni2468
ENCODING 9320
SWIDTH 1000 0
DWIDTH 24 0
BBX 24 24 0 -2
BITMAP
007E00
018180
060060
080010
107E08
20C304
20C304
418182
418182
818181
818181
80C181
80C381
807D81
800181
400182
400182
20C304
20C304
107E08
080010
060060
018180
007E00
ENDCHAR
STARTCHAR uni2469
ENCODING 9321
SWIDTH 1000 0
DWIDTH 24 0
BBX 24 24 0 -2
BITMAP
007E00
018180
060060
080010
100008
208384
2186C4
478442
418C62
818C61
818C61
818C61
818C61
818C61
818C61
418C62
418442
2186C4
27E384
100008
080010
060060
018180
007E00
ENDCHAR
STARTCHAR uni246A
ENCODING 9322
SWIDTH 1000 0
DWIDTH 24 0
BBX 24 24 0 -2
BITMAP
007E00
018180
060060
080010
100008
208084
218184
478782
418182
818181
818181
818181
818181
818181
818181
418182
418182
218184
27E7E4
100008
080010
060060
018180
007E00
ENDCHAR
STARTCHAR uni246B
ENCODING 9323
SWIDTH 1000 0
DWIDTH 24 0
BBX 24 24 0 -2
BITMAP
007E00
018180
060060
080010
100008
208384
2186C4
478C62
418C62
818061
818061
8180C1
818081
818181
818301
418622
418422
218FE4
27EFE4
100008
080010
060060
018180
007E00
ENDCHAR
STARTCHAR uni246C
ENCODING 9324
SWIDTH 1000 0
DWIDTH 24 0
BBX 24 24 0 -2
BITMAP
007E00
018180
060060
080010
100008
208384
2186C4
478C62
418C62
818061
818041
818381
8180C1
818061
818C61
418C62
418C62
2186C4
27E384
100008
080010
060060
018180
007E00
ENDCHAR
STARTCHAR uni246D
ENCODING 9325
SWIDTH 1000 0
DWIDTH 24 0
BBX 24 24 0 -2
BITMAP
007E00
018180
060060
080010
100008
2081C4
2181C4
4782C2
4182C2
8184C1
8184C1
8184C1
8188C1
8188C1
818FE1
4180C2
4180C2
2180C4
27E1E4
100008
080010
060060
018180
007E00
ENDCHAR
STARTCHAR uni246E
ENCODING 9326
SWIDTH 1000 0
DWIDTH 24 0
BBX 24 24 0 -2
BITMAP
007E00
018180
060060
080010
100008
2087C4
2187C4
478402
418402
818401
818781
8184C1
818061
818061
818C61
418C62
418C62
2186C4
27E384
100008
080010
060060
018180
007E00
ENDCHAR
STARTCHAR uni246F
ENCODING 9327
SWIDTH 1000 0
DWIDTH 24 0
BBX 24 24 0 -2
BITMAP
007E00
018180
060060
080010
100008
208384
2186C4
478C62
418C62
818C01
818F81
818EC1
818C61
818C61
818C61
418C62
418C62
2186C4
27E384
100008
080010
060060
018180
007E00
ENDCHAR
STARTCHAR uni2470
ENCODING 9328
SWIDTH 1000 0
DWIDTH 24 0
BBX 24 24 0 -2
BITMAP
007E00
018180
060060
080010
100008
208FE4
218FE4
478822
418842
818041
8180C1
818081
818181
818181
818101
418302
418302
218304
27E304
100008
080010
060060
018180
007E00
ENDCHAR
STARTCHAR uni2471
ENCODING 9329
SWIDTH 1000 0
DWIDTH 24 0
BBX 24 24 0 -2
BITMAP
007E00
018180
060060
080010
100008
208384
2186C4
478C62
418C62
818C61
818641
818381
8184C1
818C61
818C61
418C62
418C62
2186C4
27E384
100008
080010
060060
018180
007E00
ENDCHAR
STARTCHAR uni2472
ENCODING 9330
SWIDTH 1000 0
DWIDTH 24 0
BBX 24 24 0 -2
BITMAP
007E00
018180
060060
080010
100008
208384
2186C4
478C62
418C62
818C61
818C61
818C61
8186E1
8183E1
818061
418C62
418C62
2186C4
27E384
100008
080010
060060
018180
007E00
ENDCHAR
STARTCHAR uni2473
ENCODING 9331
SWIDTH 1000 0
DWIDTH 24 0
BBX 24 24 0 -2
BITMAP
007E00
018180
060060
080010
100008
21C1C4
236364
463222
463632
803631
803631
806631
804631
80C631
818631
431632
421222
27F364
27F1C4
100008
080010
060060
018180
007E00
ENDCHAR
STARTCHAR uni24D0
ENCODING 9424
SWIDTH 1000 0
DWIDTH 24 0
BBX 24 24 0 -2
BITMAP
007E00
018180
060060
080010
100008
200004
200004
400002
403C02
80C601
800301
800301
807F01
80C301
818301
418302
40C742
207984
200004
100008
080010
060060
018180
007E00
ENDCHAR
STARTCHAR uni24D1
ENCODING 9425
SWIDTH 1000 0
DWIDTH 24 0
BBX 24 24 0 -2
BITMAP
007E00
018180
060060
080010
10C008
23C004
20C004
40C002
40DF02
80E181
80C181
80C0C1
80C0C1
80C0C1
80C0C1
40C182
40E182
20DF04
200004
100008
080010
060060
018180
007E00
ENDCHAR
STARTCHAR uni24D2
ENCODING 9426
SWIDTH 1000 0
DWIDTH 24 0
BBX 24 24 0 -2
BITMAP
007E00
018180
060060
080010
100008
200004
200004
400002
407E02
80C301
80C181
818181
818001
818001
818001
40C082
40C102
207E04
200004
100008
080010
060060
018180
007E00
ENDCHAR
STARTCHAR uni24D3
ENCODING 9427
SWIDTH 1000 0
DWIDTH 24 0
BBX 24 24 0 -2
BITMAP
007E00
018180
060060
080010
100F08
200304
200304
400302
40FB02
818701
818301
830301
830301
830301
830301
418302
418702
20FBC4
200004
100008
080010
060060
018180
007E00
ENDCHAR
STARTCHAR uni24D4
ENCODING 9428
SWIDTH 1000 0
DWIDTH 24 0
BBX 24 24 0 -2
BITMAP
007E00
018180
060060
080010
100008
200004
200004
400002
407E02
80C301
80C181
818181
81FF81
818001
818001
40C082
40C102
207E04
200004
100008
080010
060060
018180
007E00
ENDCHAR
STARTCHAR uni24D5
ENCODING 9429
SWIDTH 1000 0
DWIDTH 24 0
BBX 24 24 0 -2
BITMAP
007E00
018180
060060
080010
100F08
201984
203184
403002
403002
81FE01
803001
803001
803001
803001
803001
403002
403002
20FC04
200004
100008
080010
060060
018180
007E00
ENDCHAR
STARTCHAR uni24D6
ENCODING 9430
SWIDTH 1000 0
DWIDTH 24 0
BBX 24 24 0 -2
BITMAP
007E00
018180
060060
080010
100008
200004
200004
400082
403DC2
806641
80C301
80C301
80C601
807C01
802001
405F02
408382
218184
21C184
10FF08
080010
060060
018180
007E00
ENDCHAR
STARTCHAR uni24D7
ENCODING 9431
SWIDTH 1000 0
DWIDTH 24 0
BBX 24 24 0 -2
BITMAP
007E00
018180
060060
080010
10C008
23C004
20C004
40C002
40DC02
80E301
80C181
80C181
80C181
80C181
80C181
40C182
40C182
21E3C4
200004
100008
080010
060060
018180
007E00
ENDCHAR
STARTCHAR uni24D8
ENCODING 9432
SWIDTH 1000 0
DWIDTH 24 0
BBX 24 24 0 -2
BITMAP
007E00
018180
060060
080010
101808
201804
200004
400002
407802
801801
801801
801801
801801
801801
801801
401802
401802
207E04
200004
100008
080010
060060
018180
007E00
ENDCHAR
STARTCHAR uni24D9
ENCODING 9433
SWIDTH 1000 0
DWIDTH 24 0
BBX 24 24 0 -2
BITMAP
007E00
018180
060060
080010
100C08
200C04
200004
400002
403C02
800C01
800C01
800C01
800C01
800C01
800C01
400C02
400C02
218C04
219804
10F008
080010
060060
018180
007E00
ENDCHAR
STARTCHAR uni24DA
ENCODING 9434
SWIDTH 1000 0
DWIDTH 24 0
BBX 24 24 0 -2
BITMAP
007E00
018180
060060
080010
10C008
23C004
20C004
40C002
40C782
80C201
80C401
80C801
80D801
80EC01
80C601
40C302
40C182
21E3C4
200004
100008
080010
060060
018180
007E00
ENDCHAR
STARTCHAR uni24DB
ENCODING 9435
SWIDTH 1000 0
DWIDTH 24 0
BBX 24 24 0 -2
BITMAP
007E00
018180
060060
080010
103808
201804
201804
401802
401802
801801
801801
801801
801801
801801
801801
401802
401802
207E04
200004
100008
080010
060060
018180
007E00
ENDCHAR
STARTCHAR uni24DC
ENCODING 9436
SWIDTH 1000 0
DWIDTH 24 0
BBX 24 24 0 -2
BITMAP
007E00
018180
060060
080010
100008
200004
200004
400002
436302
879481
8318C1
8318C1
8318C1
8318C1
8318C1
4318C2
4318C2
27BDE4
200004
100008
080010
060060
018180
007E00
ENDCHAR
STARTCHAR uni24DD
ENCODING 9437
SWIDTH 1000 0
DWIDTH 24 0
BBX 24 24 0 -2
BITMAP
007E00
018180
060060
080010
100008
200004
200004
400002
41BE02
83C301
818181
818181
818181
818181
818181
418182
418182
23C3C4
200004
100008
080010
060060
018180
007E00
ENDCHAR
STARTCHAR uni24DE
ENCODING 9438
SWIDTH 1000 0
DWIDTH 24 0
BBX 24 24 0 -2
BITMAP
007E00
018180
060060
080010
100008
200004
200004
400002
407E02
80C301
80C301
818181
818181
818181
818181
40C302
40C302
207E04
200004
100008
080010
060060
018180
007E00
ENDCHAR
STARTCHAR uni24DF
ENCODING 9439
SWIDTH 1000 0
DWIDTH 24 0
BBX 24 24 0 -2
BITMAP
007E00
018180
060060
080010
100008
200004
200004
400002
40DF02
83E181
80C181
80C0C1
80C0C1
80C0C1
80C181
40E182
40DF02
20C004
20C004
11E008
080010
060060
018180
007E00
ENDCHAR
STARTCHAR uni24E0
ENCODING 9440
SWIDTH 1000 0
DWIDTH 24 0
BBX 24 24 0 -2
BITMAP
007E00
018180
060060
080010
100008
200004
200004
400002
40F902
818701
818301
830301
830301
830301
818301
418702
40FB02
200304
200304
100788
080010
060060
018180
007E00
ENDCHAR
STARTCHAR uni24E1
ENCODING 9441
SWIDTH 1000 0
DWIDTH 24 0
BBX 24 24 0 -2
BITMAP
007E00
018180
060060
080010
100008
200004
200004
400002
406702
80E981
807181
806001
806001
806001
806001
406002
406002
20F004
200004
100008
080010
060060
018180
007E00
ENDCHAR
STARTCHAR uni24E2
ENCODING 9442
SWIDTH 1000 0
DWIDTH 24 0
BBX 24 24 0 -2
BITMAP
007E00
018180
060060
080010
100008
200004
200004
400002
407D02
80E301
80C101
80E001
807801
801E01
800701
408302
40C702
20BE04
200004
100008
080010
060060
018180
007E00
ENDCHAR
STARTCHAR uni24E3
ENCODING 9443
SWIDTH 1000 0
DWIDTH 24 0
BBX 24 24 0 -2
BITMAP
007E00
018180
060060
080010
103008
203004
203004
403002
41FE02
803001
803001
803001
803001
803001
803001
403082
401902
200E04
200004
100008
080010
060060
018180
007E00
ENDCHAR
STARTCHAR uni24E4
ENCODING 9444
SWIDTH 1000 0
DWIDTH 24 0
BBX 24 24 0 -2
BITMAP
007E00
018180
060060
080010
100008
200004
200004
400002
40C302
81C701
80C301
80C301
80C301
80C301
80C301
40C302
406702
203B84
200004
100008
080010
060060
018180
007E00
ENDCHAR
STARTCHAR uni24E5
ENCODING 9445
SWIDTH 1000 0
DWIDTH 24 0
BBX 24 24 0 -2
BITMAP
007E00
018180
060060
080010
100008
200004
200004
400002
43F3E2
80C081
80C101
806101
806201
803201
803401
401C02
401802
200804
200004
100008
080010
060060
018180
007E00
ENDCHAR
STARTCHAR uni24E6
ENCODING 9446
SWIDTH 1000 0
DWIDTH 24 0
BBX 24 24 0 -2
BITMAP
007E00
018180
060060
080010
100008
200004
200004
400002
4F3CF2
861861
861841
833CC1
832C81
836D81
81C701
41C702
408202
208204
200004
100008
080010
060060
018180
007E00
ENDCHAR
STARTCHAR uni24E7
ENCODING 9447
SWIDTH 1000 0
DWIDTH 24 0
BBX 24 24 0 -2
BITMAP
007E00
018180
060060
080010
100008
200004
200004
400002
43E3C2
80C101
806201
803401
801801
801C01
802601
404302
408182
23C3E4
200004
100008
080010
060060
018180
007E00
ENDCHAR
STARTCHAR uni24E8
ENCODING 9448
SWIDTH 1000 0
DWIDTH 24 0
BBX 24 24 0 -2
BITMAP
007E00
018180
060060
080010
100008
200004
200004
400002
41E7C2
80C101
806101
806201
803201
803401
801C01
400802
400802
231004
232004
11C008
080010
060060
018180
007E00
ENDCHAR
STARTCHAR uni24E9
ENCODING 9449
SWIDTH 1000 0
DWIDTH 24 0
BBX 24 24 0 -2
BITMAP
007E00
018180
060060
080010
100008
200004
200004
400002
41FF82
810301
820601
800C01
801801
803001
806001
40C042
418082
23FF84
200004
100008
080010
060060
018180
007E00
ENDCHAR
STARTCHAR uni24EB
ENCODING 9451
SWIDTH 1000 0
DWIDTH 24 0
BBX 24 24 0 -2
BITMAP
007E00
01FF80
07FFE0
0FFFF0
1FFFF8
3F7F7C
3E7E7C
78787E
7E7E7E
FE7E7F
FE7E7F
FE7E7F
FE7E7F
FE7E7F
FE7E7F
7E7E7E
7E7E7E
3E7E7C
38181C
1FFFF8
0FFFF0
07FFE0
01FF80
007E00
ENDCHAR
STARTCHAR uni24EC
ENCODING 9452
SWIDTH 1000 0
DWIDTH 24 0
BBX 24 24 0 -2
BITMAP
007E00
01FF80
07FFE0
0FFFF0
1FFFF8
3F7C7C
3E793C
78739E
7E739E
FE7F9F
FE7F9F
FE7F3F
FE7F7F
FE7E7F
FE7CFF
7E79DE
7E7BDE
3E701C
38101C
1FFFF8
0FFFF0
07FFE0
01FF80
007E00
ENDCHAR
STARTCHAR uni24ED
ENCODING 9453
SWIDTH 1000 0
DWIDTH 24 0
BBX 24 24 0 -2
BITMAP
007E00
01FF80
07FFE0
0FFFF0
1FFFF8
3F7C7C
3E793C
78739E
7E739E
FE7F9F
FE7FBF
FE7C7F
FE7F3F
FE7F9F
FE739F
7E739E
7E739E
3E793C
381C7C
1FFFF8
0FFFF0
07FFE0
01FF80
007E00
ENDCHAR
STARTCHAR uni24EE
ENCODING 9454
SWIDTH 1000 0
DWIDTH 24 0
BBX 24 24 0 -2
BITMAP
007E00
01FF80
07FFE0
0FFFF0
1FFFF8
3F7E3C
3E7E3C
787D3E
7E7D3E
FE7B3F
FE7B3F
FE7B3F
FE773F
FE773F
FE701F
7E7F3E
7E7F3E
3E7F3C
381E1C
1FFFF8
0FFFF0
07FFE0
01FF80
007E00
ENDCHAR
STARTCHAR uni24EF
ENCODING 9455
SWIDTH 1000 0
DWIDTH 24 0
BBX 24 24 0 -2
BITMAP
007E00
01FF80
07FFE0
0FFFF0
1FFFF8
3F783C
3E783C
787BFE
7E7BFE
FE7BFF
FE787F
FE7B3F
FE7F9F
FE7F9F
FE739F
7E739E
7E739E
3E793C
381C7C
1FFFF8
0FFFF0
07FFE0
01FF80
007E00
ENDCHAR
STARTCHAR uni24F0
ENCODING 9456
SWIDTH 1000 0
DWIDTH 24 0
BBX 24 24 0 -2
BITMAP
007E00
01FF80
07FFE0
0FFFF0
1FFFF8
3F7C7C
3E793C
78739E
7E739E
FE73FF
FE707F
FE713F
FE739F
FE739F
FE739F
7E739E
7E739E
3E793C
381C7C
1FFFF8
0FFFF0
07FFE0
01FF80
007E00
ENDCHAR
STARTCHAR uni24F1
ENCODING 9457
SWIDTH 1000 0
DWIDTH 24 0
BBX 24 24 0 -2
BITMAP
007E00
01FF80
07FFE0
0FFFF0
1FFFF8
3F701C
3E701C
7877DE
7E77BE
FE7FBF
FE7F3F
FE7F7F
FE7E7F
FE7E7F
FE7EFF
7E7CFE
7E7CFE
3E7CFC
381CFC
1FFFF8
0FFFF0
07FFE0
01FF80
007E00
ENDCHAR
STARTCHAR uni24F2
ENCODING 9458
SWIDTH 1000 0
DWIDTH 24 0
BBX 24 24 0 -2
BITMAP
007E00
01FF80
07FFE0
0FFFF0
1FFFF8
3F7C7C
3E793C
78739E
7E739E
FE739F
FE79BF
FE7C7F
FE7B3F
FE739F
FE739F
7E739E
7E739E
3E793C
381C7C
1FFFF8
0FFFF0
07FFE0
01FF80
007E00
ENDCHAR
STARTCHAR uni24F3
ENCODING 9459
SWIDTH 1000 0
DWIDTH 24 0
BBX 24 24 0 -2
BITMAP
007E00
01FF80
07FFE0
0FFFF0
1FFFF8
3F7C7C
3E793C
78739E
7E739E
FE739F
FE739F
FE739F
FE791F
FE7C1F
FE7F9F
7E739E
7E739E
3E793C
381C7C
1FFFF8
0FFFF0
07FFE0
01FF80
007E00
ENDCHAR
STARTCHAR uni24F4
ENCODING 9460
SWIDTH 1000 0
DWIDTH 24 0
BBX 24 24 0 -2
BITMAP
007E00
01FF80
07FFE0
0FFFF0
1FFFF8
3E3E3C
3C9C9C
79CDDE
79C9CE
FFC9CF
FFC9CF
FF99CF
FFB9CF
FF39CF
FE79CF
7CE9CE
7DEDDE
380C9C
380E3C
1FFFF8
0FFFF0
07FFE0
01FF80
007E00
ENDCHAR
STARTCHAR uni24F5
ENCODING 9461
SWIDTH 1000 0
DWIDTH 24 0
BBX 24 24 0 -2
BITMAP
007E00
018180
063C60
08C310
1300C8
240824
281814
487812
50180A
901809
A01805
A01805
A01805
A01805
901809
50180A
481812
281814
247E24
1300C8
08C310
063C60
018180
007E00
ENDCHAR
STARTCHAR uni24F6
ENCODING 9462
SWIDTH 1000 0
DWIDTH 24 0
BBX 24 24 0 -2
BITMAP
007E00
018180
063C60
08C310
1300C8
247E24
28C314
498192
51818A
900189
A00305
A00605
A00805
A01005
902089
50408A
48FF92
29FF94
240024
1300C8
08C310
063C60
018180
007E00
ENDCHAR
STARTCHAR uni24F7
ENCODING 9463
SWIDTH 1000 0
DWIDTH 24 0
BBX 24 24 0 -2
BITMAP
007E00
018180
063C60
08C310
1300C8
247E24
28C314
498192
51818A
900189
A00305
A03E05
A00305
A00185
900189
51818A
498192
28C314
247E24
1300C8
08C310
063C60
018180
007E00
ENDCHAR
STARTCHAR uni24F8
ENCODING 9464
SWIDTH 1000 0
DWIDTH 24 0
BBX 24 24 0 -2
BITMAP
007E00
018180
063C60
08C310
1300C8
240C24
281C14
482C12
502C0A
904C09
A04C05
A08C05
A08C05
A10C05
910C09
53FF8A
480C12
280C14
243F24
1300C8
08C310
063C60
018180
007E00
ENDCHAR
STARTCHAR uni24F9
ENCODING 9465
SWIDTH 1000 0
DWIDTH 24 0
BBX 24 24 0 -2
BITMAP
007E00
018180
063C60
08C310
1300C8
24FF24
28FF14
488012
50800A
908009
A0BE05
A0C305
A08185
A00185
900189
51818A
498192
28C314
247E24
1300C8
08C310
063C60
018180
007E00
ENDCHAR
STARTCHAR uni24FA
ENCODING 9466
SWIDTH 1000 0
DWIDTH 24 0
BBX 24 24 0 -2
BITMAP
007E00
018180
063C60
08C310
1300C8
247E24
28C314
498192
51818A
918009
A1BE05
A1C305
A18185
A18185
918189
51818A
498192
28C314
247E24
1300C8
08C310
063C60
018180
007E00
ENDCHAR
STARTCHAR uni24FB
ENCODING 9467
SWIDTH 1000 0
DWIDTH 24 0
BBX 24 24 0 -2
BITMAP
007E00
018180
063C60
08C310
1300C8
24FF24
28FF14
488112
50820A
900209
A00405
A00405
A00C05
A00805
901809
50180A
481812
281814
241824
1300C8
08C310
063C60
018180
007E00
ENDCHAR
STARTCHAR uni24FC
ENCODING 9468
SWIDTH 1000 0
DWIDTH 24 0
BBX 24 24 0 -2
BITMAP
007E00
018180
063C60
08C310
1300C8
247E24
28C314
498192
51818A
91C189
A0F305
A07E05
A0CF05
A18385
918189
51818A
498192
28C314
247E24
1300C8
08C310
063C60
018180
007E00
ENDCHAR
STARTCHAR uni24FD
ENCODING 9469
SWIDTH 1000 0
DWIDTH 24 0
BBX 24 24 0 -2
BITMAP
007E00
018180
063C60
08C310
1300C8
247E24
28C314
498192
51818A
918189
A18185
A0C385
A07D85
A00185
900189
51818A
498192
28C314
247E24
1300C8
08C310
063C60
018180
007E00
ENDCHAR
STARTCHAR uni24FE
ENCODING 9470
SWIDTH 1000 0
DWIDTH 24 0
BBX 24 24 0 -2
BITMAP
007E00
018180
063C60
08C310
1300C8
244324
28C494
4BC492
50CCCA
90CCC9
A0CCC5
A0CCC5
A0CCC5
A0CCC5
90CCC9
50C48A
48C492
2BF314
240024
1300C8
08C310
063C60
018180
007E00
ENDCHAR
STARTCHAR SF100000
ENCODING 9472
SWIDTH 960 0
DWIDTH 24 0
BBX 24 1 0 10
BITMAP
FFFFFF
ENDCHAR
STARTCHAR uni2501
ENCODING 9473
SWIDTH 960 0
DWIDTH 24 0
BBX 24 3 0 9
BITMAP
FFFFFF
FFFFFF
FFFFFF
ENDCHAR
STARTCHAR SF110000
ENCODING 9474
SWIDTH 960 0
DWIDTH 24 0
BBX 1 24 11 -2
BITMAP
80
80
80
80
80
80
80
80
80
80
80
80
80
80
80
80
80
80
80
80
80
80
80
80
ENDCHAR
STARTCHAR uni2503
ENCODING 9475
SWIDTH 960 0
DWIDTH 24 0
BBX 3 24 10 -2
BITMAP
E0
E0
E0
E0
E0
E0
E0
E0
E0
E0
E0
E0
E0
E0
E0
E0
E0
E0
E0
E0
E0
E0
E0
E0
ENDCHAR
STARTCHAR SF010000
ENCODING 9484
SWIDTH 960 0
DWIDTH 24 0
BBX 13 13 11 -2
BITMAP
FFF8
8000
8000
8000
8000
8000
8000
8000
8000
8000
8000
8000
8000
ENDCHAR
STARTCHAR uni250F
ENCODING 9487
SWIDTH 960 0
DWIDTH 24 0
BBX 14 14 10 -2
BITMAP
FFFC
FFFC
FFFC
E000
E000
E000
E000
E000
E000
E000
E000
E000
E000
E000
ENDCHAR
STARTCHAR SF030000
ENCODING 9488
SWIDTH 960 0
DWIDTH 24 0
BBX 12 13 0 -2
BITMAP
FFF0
0010
0010
0010
0010
0010
0010
0010
0010
0010
0010
0010
0010
ENDCHAR
STARTCHAR uni2513
ENCODING 9491
SWIDTH 960 0
DWIDTH 24 0
BBX 13 14 0 -2
BITMAP
FFF8
FFF8
FFF8
0038
0038
0038
0038
0038
0038
0038
0038
0038
0038
0038
ENDCHAR
STARTCHAR SF020000
ENCODING 9492
SWIDTH 960 0
DWIDTH 24 0
BBX 13 12 11 10
BITMAP
8000
8000
8000
8000
8000
8000
8000
8000
8000
8000
8000
FFF8
ENDCHAR
STARTCHAR uni2517
ENCODING 9495
SWIDTH 960 0
DWIDTH 24 0
BBX 14 13 10 9
BITMAP
E000
E000
E000
E000
E000
E000
E000
E000
E000
E000
FFFC
FFFC
FFFC
ENDCHAR
STARTCHAR SF040000
ENCODING 9496
SWIDTH 960 0
DWIDTH 24 0
BBX 12 12 0 10
BITMAP
0010
0010
0010
0010
0010
0010
0010
0010
0010
0010
0010
FFF0
ENDCHAR
STARTCHAR uni251B
ENCODING 9499
SWIDTH 960 0
DWIDTH 24 0
BBX 13 13 0 9
BITMAP
0038
0038
0038
0038
0038
0038
0038
0038
0038
0038
FFF8
FFF8
FFF8
ENDCHAR
STARTCHAR SF080000
ENCODING 9500
SWIDTH 960 0
DWIDTH 24 0
BBX 13 24 11 -2
BITMAP
8000
8000
8000
8000
8000
8000
8000
8000
8000
8000
8000
FFF8
8000
8000
8000
8000
8000
8000
8000
8000
8000
8000
8000
8000
ENDCHAR
STARTCHAR uni251D
ENCODING 9501
SWIDTH 960 0
DWIDTH 24 0
BBX 13 24 11 -2
BITMAP
8000
8000
8000
8000
8000
8000
8000
8000
8000
8000
FFF8
FFF8
FFF8
8000
8000
8000
8000
8000
8000
8000
8000
8000
8000
8000
ENDCHAR
STARTCHAR uni2520
ENCODING 9504
SWIDTH 960 0
DWIDTH 24 0
BBX 14 24 10 -2
BITMAP
E000
E000
E000
E000
E000
E000
E000
E000
E000
E000
E000
FFFC
E000
E000
E000
E000
E000
E000
E000
E000
E000
E000
E000
E000
ENDCHAR
STARTCHAR uni2523
ENCODING 9507
SWIDTH 960 0
DWIDTH 24 0
BBX 14 24 10 -2
BITMAP
E000
E000
E000
E000
E000
E000
E000
E000
E000
E000
FFFC
FFFC
FFFC
E000
E000
E000
E000
E000
E000
E000
E000
E000
E000
E000
ENDCHAR
STARTCHAR SF090000
ENCODING 9508
SWIDTH 960 0
DWIDTH 24 0
BBX 12 24 0 -2
BITMAP
0010
0010
0010
0010
0010
0010
0010
0010
0010
0010
0010
FFF0
0010
0010
0010
0010
0010
0010
0010
0010
0010
0010
0010
0010
ENDCHAR
STARTCHAR uni2525
ENCODING 9509
SWIDTH 960 0
DWIDTH 24 0
BBX 12 24 0 -2
BITMAP
0010
0010
0010
0010
0010
0010
0010
0010
0010
0010
FFF0
FFF0
FFF0
0010
0010
0010
0010
0010
0010
0010
0010
0010
0010
0010
ENDCHAR
STARTCHAR uni2528
ENCODING 9512
SWIDTH 960 0
DWIDTH 24 0
BBX 13 24 0 -2
BITMAP
0038
0038
0038
0038
0038
0038
0038
0038
0038
0038
0038
FFF8
0038
0038
0038
0038
0038
0038
0038
0038
0038
0038
0038
0038
ENDCHAR
STARTCHAR uni252B
ENCODING 9515
SWIDTH 960 0
DWIDTH 24 0
BBX 13 24 0 -2
BITMAP
0038
0038
0038
0038
0038
0038
0038
0038
0038
0038
FFF8
FFF8
FFF8
0038
0038
0038
0038
0038
0038
0038
0038
0038
0038
0038
ENDCHAR
STARTCHAR SF060000
ENCODING 9516
SWIDTH 960 0
DWIDTH 24 0
BBX 24 13 0 -2
BITMAP
FFFFFF
001000
001000
001000
001000
001000
001000
001000
001000
001000
001000
001000
001000
ENDCHAR
STARTCHAR uni252F
ENCODING 9519
SWIDTH 960 0
DWIDTH 24 0
BBX 24 14 0 -2
BITMAP
FFFFFF
FFFFFF
FFFFFF
001000
001000
001000
001000
001000
001000
001000
001000
001000
001000
001000
ENDCHAR
STARTCHAR uni2530
ENCODING 9520
SWIDTH 960 0
DWIDTH 24 0
BBX 24 13 0 -2
BITMAP
FFFFFF
003800
003800
003800
003800
003800
003800
003800
003800
003800
003800
003800
003800
ENDCHAR
STARTCHAR uni2533
ENCODING 9523
SWIDTH 960 0
DWIDTH 24 0
BBX 24 14 0 -2
BITMAP
FFFFFF
FFFFFF
FFFFFF
003800
003800
003800
003800
003800
003800
003800
003800
003800
003800
003800
ENDCHAR
STARTCHAR SF070000
ENCODING 9524
SWIDTH 960 0
DWIDTH 24 0
BBX 24 12 0 10
BITMAP
001000
001000
001000
001000
001000
001000
001000
001000
001000
001000
001000
FFFFFF
ENDCHAR
STARTCHAR uni2537
ENCODING 9527
SWIDTH 960 0
DWIDTH 24 0
BBX 24 13 0 9
BITMAP
001000
001000
001000
001000
001000
001000
001000
001000
001000
001000
FFFFFF
FFFFFF
FFFFFF
ENDCHAR
STARTCHAR uni2538
ENCODING 9528
SWIDTH 960 0
DWIDTH 24 0
BBX 24 12 0 10
BITMAP
003800
003800
003800
003800
003800
003800
003800
003800
003800
003800
003800
FFFFFF
ENDCHAR
STARTCHAR uni253B
ENCODING 9531
SWIDTH 960 0
DWIDTH 24 0
BBX 24 13 0 9
BITMAP
003800
003800
003800
003800
003800
003800
003800
003800
003800
003800
FFFFFF
FFFFFF
FFFFFF
ENDCHAR
STARTCHAR SF050000
ENCODING 9532
SWIDTH 960 0
DWIDTH 24 0
BBX 24 24 0 -2
BITMAP
001000
001000
001000
001000
001000
001000
001000
001000
001000
001000
001000
FFFFFF
001000
001000
001000
001000
001000
001000
001000
001000
001000
001000
001000
001000
ENDCHAR
STARTCHAR uni253F
ENCODING 9535
SWIDTH 960 0
DWIDTH 24 0
BBX 24 24 0 -2
BITMAP
001000
001000
001000
001000
001000
001000
001000
001000
001000
001000
FFFFFF
FFFFFF
FFFFFF
001000
001000
001000
001000
001000
001000
001000
001000
001000
001000
001000
ENDCHAR
STARTCHAR uni2542
ENCODING 9538
SWIDTH 960 0
DWIDTH 24 0
BBX 24 24 0 -2
BITMAP
003800
003800
003800
003800
003800
003800
003800
003800
003800
003800
003800
FFFFFF
003800
003800
003800
003800
003800
003800
003800
003800
003800
003800
003800
003800
ENDCHAR
STARTCHAR uni254B
ENCODING 9547
SWIDTH 960 0
DWIDTH 24 0
BBX 24 24 0 -2
BITMAP
003800
003800
003800
003800
003800
003800
003800
003800
003800
003800
FFFFFF
FFFFFF
FFFFFF
003800
003800
003800
003800
003800
003800
003800
003800
003800
003800
003800
ENDCHAR
STARTCHAR filledbox
ENCODING 9632
SWIDTH 960 0
DWIDTH 24 0
BBX 22 22 1 -1
BITMAP
FFFFFC
FFFFFC
FFFFFC
FFFFFC
FFFFFC
FFFFFC
FFFFFC
FFFFFC
FFFFFC
FFFFFC
FFFFFC
FFFFFC
FFFFFC
FFFFFC
FFFFFC
FFFFFC
FFFFFC
FFFFFC
FFFFFC
FFFFFC
FFFFFC
FFFFFC
ENDCHAR
STARTCHAR H22073
ENCODING 9633
SWIDTH 960 0
DWIDTH 24 0
BBX 22 22 1 -1
BITMAP
FFFFFC
800004
800004
800004
800004
800004
800004
800004
800004
800004
800004
800004
800004
800004
800004
800004
800004
800004
800004
800004
800004
FFFFFC
ENDCHAR
STARTCHAR uni25B1
ENCODING 9649
SWIDTH 1000 0
DWIDTH 24 0
BBX 22 10 1 5
BITMAP
07FFFC
080008
080008
100010
100010
200020
200020
400040
400040
FFFF80
ENDCHAR
STARTCHAR triagup
ENCODING 9650
SWIDTH 960 0
DWIDTH 24 0
BBX 22 18 1 1
BITMAP
002000
007000
007000
00F800
00F800
01FC00
01FE00
03FE00
03FF00
07FF00
07FF80
0FFFC0
1FFFC0
1FFFE0
3FFFF0
3FFFF0
7FFFF8
FFFFFC
ENDCHAR
STARTCHAR uni25B3
ENCODING 9651
SWIDTH 960 0
DWIDTH 24 0
BBX 22 18 1 1
BITMAP
002000
005000
005000
008800
008800
010400
010200
020200
020100
040100
040080
080040
100040
100020
200010
200010
400008
FFFFFC
ENDCHAR
STARTCHAR uni25B6
ENCODING 9654
SWIDTH 1000 0
DWIDTH 24 0
BBX 18 22 3 -1
BITMAP
800000
C00000
F00000
FC0000
FE0000
FF8000
FFE000
FFF800
FFFE00
FFFF80
FFFFC0
FFFF80
FFFE00
FFF800
FFF000
FFC000
FF0000
FE0000
F80000
F00000
C00000
800000
ENDCHAR
STARTCHAR uni25B7
ENCODING 9655
SWIDTH 1000 0
DWIDTH 24 0
BBX 18 22 3 -1
BITMAP
800000
C00000
B00000
8C0000
820000
818000
806000
801800
800600
800180
800040
800180
800600
800800
803000
80C000
810000
860000
880000
B00000
C00000
800000
ENDCHAR
STARTCHAR triagdn
ENCODING 9660
SWIDTH 960 0
DWIDTH 24 0
BBX 22 18 1 1
BITMAP
FFFFFC
7FFFF8
3FFFF0
3FFFF0
1FFFE0
1FFFC0
0FFFC0
07FF80
07FF00
03FF00
03FE00
01FE00
01FC00
00F800
00F800
007000
007000
002000
ENDCHAR
STARTCHAR uni25BD
ENCODING 9661
SWIDTH 960 0
DWIDTH 24 0
BBX 22 18 1 1
BITMAP
FFFFFC
400008
200010
200010
100020
100040
080040
040080
040100
020100
020200
010200
010400
008800
008800
005000
005000
002000
ENDCHAR
STARTCHAR uni25C0
ENCODING 9664
SWIDTH 1000 0
DWIDTH 24 0
BBX 18 22 3 -1
BITMAP
000040
0000C0
0003C0
000FC0
001FC0
007FC0
01FFC0
07FFC0
1FFFC0
7FFFC0
FFFFC0
7FFFC0
1FFFC0
07FFC0
03FFC0
00FFC0
003FC0
001FC0
0007C0
0003C0
0000C0
000040
ENDCHAR
STARTCHAR uni25C1
ENCODING 9665
SWIDTH 1000 0
DWIDTH 24 0
BBX 18 22 3 -1
BITMAP
000040
0000C0
000340
000C40
001040
006040
018040
060040
180040
600040
800040
600040
180040
040040
030040
00C040
002040
001840
000440
000340
0000C0
000040
ENDCHAR
STARTCHAR uni25C6
ENCODING 9670
SWIDTH 960 0
DWIDTH 24 0
BBX 24 24 0 -2
BITMAP
001800
003C00
007E00
00FF00
01FF80
03FFC0
07FFE0
0FFFF0
1FFFF8
3FFFFC
7FFFFE
FFFFFF
FFFFFF
7FFFFE
3FFFFC
1FFFF8
0FFFF0
07FFE0
03FFC0
01FF80
00FF00
007E00
003C00
001800
ENDCHAR
STARTCHAR uni25C7
ENCODING 9671
SWIDTH 960 0
DWIDTH 24 0
BBX 24 24 0 -2
BITMAP
001800
002400
004200
008100
010080
020040
040020
080010
100008
200004
400002
800001
800001
400002
200004
100008
080010
040020
020040
010080
008100
004200
002400
001800
ENDCHAR
STARTCHAR uni25C9
ENCODING 9673
SWIDTH 1000 0
DWIDTH 24 0
BBX 22 22 1 -1
BITMAP
00FC00
030300
0C00C0
10FC20
23FF10
27FF90
4FFFC8
4FFFC8
9FFFE4
9FFFE4
9FFFE4
9FFFE4
9FFFE4
9FFFE4
4FFFC8
4FFFC8
27FF90
23FF10
10FC20
0C00C0
030300
00FC00
ENDCHAR
STARTCHAR circle
ENCODING 9675
SWIDTH 960 0
DWIDTH 24 0
BBX 22 22 1 -1
BITMAP
00FC00
030300
0C00C0
100020
200010
200010
400008
400008
800004
800004
800004
800004
800004
800004
400008
400008
200010
200010
100020
0C00C0
030300
00FC00
ENDCHAR
STARTCHAR uni25CE
ENCODING 9678
SWIDTH 960 0
DWIDTH 24 0
BBX 22 22 1 -1
BITMAP
00FC00
030300
0C00C0
100020
207810
218610
420108
440088
840084
880044
880044
880044
880044
840084
440088
420108
218610
207810
100020
0C00C0
030300
00FC00
ENDCHAR
STARTCHAR H18533
ENCODING 9679
SWIDTH 960 0
DWIDTH 24 0
BBX 22 22 1 -1
BITMAP
00FC00
03FF00
0FFFC0
1FFFE0
3FFFF0
3FFFF0
7FFFF8
7FFFF8
FFFFFC
FFFFFC
FFFFFC
FFFFFC
FFFFFC
FFFFFC
7FFFF8
7FFFF8
3FFFF0
3FFFF0
1FFFE0
0FFFC0
03FF00
00FC00
ENDCHAR
STARTCHAR uni25D0
ENCODING 9680
SWIDTH 1000 0
DWIDTH 24 0
BBX 22 22 1 -1
BITMAP
00FC00
03E300
0FE0C0
1FE020
3FE010
3FE010
7FE008
7FE008
FFE004
FFE004
FFE004
FFE004
FFE004
FFE004
7FE008
7FE008
3FE010
3FE010
1FE020
0FE0C0
03E300
00FC00
ENDCHAR
STARTCHAR uni25D1
ENCODING 9681
SWIDTH 960 0
DWIDTH 24 0
BBX 22 22 1 -1
BITMAP
00FC00
031F00
0C1FC0
101FE0
201FF0
201FF0
401FF8
401FF8
801FFC
801FFC
801FFC
801FFC
801FFC
801FFC
401FF8
401FF8
201FF0
201FF0
101FE0
0C1FC0
031F00
00FC00
ENDCHAR
STARTCHAR uni25D2
ENCODING 9682
SWIDTH 960 0
DWIDTH 24 0
BBX 22 22 1 -1
BITMAP
00FC00
030300
0C00C0
100020
200010
200010
400008
400008
800004
800004
800004
FFFFFC
FFFFFC
FFFFFC
7FFFF8
7FFFF8
3FFFF0
3FFFF0
1FFFE0
0FFFC0
03FF00
00FC00
ENDCHAR
STARTCHAR uni25D3
ENCODING 9683
SWIDTH 960 0
DWIDTH 24 0
BBX 22 22 1 -1
BITMAP
00FC00
03FF00
0FFFC0
1FFFE0
3FFFF0
3FFFF0
7FFFF8
7FFFF8
FFFFFC
FFFFFC
FFFFFC
800004
800004
800004
400008
400008
200010
200010
100020
0C00C0
030300
00FC00
ENDCHAR
STARTCHAR openbullet
ENCODING 9702
SWIDTH 1000 0
DWIDTH 24 0
BBX 8 8 8 6
BITMAP
3C
42
81
81
81
81
42
3C
ENDCHAR
STARTCHAR uni25EF
ENCODING 9711
SWIDTH 960 0
DWIDTH 24 0
BBX 24 24 0 -2
BITMAP
007E00
018180
060060
080010
100008
200004
200004
400002
400002
800001
800001
800001
800001
800001
800001
400002
400002
200004
200004
100008
080010
060060
018180
007E00
ENDCHAR
STARTCHAR uni2600
ENCODING 9728
SWIDTH 1000 0
DWIDTH 24 0
BBX 24 24 0 -2
BITMAP
001800
001800
101808
38181C
1C0038
0C0030
003C00
00FF00
01FF80
01FF80
03FFC0
F3FFCF
F3FFCF
03FFC0
01FF80
01FF80
00FF00
003C00
0C0030
1C0038
38181C
101808
001800
001800
ENDCHAR
STARTCHAR uni2601
ENCODING 9729
SWIDTH 1000 0
DWIDTH 24 0
BBX 22 17 1 1
BITMAP
00E000
03F800
07FC00
07FC00
0FFE38
0FFEFC
0FFFFC
3FFFFC
7FFFFC
FFFFF8
FFFFF0
FFFFF8
FFEFFC
7FC7FC
3F07FC
0003F8
0001F0
ENDCHAR
STARTCHAR uni2602
ENCODING 9730
SWIDTH 1000 0
DWIDTH 24 0
BBX 21 22 1 -1
BITMAP
002000
002000
01FC00
07FF00
1FFFC0
3FFFE0
7FFFF0
7FFFF0
FFFFF8
CE7398
842108
842108
002000
002000
002000
002000
002000
002000
042000
042000
066000
03C000
ENDCHAR
STARTCHAR uni2603
ENCODING 9731
SWIDTH 1000 0
DWIDTH 24 0
BBX 24 23 0 -1
BITMAP
020304
0547CA
122FE4
287FF0
118FF0
0207E0
4401FA
A46625
446622
040020
246624
723C4E
1E0078
080010
500008
A01804
601804
200004
200004
101808
101808
0C0030
03FFC0
ENDCHAR
STARTCHAR uni2605
ENCODING 9733
SWIDTH 960 0
DWIDTH 24 0
BBX 19 20 2 0
BITMAP
004000
004000
00E000
00E000
01F000
01F000
03F800
FFFFE0
7FFFC0
3FFF80
1FFF00
0FFE00
07FC00
07FC00
0FFE00
0FBE00
1F1F00
1C0700
380380
200080
ENDCHAR
STARTCHAR uni2606
ENCODING 9734
SWIDTH 960 0
DWIDTH 24 0
BBX 19 20 2 0
BITMAP
004000
00A000
00A000
011000
011000
010800
020800
FE07E0
400040
200080
100100
080200
040400
080200
084200
10A100
111100
260C80
280280
300180
ENDCHAR
STARTCHAR uni260E
ENCODING 9742
SWIDTH 1000 0
DWIDTH 24 0
BBX 20 18 2 1
BITMAP
0FFF00
3FFFC0
7FFFE0
7BFDE0
F30CF0
F30CF0
07FE00
0FFF00
1F0F80
3E07C0
3C03C0
7C03E0
7C03E0
7C03E0
7E07E0
7F0FE0
7FFFE0
7FFFE0
ENDCHAR
STARTCHAR uni2616
ENCODING 9750
SWIDTH 1000 0
DWIDTH 24 0
BBX 18 20 3 0
BITMAP
00C000
033000
0C0C00
300300
200100
200100
200100
200100
400080
400080
400080
400080
400080
400080
800040
800040
800040
800040
800040
FFFFC0
ENDCHAR
STARTCHAR uni2617
ENCODING 9751
SWIDTH 1000 0
DWIDTH 24 0
BBX 18 20 3 0
BITMAP
00C000
03F000
0FFC00
3FFF00
3FFF00
3FFF00
3FFF00
3FFF00
7FFF80
7FFF80
7FFF80
7FFF80
7FFF80
7FFF80
FFFFC0
FFFFC0
FFFFC0
FFFFC0
FFFFC0
FFFFC0
ENDCHAR
STARTCHAR uni261E
ENCODING 9758
SWIDTH 1000 0
DWIDTH 24 0
BBX 23 12 1 4
BITMAP
83FFFC
EC6002
901802
800FFC
806480
83B280
9C9B80
814E80
813100
988F00
E78200
807C00
ENDCHAR
STARTCHAR female
ENCODING 9792
SWIDTH 960 0
DWIDTH 24 0
BBX 15 23 4 -2
BITMAP
0380
0C60
1010
1010
2008
2008
2008
1010
1010
0C60
0380
0100
0100
FFFE
0100
0100
0100
0100
0100
0100
0100
0100
0100
ENDCHAR
STARTCHAR male
ENCODING 9794
SWIDTH 960 0
DWIDTH 24 0
BBX 20 21 2 -1
BITMAP
003FF0
000030
000050
000090
000110
000210
000410
000810
001010
002010
0E4000
318000
404000
404000
802000
802000
802000
404000
404000
318000
0E0000
ENDCHAR
STARTCHAR spade
ENCODING 9824
SWIDTH 1000 0
DWIDTH 24 0
BBX 17 20 3 0
BITMAP
008000
008000
01C000
01C000
03E000
07F000
0FF800
1FFC00
3FFE00
7FFF00
7FFF00
FFFF80
FFFF80
FFFF80
7FFF00
3DDE00
01C000
03E000
03E000
07F000
ENDCHAR
STARTCHAR uni2661
ENCODING 9825
SWIDTH 1000 0
DWIDTH 24 0
BBX 17 20 3 0
BITMAP
3C1E00
663300
C36180
81C080
808080
800080
800080
800080
400100
400100
400100
200200
200200
100400
080800
080800
041000
022000
014000
008000
ENDCHAR
STARTCHAR uni2662
ENCODING 9826
SWIDTH 1000 0
DWIDTH 24 0
BBX 15 22 4 -1
BITMAP
0100
0280
0280
0440
0820
0820
1010
2008
2008
4004
8002
8002
4004
2008
2008
1010
0820
0820
0440
0280
0280
0100
ENDCHAR
STARTCHAR club
ENCODING 9827
SWIDTH 1000 0
DWIDTH 24 0
BBX 19 20 2 0
BITMAP
00E000
03F800
03F800
07FC00
07FC00
07FC00
03F800
01F000
1CE700
7FFFC0
7FFFC0
FFFFE0
FFFFE0
FFFFE0
7FFFC0
7EEFC0
1CE700
01F000
01F000
03F800
ENDCHAR
STARTCHAR uni2664
ENCODING 9828
SWIDTH 1000 0
DWIDTH 24 0
BBX 17 20 3 0
BITMAP
008000
008000
014000
014000
022000
041000
080800
100400
200200
400100
400100
800080
800080
814080
477100
394E00
022000
022000
041000
07F000
ENDCHAR
STARTCHAR heart
ENCODING 9829
SWIDTH 1000 0
DWIDTH 24 0
BBX 17 20 3 0
BITMAP
3C1E00
7E3F00
FF7F80
FF7F80
FFFF80
FFFF80
FFFF80
FFFF80
7FFF00
7FFF00
7FFF00
3FFE00
3FFE00
1FFC00
0FF800
0FF800
07F000
03E000
01C000
008000
ENDCHAR
STARTCHAR diamond
ENCODING 9830
SWIDTH 1000 0
DWIDTH 24 0
BBX 15 22 4 -1
BITMAP
0100
0100
0380
07C0
07C0
0FE0
1FF0
1FF0
3FF8
7FFC
FFFE
FFFE
7FFC
3FF8
1FF0
1FF0
0FE0
07C0
07C0
0380
0100
0100
ENDCHAR
STARTCHAR uni2667
ENCODING 9831
SWIDTH 1000 0
DWIDTH 24 0
BBX 19 20 2 0
BITMAP
00E000
031800
020800
040400
040400
040400
020800
020800
1D1700
6318C0
40A040
800020
800020
800020
411040
62A8C0
1DB700
011000
020800
03F800
ENDCHAR
STARTCHAR uni2668
ENCODING 9832
SWIDTH 1000 0
DWIDTH 24 0
BBX 20 20 2 0
BITMAP
004000
04C400
0CCC00
0D8C00
199800
199800
0CCC00
0CCC00
066600
066600
033300
033300
663660
C66630
846410
804010
C00030
7000E0
1E0780
03FC00
ENDCHAR
STARTCHAR uni2669
ENCODING 9833
SWIDTH 1000 0
DWIDTH 24 0
BBX 8 24 7 -2
BITMAP
01
01
01
01
01
01
01
01
01
01
01
01
01
01
01
01
01
01
1F
7F
FE
FE
FC
70
ENDCHAR
STARTCHAR musicalnote
ENCODING 9834
SWIDTH 960 0
DWIDTH 24 0
BBX 15 24 5 -2
BITMAP
0100
0100
0180
01C0
01E0
0170
0118
010C
0104
0102
0102
0102
0104
0104
0108
0110
0100
0100
1F00
7F00
FE00
FE00
FC00
7000
ENDCHAR
STARTCHAR musicalnotedbl
ENCODING 9835
SWIDTH 1000 0
DWIDTH 24 0
BBX 19 23 2 -1
BITMAP
01C000
01F800
013F00
0107E0
0100E0
010020
010020
010020
010020
010020
010020
010020
010020
010020
1F0020
7F0020
FE0020
FE03E0
FC0FE0
701FC0
001FC0
001F80
000E00
ENDCHAR
STARTCHAR uni266C
ENCODING 9836
SWIDTH 1000 0
DWIDTH 24 0
BBX 19 23 2 -1
BITMAP
01C000
01F800
013F00
0107E0
01C0E0
01F820
013F20
0107E0
0100E0
010020
010020
010020
010020
010020
1F0020
7F0020
FE0020
FE03E0
FC0FE0
701FC0
001FC0
001F80
000E00
ENDCHAR
STARTCHAR uni266D
ENCODING 9837
SWIDTH 960 0
DWIDTH 24 0
BBX 10 24 8 -2
BITMAP
8000
8000
8000
8000
8000
8000
8000
8000
8000
8F00
9180
A0C0
C0C0
80C0
80C0
8180
8180
8300
8600
8C00
9800
A000
C000
8000
ENDCHAR
STARTCHAR uni266E
ENCODING 9838
SWIDTH 1000 0
DWIDTH 24 0
BBX 8 22 8 -1
BITMAP
80
80
80
80
80
8F
FF
F1
81
81
81
81
81
8F
FF
F1
01
01
01
01
01
01
ENDCHAR
STARTCHAR uni266F
ENCODING 9839
SWIDTH 960 0
DWIDTH 24 0
BBX 18 24 3 -2
BITMAP
000800
040800
040800
040800
040800
040FC0
07FFC0
FFF800
FC0800
040800
040800
040800
040800
040800
040FC0
07FFC0
FFF800
FC0800
040800
040800
040800
040800
040800
040000
ENDCHAR
STARTCHAR uni2713
ENCODING 10003
SWIDTH 1000 0
DWIDTH 24 0
BBX 14 16 5 2
BITMAP
000C
0018
0010
0030
0060
0040
00C0
0180
8100
8300
C600
4400
6C00
3800
3000
1000
ENDCHAR
STARTCHAR uni2756
ENCODING 10070
SWIDTH 1000 0
DWIDTH 24 0
BBX 21 22 1 -1
BITMAP
002000
007000
00F800
01FC00
03FE00
03FE00
09FC80
1CF9C0
3E73E0
7F27F0
FF8FF8
FF8FF8
7F27F0
3E73E0
1CF9C0
09FC80
03FE00
03FE00
01FC00
00F800
007000
002000
ENDCHAR
STARTCHAR uni2776
ENCODING 10102
SWIDTH 1000 0
DWIDTH 24 0
BBX 24 24 0 -2
BITMAP
007E00
01FF80
07FFE0
0FFFF0
1FF7F8
3FE7FC
3F07FC
7FE7FE
7FE7FE
FFE7FF
FFE7FF
FFE7FF
FFE7FF
FFE7FF
FFE7FF
7FE7FE
7FE7FE
3FE7FC
3FE7FC
1F00F8
0FFFF0
07FFE0
01FF80
007E00
ENDCHAR
STARTCHAR uni2777
ENCODING 10103
SWIDTH 1000 0
DWIDTH 24 0
BBX 24 24 0 -2
BITMAP
007E00
01FF80
07FFE0
0FFFF0
1FC3F8
3F18FC
3F3CFC
7E7E7E
7E7E7E
FFFCFF
FFFCFF
FFF9FF
FFF3FF
FFE7FF
FFCFFF
7F9FFE
7F3F7E
3F7F7C
3E007C
1E0078
0FFFF0
07FFE0
01FF80
007E00
ENDCHAR
STARTCHAR uni2778
ENCODING 10104
SWIDTH 1000 0
DWIDTH 24 0
BBX 24 24 0 -2
BITMAP
007E00
01FF80
07FFE0
0FFFF0
1FC3F8
3F18FC
3F3CFC
7E7E7E
7E7E7E
FFFE7F
FFFCFF
FFC1FF
FFF8FF
FFFCFF
FE7E7F
7E7E7E
7E7E7E
3F3CFC
3F18FC
1FC3F8
0FFFF0
07FFE0
01FF80
007E00
ENDCHAR
STARTCHAR uni2779
ENCODING 10105
SWIDTH 1000 0
DWIDTH 24 0
BBX 24 24 0 -2
BITMAP
007E00
01FF80
07FFE0
0FFFF0
1FE1F8
3FE9FC
3FD9FC
7FD9FE
7FB9FE
FFB9FF
FF79FF
FF79FF
FEF9FF
FEF9FF
FDF9FF
7C003E
7FF9FE
3FF9FC
3FF9FC
1FE078
0FFFF0
07FFE0
01FF80
007E00
ENDCHAR
STARTCHAR uni277A
ENCODING 10106
SWIDTH 1000 0
DWIDTH 24 0
BBX 24 24 0 -2
BITMAP
007E00
01FF80
07FFE0
0FFFF0
1F00F8
3F00FC
3F7FFC
7F7FFE
7F7FFE
FF7FFF
FF41FF
FF3CFF
FF7CFF
FFFE7F
FFFE7F
7FFE7E
7E7E7E
3E7CFC
3F3CFC
1F81F8
0FFFF0
07FFE0
01FF80
007E00
ENDCHAR
STARTCHAR uni277B
ENCODING 10107
SWIDTH 1000 0
DWIDTH 24 0
BBX 24 24 0 -2
BITMAP
007E00
01FF80
07FFE0
0FFFF0
1F81F8
3F3CFC
3F3CFC
7E7FFE
7E7FFE
FE7FFF
FE41FF
FE3CFF
FE7CFF
FE7E7F
FE7E7F
7E7E7E
7E7E7E
3F3CFC
3F3CFC
1F81F8
0FFFF0
07FFE0
01FF80
007E00
ENDCHAR
STARTCHAR uni277C
ENCODING 10108
SWIDTH 1000 0
DWIDTH 24 0
BBX 24 24 0 -2
BITMAP
007E00
01FF80
07FFE0
0FFFF0
1E0078
3E007C
3EFF7C
7EFEFE
7FFCFE
FFFDFF
FFF9FF
FFFBFF
FFF3FF
FFF7FF
FFF7FF
7FE7FE
7FE7FE
3FE7FC
3FE7FC
1FE7F8
0FFFF0
07FFE0
01FF80
007E00
ENDCHAR
STARTCHAR uni277D
ENCODING 10109
SWIDTH 1000 0
DWIDTH 24 0
BBX 24 24 0 -2
BITMAP
007E00
01FF80
07FFE0
0FFFF0
1FC3F8
3F18FC
3F3CFC
7E7E7E
7E7E7E
FF3EFF
FF0DFF
FF81FF
FFB1FF
FF7CFF
FE7C7F
7E7E7E
7E7E7E
3F3CFC
3F18FC
1FC3F8
0FFFF0
07FFE0
01FF80
007E00
ENDCHAR
STARTCHAR uni277E
ENCODING 10110
SWIDTH 1000 0
DWIDTH 24 0
BBX 24 24 0 -2
BITMAP
007E00
01FF80
07FFE0
0FFFF0
1F81F8
3F3CFC
3F3CFC
7E7E7E
7E7E7E
FE7E7F
FE7E7F
FF3E7F
FF3C7F
FF827F
FFFE7F
7FFE7E
7FFE7E
3F3CFC
3F3CFC
1F81F8
0FFFF0
07FFE0
01FF80
007E00
ENDCHAR
STARTCHAR uni277F
ENCODING 10111
SWIDTH 1000 0
DWIDTH 24 0
BBX 24 24 0 -2
BITMAP
007E00
01FF80
07FFE0
0FFFF0
1FFFF8
3F7C7C
3E793C
787BBE
7E739E
FE739F
FE739F
FE739F
FE739F
FE739F
FE739F
7E739E
7E7BBE
3E793C
381C7C
1FFFF8
0FFFF0
07FFE0
01FF80
007E00
ENDCHAR
STARTCHAR uni2934
ENCODING 10548
SWIDTH 1000 0
DWIDTH 24 0
BBX 22 17 1 2
BITMAP
000040
000040
0000E0
0001F0
000150
000248
000444
000040
000040
000080
000080
000100
000100
000200
000C00
003000
FFC000
ENDCHAR
STARTCHAR uni2935
ENCODING 10549
SWIDTH 1000 0
DWIDTH 24 0
BBX 22 17 1 1
BITMAP
FFC000
003000
000C00
000200
000100
000100
000080
000080
000040
000040
000444
000248
000150
0001F0
0000E0
000040
000040
ENDCHAR
STARTCHAR uni29BF
ENCODING 10687
SWIDTH 960 0
DWIDTH 24 0
BBX 22 22 1 -1
BITMAP
00FC00
030300
0C00C0
100020
200010
200010
400008
400008
807804
80FC04
80FC04
80FC04
80FC04
807804
400008
400008
200010
200010
100020
0C00C0
030300
00FC00
ENDCHAR
STARTCHAR uni29FA
ENCODING 10746
SWIDTH 1000 0
DWIDTH 24 0
BBX 20 18 2 1
BITMAP
020400
020400
020400
020400
020400
020400
020400
020400
FFFFF0
020400
020400
020400
020400
020400
020400
020400
020400
020400
ENDCHAR
STARTCHAR uni29FB
ENCODING 10747
SWIDTH 1000 0
DWIDTH 24 0
BBX 20 18 2 1
BITMAP
084200
084200
084200
084200
084200
084200
084200
084200
FFFFF0
084200
084200
084200
084200
084200
084200
084200
084200
084200
ENDCHAR
STARTCHAR uni3000
ENCODING 12288
SWIDTH 1000 0
DWIDTH 24 0
BBX 21 21 1 0
BITMAP
888888
000000
000000
000000
888888
000000
000000
000000
888888
000000
000000
000000
888888
000000
000000
000000
888888
000000
000000
000000
888888
ENDCHAR
STARTCHAR uni3001
ENCODING 12289
SWIDTH 960 0
DWIDTH 24 0
BBX 6 5 3 -2
BITMAP
80
60
38
1C
0C
ENDCHAR
STARTCHAR uni3002
ENCODING 12290
SWIDTH 960 0
DWIDTH 24 0
BBX 6 6 3 -2
BITMAP
30
48
84
84
48
30
ENDCHAR
STARTCHAR uni3003
ENCODING 12291
SWIDTH 960 0
DWIDTH 24 0
BBX 11 13 6 3
BITMAP
1860
1860
1860
1860
1860
1860
30C0
30C0
30C0
2080
6180
4100
8200
ENDCHAR
STARTCHAR uni3005
ENCODING 12293
SWIDTH 960 0
DWIDTH 24 0
BBX 17 16 3 2
BITMAP
020000
038000
030300
03FF80
060300
060600
0C0600
180C00
100800
201000
432000
80C000
007000
003800
001C00
000C00
ENDCHAR
STARTCHAR uni3006
ENCODING 12294
SWIDTH 960 0
DWIDTH 24 0
BBX 24 24 0 -2
BITMAP
000002
000003
000007
00000F
00003C
000070
0001C0
000300
03C600
043800
081C00
082600
104700
108300
310000
220000
260000
2C0000
380000
300000
700000
600000
E00000
C00000
ENDCHAR
STARTCHAR uni3007
ENCODING 12295
SWIDTH 960 0
DWIDTH 24 0
BBX 22 18 1 1
BITMAP
00FC00
078780
1C00E0
300030
600018
400008
C0000C
800004
800004
800004
800004
C0000C
400008
600018
300030
1C00E0
078780
00FC00
ENDCHAR
STARTCHAR uni3008
ENCODING 12296
SWIDTH 960 0
DWIDTH 24 0
BBX 9 24 11 -2
BITMAP
0080
0080
0100
0200
0400
0400
0800
1000
2000
2000
4000
8000
4000
2000
2000
1000
0800
0800
0400
0200
0200
0100
0080
0080
ENDCHAR
STARTCHAR uni3009
ENCODING 12297
SWIDTH 960 0
DWIDTH 24 0
BBX 9 24 4 -2
BITMAP
8000
8000
4000
2000
1000
1000
0800
0400
0200
0200
0100
0080
0100
0200
0200
0400
0800
0800
1000
2000
2000
4000
8000
8000
ENDCHAR
STARTCHAR uni300A
ENCODING 12298
SWIDTH 960 0
DWIDTH 24 0
BBX 12 24 10 -2
BITMAP
0110
0110
0220
0440
0440
0880
1100
1100
2200
4400
4400
8800
4400
4400
2200
1100
1100
0880
0880
0440
0220
0220
0110
0110
ENDCHAR
STARTCHAR uni300B
ENCODING 12299
SWIDTH 960 0
DWIDTH 24 0
BBX 12 24 2 -2
BITMAP
8800
8800
4400
2200
2200
1100
0880
0880
0440
0220
0220
0110
0220
0220
0440
0880
0880
1100
1100
2200
4400
4400
8800
8800
ENDCHAR
STARTCHAR uni300C
ENCODING 12300
SWIDTH 960 0
DWIDTH 24 0
BBX 7 16 13 6
BITMAP
FE
80
80
80
80
80
80
80
80
80
80
80
80
80
80
80
ENDCHAR
STARTCHAR uni300D
ENCODING 12301
SWIDTH 960 0
DWIDTH 24 0
BBX 7 16 4 -2
BITMAP
02
02
02
02
02
02
02
02
02
02
02
02
02
02
02
FE
ENDCHAR
STARTCHAR uni300E
ENCODING 12302
SWIDTH 960 0
DWIDTH 24 0
BBX 8 16 13 6
BITMAP
FF
81
81
9F
90
90
90
90
90
90
90
90
90
90
90
F0
ENDCHAR
STARTCHAR uni300F
ENCODING 12303
SWIDTH 960 0
DWIDTH 24 0
BBX 8 16 3 -2
BITMAP
0F
09
09
09
09
09
09
09
09
09
09
09
F9
81
81
FF
ENDCHAR
STARTCHAR uni3010
ENCODING 12304
SWIDTH 960 0
DWIDTH 24 0
BBX 7 24 13 -2
BITMAP
FE
FC
F8
F8
F0
F0
E0
E0
E0
C0
C0
C0
C0
C0
C0
E0
E0
E0
F0
F0
F8
F8
FC
FE
ENDCHAR
STARTCHAR uni3011
ENCODING 12305
SWIDTH 960 0
DWIDTH 24 0
BBX 7 24 4 -2
BITMAP
FE
7E
3E
3E
1E
1E
0E
0E
0E
06
06
06
06
06
06
0E
0E
0E
1E
1E
3E
3E
7E
FE
ENDCHAR
STARTCHAR uni3012
ENCODING 12306
SWIDTH 960 0
DWIDTH 24 0
BBX 22 21 1 -1
BITMAP
FFFFFC
FFFFFC
000000
000000
000000
000000
FFFFFC
FFFFFC
003000
003000
003000
003000
003000
003000
003000
003000
003000
003000
003000
003000
003000
ENDCHAR
STARTCHAR uni3013
ENCODING 12307
SWIDTH 960 0
DWIDTH 24 0
BBX 22 16 1 2
BITMAP
FFFFFC
FFFFFC
FFFFFC
FFFFFC
FFFFFC
FFFFFC
000000
000000
000000
000000
FFFFFC
FFFFFC
FFFFFC
FFFFFC
FFFFFC
FFFFFC
ENDCHAR
STARTCHAR uni3014
ENCODING 12308
SWIDTH 960 0
DWIDTH 24 0
BBX 8 24 12 -2
BITMAP
03
0C
30
C0
80
80
80
80
80
80
80
80
80
80
80
80
80
80
80
80
C0
30
0C
03
ENDCHAR
STARTCHAR uni3015
ENCODING 12309
SWIDTH 960 0
DWIDTH 24 0
BBX 8 24 4 -2
BITMAP
C0
30
0C
03
01
01
01
01
01
01
01
01
01
01
01
01
01
01
01
01
03
0C
30
C0
ENDCHAR
STARTCHAR uni3016
ENCODING 12310
SWIDTH 1000 0
DWIDTH 24 0
BBX 9 24 11 -2
BITMAP
FF80
8100
8200
8200
8400
8400
8800
8800
8800
9000
9000
9000
9000
9000
9000
8800
8800
8800
8400
8400
8200
8200
8100
FF80
ENDCHAR
STARTCHAR uni3017
ENCODING 12311
SWIDTH 960 0
DWIDTH 24 0
BBX 9 24 4 -2
BITMAP
FF80
4080
2080
2080
1080
1080
0880
0880
0880
0480
0480
0480
0480
0480
0480
0880
0880
0880
1080
1080
2080
2080
4080
FF80
ENDCHAR
STARTCHAR uni3018
ENCODING 12312
SWIDTH 1000 0
DWIDTH 24 0
BBX 8 24 12 -2
BITMAP
03
0C
30
C3
8C
90
90
90
90
90
90
90
90
90
90
90
90
90
90
8C
C3
30
0C
03
ENDCHAR
STARTCHAR uni3019
ENCODING 12313
SWIDTH 1000 0
DWIDTH 24 0
BBX 8 24 4 -2
BITMAP
C0
30
0C
C3
31
09
09
09
09
09
09
09
09
09
09
09
09
09
09
31
C3
0C
30
C0
ENDCHAR
STARTCHAR uni301C
ENCODING 12316
SWIDTH 960 0
DWIDTH 24 0
BBX 24 6 0 7
BITMAP
1F0000
61E000
807800
001E01
000786
0000F8
ENDCHAR
STARTCHAR uni301D
ENCODING 12317
SWIDTH 1000 0
DWIDTH 24 0
BBX 9 7 14 14
BITMAP
0C00
CE00
E600
6300
3100
1080
0800
ENDCHAR
STARTCHAR uni301F
ENCODING 12319
SWIDTH 1000 0
DWIDTH 24 0
BBX 9 7 1 -1
BITMAP
0800
8400
4600
6300
3380
3980
1800
ENDCHAR
STARTCHAR uni3020
ENCODING 12320
SWIDTH 1000 0
DWIDTH 24 0
BBX 24 18 0 1
BITMAP
1FFFF8
1FFFF8
000000
000000
1FFFF8
1FFFF8
001800
6A9956
8718E1
8CDB31
849921
6318C6
101808
110088
088110
047E20
0300C0
00FF00
ENDCHAR
STARTCHAR uni3033
ENCODING 12339
SWIDTH 1000 0
DWIDTH 24 0
BBX 14 24 4 -2
BITMAP
0010
0008
000C
000C
001C
001C
0038
0038
0070
0070
00E0
01C0
0180
0380
0700
0E00
0C00
1800
3000
6000
4000
C000
8000
8000
ENDCHAR
STARTCHAR uni3034
ENCODING 12340
SWIDTH 1000 0
DWIDTH 24 0
BBX 18 24 4 -2
BITMAP
001000
000800
000C00
000C00
001C00
001C00
003800
003800
007000
007000
00E000
01C000
018200
038180
0700C0
0E00C0
0C0800
180600
300300
600300
400000
C00000
800000
800000
ENDCHAR
STARTCHAR uni3035
ENCODING 12341
SWIDTH 1000 0
DWIDTH 24 0
BBX 14 24 4 -2
BITMAP
C000
6000
3000
3800
1C00
0C00
0600
0700
0300
0380
01C0
01C0
00E0
00E0
0070
0070
0038
0038
0018
001C
001C
001C
000C
000C
ENDCHAR
STARTCHAR uni303B
ENCODING 12347
SWIDTH 1000 0
DWIDTH 24 0
BBX 7 17 13 2
BITMAP
80
60
38
1C
0E
06
0E
3C
60
40
60
30
18
0C
0E
06
06
ENDCHAR
STARTCHAR uni303C
ENCODING 12348
SWIDTH 960 0
DWIDTH 24 0
BBX 20 20 2 0
BITMAP
FFFFF0
800030
800050
800090
800110
800210
800410
800810
801010
802010
804010
808010
810010
820010
840010
880010
900010
A00010
C00010
FFFFF0
ENDCHAR
STARTCHAR uni303D
ENCODING 12349
SWIDTH 1000 0
DWIDTH 24 0
BBX 22 22 1 -1
BITMAP
1C0000
363800
636C00
C3C400
018600
000200
000200
000300
000100
000100
000180
000080
000080
0000C0
0000C0
000060
000060
000030
000038
00001C
000018
000008
ENDCHAR
STARTCHAR uni3041
ENCODING 12353
SWIDTH 960 0
DWIDTH 24 0
BBX 16 18 4 -1
BITMAP
0400
0300
0300
0270
7FE0
0400
0440
0440
07F0
1C4C
3486
6483
4503
8603
8E03
9A06
E20C
0070
ENDCHAR
STARTCHAR uni3042
ENCODING 12354
SWIDTH 960 0
DWIDTH 24 0
BBX 20 24 2 -2
BITMAP
030000
01C000
018000
018C00
41FE00
3FF000
030000
031000
021800
021800
02FE00
073180
0A20C0
126060
224060
428030
430030
830030
830030
850060
998060
F180C0
C00180
000E00
ENDCHAR
STARTCHAR uni3043
ENCODING 12355
SWIDTH 960 0
DWIDTH 24 0
BBX 16 13 4 0
BITMAP
8000
4030
400C
4004
4006
4002
4203
4403
6403
280F
3803
3800
1800
ENDCHAR
STARTCHAR uni3044
ENCODING 12356
SWIDTH 960 0
DWIDTH 24 0
BBX 21 18 2 1
BITMAP
800000
400000
400300
600080
600040
600060
600020
600030
600030
610010
610018
630018
320078
360038
3C0018
1C0000
1C0000
0C0000
ENDCHAR
STARTCHAR uni3045
ENCODING 12357
SWIDTH 960 0
DWIDTH 24 0
BBX 10 18 7 -1
BITMAP
1000
0C00
0700
0300
0000
0000
8700
7980
60C0
00C0
00C0
00C0
00C0
0180
0180
0300
0600
1800
ENDCHAR
STARTCHAR uni3046
ENCODING 12358
SWIDTH 960 0
DWIDTH 24 0
BBX 13 23 5 -1
BITMAP
0C00
0380
00E0
0060
0000
0000
0000
03C0
8E20
7810
6018
0018
0018
0018
0018
0018
0018
0030
0030
0060
00C0
0300
1C00
ENDCHAR
STARTCHAR uni3047
ENCODING 12359
SWIDTH 960 0
DWIDTH 24 0
BBX 14 18 6 -1
BITMAP
0400
0300
01C0
00C0
0000
0080
23C0
1CC0
1180
0300
0600
0C00
1800
3400
6200
E300
C1FC
00F8
ENDCHAR
STARTCHAR uni3048
ENCODING 12360
SWIDTH 960 0
DWIDTH 24 0
BBX 18 23 3 -1
BITMAP
010000
00C000
007000
003000
000000
000000
001000
10F800
0F9800
0C3000
006000
00C000
018000
010000
020000
060000
0C0000
1B0000
308000
708000
E0C000
C07FC0
001FC0
ENDCHAR
STARTCHAR uni3049
ENCODING 12361
SWIDTH 960 0
DWIDTH 24 0
BBX 17 17 3 -1
BITMAP
080000
060000
060000
040E00
04C180
27C180
1C0200
040000
047800
058600
060300
0C0300
1C0300
B40300
640600
2C7800
040000
ENDCHAR
STARTCHAR uni304A
ENCODING 12362
SWIDTH 960 0
DWIDTH 24 0
BBX 21 22 1 -1
BITMAP
060000
038000
030000
0300C0
030030
033018
63F018
3F8060
020000
020000
020780
0238E0
02C030
030018
060018
0E0018
9A0018
F20030
720070
2F11E0
070F80
020000
ENDCHAR
STARTCHAR uni304B
ENCODING 12363
SWIDTH 1000 0
DWIDTH 24 0
BBX 22 23 1 -1
BITMAP
000038
030044
018044
01C044
018038
010000
010180
03F060
8F0C30
F20418
660418
06041C
04041C
0C047C
0C0C18
180C00
180800
301800
301800
623000
E1F000
C0E000
00C000
ENDCHAR
STARTCHAR uni304C
ENCODING 12364
SWIDTH 960 0
DWIDTH 24 0
BBX 23 23 1 -1
BITMAP
00000C
030006
018066
01C030
018030
010000
010180
03F060
8F0C30
F20418
660418
06041C
04041C
0C047C
0C0C18
180C00
180800
301800
301800
623000
E1F000
C0E000
00C000
ENDCHAR
STARTCHAR uni304D
ENCODING 12365
SWIDTH 1000 0
DWIDTH 24 0
BBX 20 23 3 -1
BITMAP
0E00E0
060110
030110
033910
81F0E0
7F8000
38C000
004700
007E00
40E000
3F1000
181800
000C00
000600
07C700
183F00
200300
400000
400000
600000
380000
1FF000
07F000
ENDCHAR
STARTCHAR uni304E
ENCODING 12366
SWIDTH 960 0
DWIDTH 24 0
BBX 21 23 3 -1
BITMAP
0E0030
060018
030198
0338C0
81F0C0
7F8000
38C000
004700
007E00
40E000
3F1000
181800
000C00
000600
07C700
183F00
200300
400000
400000
600000
380000
1FF000
07F000
ENDCHAR
STARTCHAR uni304F
ENCODING 12367
SWIDTH 1000 0
DWIDTH 24 0
BBX 20 24 4 -2
BITMAP
0010E0
001910
003910
007110
00E0E0
01C000
030000
060000
180000
600000
800000
800000
400000
300000
1C0000
060000
030000
018000
00C000
006000
007000
003000
003800
001800
ENDCHAR
STARTCHAR uni3050
ENCODING 12368
SWIDTH 960 0
DWIDTH 24 0
BBX 20 24 4 -2
BITMAP
001000
001800
003860
007030
00E330
01C180
030180
060000
180000
600000
800000
800000
400000
300000
1C0000
060000
030000
018000
00C000
006000
007000
003000
003800
001800
ENDCHAR
STARTCHAR uni3051
ENCODING 12369
SWIDTH 1000 0
DWIDTH 24 0
BBX 22 24 1 -2
BITMAP
000038
600044
301C44
300744
300338
600300
600300
600318
420FFC
41FF00
C0C300
C00300
C80300
C80300
C80300
D00200
D00600
700600
600600
600400
600C00
200800
001000
002000
ENDCHAR
STARTCHAR uni3052
ENCODING 12370
SWIDTH 960 0
DWIDTH 24 0
BBX 23 24 1 -2
BITMAP
00000C
600006
301C66
300730
300330
600300
600300
600318
420FFC
41FF00
C0C300
C00300
C80300
C80300
C80300
D00200
D00600
700600
600600
600400
600C00
200800
001000
002000
ENDCHAR
STARTCHAR uni3053
ENCODING 12371
SWIDTH 1000 0
DWIDTH 24 0
BBX 20 21 3 0
BITMAP
0000E0
100110
0F8110
03FD10
003CE0
00E000
030000
000000
000000
000000
000000
000000
000000
400000
800000
800000
800000
800000
600000
3FFF80
0FFF80
ENDCHAR
STARTCHAR uni3054
ENCODING 12372
SWIDTH 960 0
DWIDTH 24 0
BBX 21 22 3 0
BITMAP
000030
000018
100198
0F80C0
03FCC0
003C00
00E000
030000
000000
000000
000000
000000
000000
000000
400000
800000
800000
800000
800000
600000
3FFF80
0FFF80
ENDCHAR
STARTCHAR uni3055
ENCODING 12373
SWIDTH 960 0
DWIDTH 24 0
BBX 17 23 3 -1
BITMAP
070000
0E0000
060C00
030700
018E00
80F800
7FE000
1C3000
001800
000C00
000600
000700
01F300
0E1F80
300380
200100
400000
400000
200000
380000
1F8000
07FC00
007C00
ENDCHAR
STARTCHAR uni3056
ENCODING 12374
SWIDTH 960 0
DWIDTH 24 0
BBX 21 23 3 -1
BITMAP
0E0030
1C0018
0C3198
061CC0
0338C0
81E000
7FC000
1C6000
003000
001800
000C00
000E00
01E600
0E3F00
300700
200200
400000
400000
200000
380000
1F8000
07FC00
007C00
ENDCHAR
STARTCHAR uni3057
ENCODING 12375
SWIDTH 960 0
DWIDTH 24 0
BBX 17 23 5 -1
BITMAP
C00000
600000
700000
700000
700000
600000
600000
600000
600000
600000
600000
600000
600000
600000
400000
400000
400080
400100
400200
400C00
207800
3FE000
0F0000
ENDCHAR
STARTCHAR uni3058
ENCODING 12376
SWIDTH 960 0
DWIDTH 24 0
BBX 17 23 5 -1
BITMAP
C00000
600000
700000
703000
701800
619800
60C000
60C000
600000
600000
600000
600000
600000
600000
400000
400000
400080
400100
400200
400C00
207800
3FE000
0F0000
ENDCHAR
STARTCHAR uni3059
ENCODING 12377
SWIDTH 960 0
DWIDTH 24 0
BBX 24 24 0 -2
BITMAP
001800
000E00
000700
000600
000600
001FFE
83FC1F
7F0400
300400
007C00
008C00
010600
010600
010600
010600
008600
00FE00
006400
000C00
000800
001800
001000
002000
00C000
ENDCHAR
STARTCHAR uni305A
ENCODING 12378
SWIDTH 960 0
DWIDTH 24 0
BBX 24 24 0 -2
BITMAP
001806
000E03
000733
000618
000618
000600
83FFFE
7F041F
300400
007C00
008C00
010600
010600
010600
010600
008600
00FE00
006400
000C00
000800
001800
001000
002000
00C000
ENDCHAR
STARTCHAR uni305B
ENCODING 12379
SWIDTH 960 0
DWIDTH 24 0
BBX 24 23 0 -1
BITMAP
000300
000180
0001C0
060180
030180
030180
030180
03018E
031FFF
0FF180
FB0180
630180
030100
030300
031300
030E00
030600
010000
010000
018000
00E000
007FF0
001FF0
ENDCHAR
STARTCHAR uni305C
ENCODING 12380
SWIDTH 960 0
DWIDTH 24 0
BBX 24 23 0 -1
BITMAP
000006
000603
000333
060398
030318
030300
030300
03031C
031FFE
0FF300
FB0300
630300
030200
030600
032600
031C00
030C00
010000
010000
018000
00E000
007FF0
001FF0
ENDCHAR
STARTCHAR uni305D
ENCODING 12381
SWIDTH 960 0
DWIDTH 24 0
BBX 20 23 2 -2
BITMAP
001C00
04E600
078E00
021800
003000
006000
00C000
010000
0207E0
047FF0
199800
3E2000
F04000
C08000
008000
010000
010000
010000
008000
00C000
007800
003E00
000E00
ENDCHAR
STARTCHAR uni305E
ENCODING 12382
SWIDTH 960 0
DWIDTH 24 0
BBX 22 23 2 -2
BITMAP
001C00
04E618
078E0C
0218CC
003060
006060
00C000
010000
0207E0
047FF0
199800
3E2000
F04000
C08000
008000
010000
010000
010000
008000
00C000
007800
003E00
000E00
ENDCHAR
STARTCHAR uni305F
ENCODING 12383
SWIDTH 960 0
DWIDTH 24 0
BBX 21 22 1 -1
BITMAP
030000
018000
018000
011800
037800
83E000
FF0380
6600F0
060038
040038
0C00C0
080000
180000
180000
300000
302000
604000
604000
E02000
C03800
001FF8
0003F8
ENDCHAR
STARTCHAR uni3060
ENCODING 12384
SWIDTH 960 0
DWIDTH 24 0
BBX 23 23 1 -1
BITMAP
00000C
030006
018066
018030
011830
037800
83E000
FF0380
6600F0
060038
040038
0C00C0
080000
180000
180000
300000
302000
604000
604000
E02000
C03800
001FF8
0003F8
ENDCHAR
STARTCHAR uni3061
ENCODING 12385
SWIDTH 960 0
DWIDTH 24 0
BBX 20 23 2 -1
BITMAP
060000
030000
030000
020000
061800
86FC00
FF8000
660000
040000
040000
0C0000
0C0F00
0870C0
09C060
0B0030
1C0030
1C0030
180060
0000E0
0001C0
000380
000E00
007000
ENDCHAR
STARTCHAR uni3062
ENCODING 12386
SWIDTH 960 0
DWIDTH 24 0
BBX 22 23 2 -1
BITMAP
060000
030000
030018
02000C
0618CC
86FC60
FF8060
660000
040000
040000
0C0000
0C0F00
0870C0
09C060
0B0030
1C0030
1C0030
180060
0000E0
0001C0
000380
000E00
007000
ENDCHAR
STARTCHAR uni3063
ENCODING 12387
SWIDTH 960 0
DWIDTH 24 0
BBX 17 12 3 1
BITMAP
007800
03C600
9E0300
780180
200180
000180
000180
000300
000300
000600
001800
006000
ENDCHAR
STARTCHAR uni3064
ENCODING 12388
SWIDTH 960 0
DWIDTH 24 0
BBX 23 16 0 1
BITMAP
000FC0
00F030
03C008
8F000C
7C0004
380006
000006
000006
00000E
00000C
00001C
000038
000070
0001C0
000700
003800
ENDCHAR
STARTCHAR uni3065
ENCODING 12389
SWIDTH 960 0
DWIDTH 24 0
BBX 24 21 0 1
BITMAP
000006
000003
000033
000018
000018
000F80
00F0E0
03C030
8F0018
7C0018
38000C
00000C
00000C
00000C
000018
000038
000070
0000E0
000380
000E00
007000
ENDCHAR
STARTCHAR uni3066
ENCODING 12390
SWIDTH 960 0
DWIDTH 24 0
BBX 20 21 1 -1
BITMAP
0001E0
003FF0
83E700
FE0C00
781800
202000
004000
004000
008000
008000
010000
010000
010000
010000
018000
008000
00C000
007000
003E00
000F80
000380
ENDCHAR
STARTCHAR uni3067
ENCODING 12391
SWIDTH 960 0
DWIDTH 24 0
BBX 23 21 1 -1
BITMAP
0001C0
003FE0
83E700
FE0C0C
781806
202066
004030
004030
008000
008000
010000
010000
010000
010000
018000
008000
00C000
007000
003E00
000F80
000380
ENDCHAR
STARTCHAR uni3068
ENCODING 12392
SWIDTH 960 0
DWIDTH 24 0
BBX 15 22 4 -1
BITMAP
3000
1800
1C00
1800
1800
1800
0800
081C
087C
09F0
0780
0E00
1800
3000
6000
4000
8000
8000
8000
400E
3FFE
0FF8
ENDCHAR
STARTCHAR uni3069
ENCODING 12393
SWIDTH 960 0
DWIDTH 24 0
BBX 19 22 4 -1
BITMAP
3000C0
180060
1C0660
180300
180300
180000
080000
081C00
087C00
09F000
078000
0E0000
180000
300000
600000
400000
800000
800000
800000
400E00
3FFE00
0FF800
ENDCHAR
STARTCHAR uni306A
ENCODING 12394
SWIDTH 960 0
DWIDTH 24 0
BBX 22 24 1 -2
BITMAP
00C000
006000
00C000
00C000
819800
FFFC00
710000
0200E0
060018
04007C
0C018C
180200
300200
700400
E00400
C00400
000400
000400
01F400
020F00
0405C0
040CE0
03F860
00F000
ENDCHAR
STARTCHAR uni306B
ENCODING 12395
SWIDTH 960 0
DWIDTH 24 0
BBX 21 22 2 -1
BITMAP
200000
300000
300000
300780
303FE0
60C0F0
600180
600200
600000
400000
C00000
C00000
C40000
C40000
C84000
C88000
C88000
50C000
707FF8
701FF0
300000
200000
ENDCHAR
STARTCHAR uni306C
ENCODING 12396
SWIDTH 960 0
DWIDTH 24 0
BBX 23 21 0 0
BITMAP
006000
001000
001800
101000
101000
103F80
10F060
132018
16200C
18600C
184006
38C006
2C8006
478006
47000E
83000C
8787CC
CD8838
58083C
300CE6
000386
ENDCHAR
STARTCHAR uni306D
ENCODING 12397
SWIDTH 960 0
DWIDTH 24 0
BBX 22 23 1 -1
BITMAP
0C0000
060000
030000
030000
030000
060000
060000
0F0780
BE3860
64C030
050010
0E0018
0C0018
1C0018
140018
340018
240038
640F30
E618F0
D61078
9E18CC
0C0F8C
0C0000
ENDCHAR
STARTCHAR uni306E
ENCODING 12398
SWIDTH 960 0
DWIDTH 24 0
BBX 22 19 1 0
BITMAP
003E00
01F180
071860
0C1830
181818
303018
20300C
40600C
40400C
80C00C
80800C
81800C
C3000C
C60018
6C0018
780030
300060
000180
000600
ENDCHAR
STARTCHAR uni306F
ENCODING 12399
SWIDTH 960 0
DWIDTH 24 0
BBX 22 22 1 -1
BITMAP
600300
3000C0
3800C0
3000C0
300080
300080
60409C
603FF8
601880
600080
400080
C00080
C80080
C800C0
C800C0
D800C0
D01FC0
5060E0
7080F8
7081DC
307F8C
201E00
ENDCHAR
STARTCHAR uni3070
ENCODING 12400
SWIDTH 960 0
DWIDTH 24 0
BBX 23 23 1 -1
BITMAP
00000C
600006
300C66
380330
300330
300300
300200
610270
60FFE0
606200
600200
400200
C00200
C80200
C80300
C80300
D80300
D03F00
50C380
7103E0
710770
30FE30
203800
ENDCHAR
STARTCHAR uni3071
ENCODING 12401
SWIDTH 960 0
DWIDTH 24 0
BBX 23 22 1 -1
BITMAP
600000
300C1C
380322
300322
300322
30021C
610260
60FFE0
606200
600200
400200
C00200
C80200
C80300
C80300
D80300
D03F00
50C380
7103E0
710770
30FE30
203800
ENDCHAR
STARTCHAR uni3072
ENCODING 12402
SWIDTH 960 0
DWIDTH 24 0
BBX 23 21 1 -1
BITMAP
0100C0
0780C0
9F80C0
7300C0
0600C0
0400E0
0C00A0
0800B0
180130
180118
10011C
30030E
300204
300200
300600
300400
300C00
101800
1C7000
0FE000
038000
ENDCHAR
STARTCHAR uni3073
ENCODING 12403
SWIDTH 960 0
DWIDTH 24 0
BBX 24 23 0 -1
BITMAP
000006
000003
010033
078198
9F8198
730180
060180
0401C0
0C0140
080160
180160
180130
100138
30011C
300208
300200
300200
300400
300C00
101800
1C7000
0FE000
038000
ENDCHAR
STARTCHAR uni3074
ENCODING 12404
SWIDTH 960 0
DWIDTH 24 0
BBX 24 21 0 -1
BITMAP
01000E
078191
9F8191
730191
06018E
0401C0
0C0140
080160
180160
180130
100138
30011C
300208
300200
300200
300400
300C00
101800
1C7000
0FE000
038000
ENDCHAR
STARTCHAR uni3075
ENCODING 12405
SWIDTH 960 0
DWIDTH 24 0
BBX 24 21 0 0
BITMAP
004000
002000
003000
001800
000C00
000C00
001000
002000
002000
004000
004000
002000
003000
001FE0
00783C
018806
860C07
9C0C1F
780C06
70FC00
203800
ENDCHAR
STARTCHAR uni3076
ENCODING 12406
SWIDTH 960 0
DWIDTH 24 0
BBX 24 21 0 0
BITMAP
004000
002000
003000
00180C
000C06
000C66
001030
002030
002000
004000
004000
002000
003000
001FE0
00783C
018806
860C07
9C0C1F
780C06
70FC00
203800
ENDCHAR
STARTCHAR uni3077
ENCODING 12407
SWIDTH 960 0
DWIDTH 24 0
BBX 24 21 0 0
BITMAP
004000
002000
003000
001800
000C00
000C38
001044
002044
002044
004038
004000
002000
003000
001FE0
00783C
018806
860C07
9C0C1F
780C06
70FC00
203800
ENDCHAR
STARTCHAR uni3078
ENCODING 12408
SWIDTH 960 0
DWIDTH 24 0
BBX 24 16 0 2
BITMAP
038000
064000
042000
0C2000
0C1000
081800
180C00
180600
B00300
F00180
6000E0
000070
000038
00001E
00000F
000003
ENDCHAR
STARTCHAR uni3079
ENCODING 12409
SWIDTH 960 0
DWIDTH 24 0
BBX 24 19 0 2
BITMAP
000060
000030
000330
038180
064180
042000
0C2000
0C1000
081800
180C00
180600
B00300
F00180
6000E0
000070
000038
00001E
00000F
000003
ENDCHAR
STARTCHAR uni307A
ENCODING 12410
SWIDTH 960 0
DWIDTH 24 0
BBX 24 17 0 2
BITMAP
000070
038088
064088
042088
0C2070
0C1000
081800
180C00
180600
B00300
F00180
6000E0
000070
000038
00001E
00000F
000003
ENDCHAR
STARTCHAR uni307B
ENCODING 12411
SWIDTH 960 0
DWIDTH 24 0
BBX 22 22 1 -1
BITMAP
600000
3003F0
387FF8
300180
3000C0
3000C0
6000C0
6000F8
6003F0
607EC0
4000C0
C000C0
C800C0
C800C0
C800C0
D800C0
D00FC0
5030E0
7040F8
7041DC
303F8C
200E00
ENDCHAR
STARTCHAR uni307C
ENCODING 12412
SWIDTH 960 0
DWIDTH 24 0
BBX 23 22 1 -1
BITMAP
600000
30078C
39FFC6
300606
300330
300318
600318
600300
6003E0
61FFC0
400300
C00300
C80300
C80300
C80300
D80300
D03F00
50C380
7103E0
710770
30FE30
203800
ENDCHAR
STARTCHAR uni307D
ENCODING 12413
SWIDTH 960 0
DWIDTH 24 0
BBX 23 23 1 -1
BITMAP
00001C
600022
300722
39FFA2
30061C
300300
300300
600300
6003E0
601FC0
61F300
400300
C00300
C80300
C80300
C80300
D80300
D03F00
50C380
7103E0
710770
30FE30
203800
ENDCHAR
STARTCHAR uni307E
ENCODING 12414
SWIDTH 960 0
DWIDTH 24 0
BBX 17 23 3 -1
BITMAP
00C000
006000
007000
006000
006000
804F00
7FFE00
384000
004800
004600
405E00
3FF800
1C4000
004000
004000
006000
006000
1FE000
607C00
806F00
C1E380
7FC180
1F0000
ENDCHAR
STARTCHAR uni307F
ENCODING 12415
SWIDTH 960 0
DWIDTH 24 0
BBX 22 20 1 0
BITMAP
107800
0F9C00
061C00
003800
003000
006080
004040
00C060
008060
018060
07FCC0
1B0FC0
6200E0
4601F8
8C019C
98030C
B00300
E00600
400400
000800
ENDCHAR
STARTCHAR uni3080
ENCODING 12416
SWIDTH 960 0
DWIDTH 24 0
BBX 22 22 1 -1
BITMAP
0C0000
060000
060000
067000
07F000
FFC060
660090
040098
04008C
1C008C
2600BC
460088
460080
460080
240040
1C0040
0C0040
080060
0800E0
0C03E0
07FFC0
01FE00
ENDCHAR
STARTCHAR uni3081
ENCODING 12417
SWIDTH 960 0
DWIDTH 24 0
BBX 23 21 0 0
BITMAP
001800
000C00
200C00
300C00
100800
101F80
18F8E0
0B9038
0E301C
1C200C
34600E
644006
46C006
C38006
83800E
83800C
86C01C
4C4018
700030
2000C0
000300
ENDCHAR
STARTCHAR uni3082
ENCODING 12418
SWIDTH 960 0
DWIDTH 24 0
BBX 16 23 4 -1
BITMAP
0C00
0600
0700
0600
0600
8400
7400
1C00
0C00
1800
6800
8800
9008
7E04
1F86
1182
3003
3003
3003
1006
180E
0FFC
03F0
ENDCHAR
STARTCHAR uni3083
ENCODING 12419
SWIDTH 960 0
DWIDTH 24 0
BBX 18 18 2 -1
BITMAP
008000
006000
07E000
086000
081F00
0CF180
0700C0
8E00C0
7B1180
318E00
00C000
004000
006000
002000
003000
003000
001800
001800
ENDCHAR
STARTCHAR uni3084
ENCODING 12420
SWIDTH 960 0
DWIDTH 24 0
BBX 24 23 0 -1
BITMAP
001000
000800
038C00
047E00
080C00
0801F0
0C0E0C
067006
03C003
070003
9D8007
F8C61E
7063FC
0060F0
003000
001800
001800
000C00
000C00
000E00
000600
000700
000300
ENDCHAR
STARTCHAR uni3085
ENCODING 12421
SWIDTH 960 0
DWIDTH 24 0
BBX 15 17 5 -1
BITMAP
0300
0480
48E0
4B58
8C4C
9044
9046
A846
A846
C846
C4C4
C68C
4398
00E0
0180
0100
0200
ENDCHAR
STARTCHAR uni3086
ENCODING 12422
SWIDTH 960 0
DWIDTH 24 0
BBX 22 23 1 -2
BITMAP
007000
808800
410C00
611F80
626460
628430
630618
420618
C6060C
CA060C
CA060C
D1060C
D10618
D08C18
608C30
604CE0
603FC0
201F00
001000
003000
002000
004000
008000
ENDCHAR
STARTCHAR uni3087
ENCODING 12423
SWIDTH 960 0
DWIDTH 24 0
BBX 12 17 6 -1
BITMAP
0400
0300
0300
0300
0230
03F0
0200
0200
0200
0200
0200
0200
3E00
C3C0
82F0
4630
3C00
ENDCHAR
STARTCHAR uni3088
ENCODING 12424
SWIDTH 960 0
DWIDTH 24 0
BBX 17 23 3 -1
BITMAP
030000
01C000
00E000
00C000
00C000
00C000
00C700
00FF80
00C000
00C000
00C000
00C000
00C000
00C000
00C000
00C000
00C000
3FF000
60FC00
80CF00
80C380
C38180
7E0000
ENDCHAR
STARTCHAR uni3089
ENCODING 12425
SWIDTH 960 0
DWIDTH 24 0
BBX 17 23 4 -1
BITMAP
040000
020000
030000
018000
03C000
0CC000
100000
100000
200000
200000
200000
200000
207800
618600
660300
780180
F00180
E00180
400380
000300
000E00
003800
01C000
ENDCHAR
STARTCHAR uni308A
ENCODING 12426
SWIDTH 960 0
DWIDTH 24 0
BBX 13 24 6 -2
BITMAP
8000
C000
43C0
4460
4830
4830
D018
D018
E018
E018
C018
C018
C018
C018
4018
0030
0030
0030
0060
0060
00C0
0180
0300
0C00
ENDCHAR
STARTCHAR uni308B
ENCODING 12427
SWIDTH 960 0
DWIDTH 24 0
BBX 17 22 3 -1
BITMAP
006000
13F000
1E3800
0C7000
006000
00C000
018000
030000
060000
040000
0CF800
1F0600
1C0300
380180
700180
E00180
C38180
0CC180
086300
083600
0C3800
03E000
ENDCHAR
STARTCHAR uni308C
ENCODING 12428
SWIDTH 960 0
DWIDTH 24 0
BBX 24 23 0 -1
BITMAP
060000
030000
038000
030000
030000
020700
021880
8720C0
7F40C0
3280C0
0700C0
0700C0
0E0080
0C0180
1C0180
1C0180
340180
340180
660180
F601C3
CE00FE
0E0038
040000
ENDCHAR
STARTCHAR uni308D
ENCODING 12429
SWIDTH 960 0
DWIDTH 24 0
BBX 19 22 2 -1
BITMAP
083000
0FF800
071800
003000
006000
004000
008000
018000
030000
063E00
0DC180
1E00C0
380060
700060
E00060
C00060
0000E0
0000C0
000180
000700
001C00
01E000
ENDCHAR
STARTCHAR uni308E
ENCODING 12430
SWIDTH 960 0
DWIDTH 24 0
BBX 16 18 4 -1
BITMAP
0800
0600
0600
0400
0400
0E00
7C70
298C
0A06
1C06
1803
3803
2803
4806
E806
980C
0C70
0C00
ENDCHAR
STARTCHAR uni308F
ENCODING 12431
SWIDTH 960 0
DWIDTH 24 0
BBX 22 23 1 -1
BITMAP
030000
018000
01C000
018000
018000
010000
010000
03C000
4FC3C0
398C70
013018
03401C
05800C
05000C
0B000C
19000C
11001C
310018
698030
E58060
C38180
038600
010000
ENDCHAR
STARTCHAR uni3090
ENCODING 12432
SWIDTH 960 0
DWIDTH 24 0
BBX 20 21 2 0
BITMAP
106000
0FF000
063000
006000
006000
004000
00C000
008000
01BE00
03C180
0F0040
320060
660020
440030
8C0030
880030
983C70
D04360
7041C0
206380
003E00
ENDCHAR
STARTCHAR uni3091
ENCODING 12433
SWIDTH 960 0
DWIDTH 24 0
BBX 22 23 1 -1
BITMAP
000C00
047E00
07CC00
030800
001800
003000
006F00
00F180
0180C0
0300C0
0E00C0
0CF0C0
019980
011B00
00FC00
00C000
010000
0201C0
0C0670
1B0C18
70F81C
E0707C
C02008
ENDCHAR
STARTCHAR uni3092
ENCODING 12434
SWIDTH 960 0
DWIDTH 24 0
BBX 18 23 3 -1
BITMAP
030000
018000
018000
813000
7FF800
330000
060000
040000
080380
1B01C0
3D87C0
70DE00
E0F000
C1C000
03C000
04C000
08C000
104000
200000
200000
3C0000
1FFE00
07FE00
ENDCHAR
STARTCHAR uni3093
ENCODING 12435
SWIDTH 960 0
DWIDTH 24 0
BBX 22 22 1 -1
BITMAP
003000
001800
003800
003000
007000
006000
00C000
00C000
018000
010000
030000
060000
04E000
0F3000
1C3000
183004
30300C
301818
601830
E018E0
C01FC0
C00F00
ENDCHAR
STARTCHAR uni3094
ENCODING 12436
SWIDTH 1000 0
DWIDTH 24 0
BBX 18 23 5 -1
BITMAP
0C0000
038180
00E0C0
006CC0
000600
000600
000000
03C000
8E2000
781000
601800
001800
001800
001800
001800
001800
001800
003000
003000
006000
00C000
030000
1C0000
ENDCHAR
STARTCHAR uni3095
ENCODING 12437
SWIDTH 1000 0
DWIDTH 24 0
BBX 18 18 3 -1
BITMAP
040000
020000
038000
030000
020800
8FC600
762300
661180
0411C0
0C10C0
0C13C0
181080
181000
301000
303000
606000
63E000
00C000
ENDCHAR
STARTCHAR uni3096
ENCODING 12438
SWIDTH 1000 0
DWIDTH 24 0
BBX 17 18 4 -1
BITMAP
404000
203000
301800
201800
641900
63FF80
619800
401800
C01800
C01800
C81800
D01000
501000
703000
602000
206000
004000
008000
ENDCHAR
STARTCHAR uni309B
ENCODING 12443
SWIDTH 960 0
DWIDTH 24 0
BBX 6 5 0 17
BITMAP
18
0C
CC
60
60
ENDCHAR
STARTCHAR uni309C
ENCODING 12444
SWIDTH 960 0
DWIDTH 24 0
BBX 5 5 1 15
BITMAP
70
88
88
88
70
ENDCHAR
STARTCHAR uni309D
ENCODING 12445
SWIDTH 960 0
DWIDTH 24 0
BBX 8 9 8 7
BITMAP
80
40
60
38
1C
0E
07
1F
66
ENDCHAR
STARTCHAR uni309E
ENCODING 12446
SWIDTH 960 0
DWIDTH 24 0
BBX 12 12 8 6
BITMAP
0060
0030
0330
8180
4180
6000
3800
1C00
0E00
0700
1F00
6600
ENDCHAR
STARTCHAR uni309F
ENCODING 12447
SWIDTH 1000 0
DWIDTH 24 0
BBX 19 23 3 -1
BITMAP
001800
000C00
000C00
001800
003800
003000
0078C0
00EFE0
00C000
018000
038000
030000
06FC00
0F0E00
0E0700
1C0300
380300
300300
620300
E20600
C30600
C18C00
00F800
ENDCHAR
STARTCHAR uni30A0
ENCODING 12448
SWIDTH 1000 0
DWIDTH 24 0
BBX 6 4 9 8
BITMAP
FC
00
00
FC
ENDCHAR
STARTCHAR uni30A1
ENCODING 12449
SWIDTH 960 0
DWIDTH 24 0
BBX 16 16 4 -1
BITMAP
0004
83FE
7E06
700F
0230
01C0
0180
0180
0100
0300
0300
0200
0600
0400
0800
1000
ENDCHAR
STARTCHAR uni30A2
ENCODING 12450
SWIDTH 960 0
DWIDTH 24 0
BBX 21 21 2 -1
BITMAP
0003C0
87FFF0
FF0078
7000F8
00C1E0
007300
003C00
003000
003000
006000
006000
004000
00C000
008000
018000
010000
030000
020000
040000
080000
100000
ENDCHAR
STARTCHAR uni30A3
ENCODING 12451
SWIDTH 960 0
DWIDTH 24 0
BBX 11 17 6 -1
BITMAP
0040
0060
0060
00C0
0180
0300
0600
0F00
1900
3100
C100
0100
0100
0300
0300
0300
0100
ENDCHAR
STARTCHAR uni30A4
ENCODING 12452
SWIDTH 960 0
DWIDTH 24 0
BBX 16 23 2 -1
BITMAP
0004
0006
000F
000E
001C
0018
0038
0070
00E0
01E0
0330
0630
0C30
3030
C030
0030
0030
0030
0030
0030
0030
0030
0020
ENDCHAR
STARTCHAR uni30A5
ENCODING 12453
SWIDTH 960 0
DWIDTH 24 0
BBX 14 17 6 -1
BITMAP
0800
0600
0600
87F8
7C1C
4018
C018
C030
4030
0060
0060
00C0
0080
0100
0200
0400
0800
ENDCHAR
STARTCHAR uni30A6
ENCODING 12454
SWIDTH 960 0
DWIDTH 24 0
BBX 20 22 2 -1
BITMAP
01C000
00E000
006000
006000
C063C0
7FFFE0
3E00F0
3000E0
3000C0
3001C0
300180
300180
300300
200300
000600
000600
000C00
001800
001000
002000
004000
008000
ENDCHAR
STARTCHAR uni30A7
ENCODING 12455
SWIDTH 960 0
DWIDTH 24 0
BBX 17 12 3 0
BITMAP
101C00
0FFE00
0D0000
00C000
00C000
00C000
00C000
008000
008000
808600
7FFF80
380180
ENDCHAR
STARTCHAR uni30A8
ENCODING 12456
SWIDTH 960 0
DWIDTH 24 0
BBX 23 16 0 2
BITMAP
1000E0
0FFFF0
073030
001800
001800
001800
001800
001800
001800
001800
003800
003000
003000
80FFF8
7FFFFE
3C000E
ENDCHAR
STARTCHAR uni30A9
ENCODING 12457
SWIDTH 960 0
DWIDTH 24 0
BBX 16 17 4 -1
BITMAP
0100
00C0
00C0
00C6
87FF
7CC0
21C0
0140
0340
0640
0C40
1840
3040
C040
03C0
01C0
00C0
ENDCHAR
STARTCHAR uni30AA
ENCODING 12458
SWIDTH 960 0
DWIDTH 24 0
BBX 22 23 1 -2
BITMAP
001800
000E00
000600
000600
000600
0007F8
43FFFC
3F8E00
181E00
003E00
007600
006600
00C600
018600
030600
060600
0C0600
300600
C00600
002600
001E00
000E00
000400
ENDCHAR
STARTCHAR uni30AB
ENCODING 12459
SWIDTH 1000 0
DWIDTH 24 0
BBX 22 24 1 -2
BITMAP
000038
003044
001844
001C44
001838
003800
003040
20FFE0
1FFC70
0E6070
00C060
00C060
0180C0
0180C0
0300C0
030180
060180
0C0180
180300
304300
602700
801E00
000E00
000400
ENDCHAR
STARTCHAR uni30AC
ENCODING 12460
SWIDTH 960 0
DWIDTH 24 0
BBX 23 24 1 -2
BITMAP
00000C
003006
001866
001C30
001830
003800
003040
20FFE0
1FFC70
0E6070
00C060
00C060
0180C0
0180C0
0300C0
030180
060180
0C0180
180300
304300
602700
801E00
000E00
000400
ENDCHAR
STARTCHAR uni30AD
ENCODING 12461
SWIDTH 1000 0
DWIDTH 24 0
BBX 22 24 1 -2
BITMAP
000038
030044
01C044
00C044
00C338
005F80
00F800
43C000
3E6000
186000
002070
0037F8
003E00
81F000
7F1800
381800
000800
000C00
000C00
000C00
000600
000600
000600
000200
ENDCHAR
STARTCHAR uni30AE
ENCODING 12462
SWIDTH 960 0
DWIDTH 24 0
BBX 23 24 1 -2
BITMAP
00000C
030006
01C066
00C030
00C330
005F80
00F800
43C000
3E6000
186000
002070
0037F8
003E00
81F000
7F1800
381800
000800
000C00
000C00
000C00
000600
000600
000600
000200
ENDCHAR
STARTCHAR uni30AF
ENCODING 12463
SWIDTH 1000 0
DWIDTH 24 0
BBX 21 23 2 -1
BITMAP
000070
000088
010088
01C088
018270
03FF00
03E380
070380
0E0700
180600
300E00
401C00
803800
007000
006000
00C000
018000
030000
060000
0C0000
180000
300000
C00000
ENDCHAR
STARTCHAR uni30B0
ENCODING 12464
SWIDTH 960 0
DWIDTH 24 0
BBX 22 23 2 -1
BITMAP
000018
00000C
0100CC
01C060
018260
03FF00
03E380
070380
0E0700
180600
300E00
401C00
803800
007000
006000
00C000
018000
030000
060000
0C0000
180000
300000
C00000
ENDCHAR
STARTCHAR uni30B1
ENCODING 12465
SWIDTH 1000 0
DWIDTH 24 0
BBX 21 23 2 -1
BITMAP
000070
030088
018088
018088
038070
030000
060000
0C01F0
1BFFF8
30F800
400C00
800C00
001800
001800
003000
003000
006000
00C000
018000
030000
060000
0C0000
300000
ENDCHAR
STARTCHAR uni30B2
ENCODING 12466
SWIDTH 960 0
DWIDTH 24 0
BBX 22 23 2 -1
BITMAP
000018
03000C
0180CC
018060
038060
030000
060000
0C01F0
1BFFF8
30F800
400C00
800C00
001800
001800
003000
003000
006000
00C000
018000
030000
060000
0C0000
300000
ENDCHAR
STARTCHAR uni30B3
ENCODING 12467
SWIDTH 1000 0
DWIDTH 24 0
BBX 20 20 3 2
BITMAP
0000E0
000110
000110
000110
0000E0
000E00
83FF00
7F8380
380300
000300
000700
000600
000600
000600
000E00
000C00
000C00
800C00
7FFE00
3E0600
ENDCHAR
STARTCHAR uni30B4
ENCODING 12468
SWIDTH 960 0
DWIDTH 24 0
BBX 21 20 3 2
BITMAP
000030
000018
000198
0000C0
0000C0
000E00
83FF00
7F8380
380300
000300
000700
000600
000600
000600
000E00
000C00
000C00
800C00
7FFE00
3E0600
ENDCHAR
STARTCHAR uni30B5
ENCODING 12469
SWIDTH 960 0
DWIDTH 24 0
BBX 24 23 0 -2
BITMAP
000600
000380
0301C0
018180
018180
01819E
819FFF
7FF180
398180
018180
018180
018380
018300
018300
010300
000600
000600
000400
000C00
001800
001000
002000
004000
ENDCHAR
STARTCHAR uni30B6
ENCODING 12470
SWIDTH 960 0
DWIDTH 24 0
BBX 24 24 0 -2
BITMAP
000006
000C03
000733
030398
018318
018300
018300
01831C
819FFE
7FF300
398300
018300
018700
018600
018600
010600
000C00
000C00
000800
001800
003000
002000
004000
008000
ENDCHAR
STARTCHAR uni30B7
ENCODING 12471
SWIDTH 960 0
DWIDTH 24 0
BBX 20 20 3 0
BITMAP
300000
1C0000
0E0000
060000
000000
000000
000010
C00020
780040
1C0080
0C0300
000600
000C00
001800
007000
01E000
878000
FF0000
7C0000
300000
ENDCHAR
STARTCHAR uni30B8
ENCODING 12472
SWIDTH 960 0
DWIDTH 24 0
BBX 21 22 3 0
BITMAP
000030
000018
300198
1C00C0
0E00C0
060000
000000
000000
000010
C00020
780040
1C0080
0C0300
000600
000C00
001800
007000
01E000
878000
FF0000
7C0000
300000
ENDCHAR
STARTCHAR uni30B9
ENCODING 12473
SWIDTH 960 0
DWIDTH 24 0
BBX 21 18 1 1
BITMAP
000300
083F80
07F1C0
038380
000300
000700
000600
000C00
000C00
001800
003800
006400
00C300
0181C0
0300E0
0C0070
300038
C00018
ENDCHAR
STARTCHAR uni30BA
ENCODING 12474
SWIDTH 960 0
DWIDTH 24 0
BBX 23 21 1 1
BITMAP
00000C
000006
000066
000630
107F30
0FE380
070300
000700
000600
000E00
000C00
001C00
001800
003000
006C00
00C300
0181C0
0300E0
0C0070
300038
C00018
ENDCHAR
STARTCHAR uni30BB
ENCODING 12475
SWIDTH 1000 0
DWIDTH 24 0
BBX 22 21 1 1
BITMAP
000038
000044
030044
018044
01C038
018000
018000
0180E0
019FF0
01F878
0F80E0
FD8180
618200
018400
018000
018000
018000
008000
00E000
007FF0
001FF0
ENDCHAR
STARTCHAR uni30BC
ENCODING 12476
SWIDTH 960 0
DWIDTH 24 0
BBX 23 21 1 1
BITMAP
00000C
000006
030066
018030
01C030
018000
018000
0180E0
019FF0
01F878
0F80E0
FD8180
618200
018400
018000
018000
018000
008000
00E000
007FF0
001FF0
ENDCHAR
STARTCHAR uni30BD
ENCODING 12477
SWIDTH 960 0
DWIDTH 24 0
BBX 18 21 3 -1
BITMAP
000300
000180
8001C0
600180
300380
380300
180700
1C0600
0C0E00
000C00
001800
001800
003000
006000
006000
00C000
018000
010000
020000
040000
080000
ENDCHAR
STARTCHAR uni30BE
ENCODING 12478
SWIDTH 960 0
DWIDTH 24 0
BBX 23 23 1 -1
BITMAP
00000C
000006
000066
000630
800330
600380
300300
380300
180600
1C0600
0C0C00
000C00
001800
001800
003000
002000
006000
00C000
008000
010000
020000
040000
080000
ENDCHAR
STARTCHAR uni30BF
ENCODING 12479
SWIDTH 960 0
DWIDTH 24 0
BBX 18 22 3 -1
BITMAP
018000
00C000
00C300
01FF80
03B9C0
030180
060380
0C0300
1B0600
318E00
C0CC00
00D800
003800
003000
006000
00C000
018000
030000
060000
0C0000
300000
C00000
ENDCHAR
STARTCHAR uni30C0
ENCODING 12480
SWIDTH 960 0
DWIDTH 24 0
BBX 22 23 2 -1
BITMAP
000018
01800C
00C0CC
00C060
018660
01FF00
036380
060300
0C0600
1B0600
318C00
C0CC00
00D800
003000
003000
006000
00C000
018000
030000
060000
0C0000
300000
C00000
ENDCHAR
STARTCHAR uni30C1
ENCODING 12481
SWIDTH 960 0
DWIDTH 24 0
BBX 22 23 1 -2
BITMAP
000400
000600
001F00
007C00
01F000
0E1800
001800
001800
0018F0
83FFFC
7F180C
381800
001800
001800
003000
003000
003000
006000
006000
00C000
008000
010000
020000
ENDCHAR
STARTCHAR uni30C2
ENCODING 12482
SWIDTH 960 0
DWIDTH 24 0
BBX 23 24 1 -2
BITMAP
00000C
000406
000666
001F30
007C30
01F000
0E1800
001800
001800
0018F0
83FFFC
7F180C
381800
001800
001800
003000
003000
003000
006000
006000
00C000
008000
010000
020000
ENDCHAR
STARTCHAR uni30C3
ENCODING 12483
SWIDTH 960 0
DWIDTH 24 0
BBX 15 14 5 -1
BITMAP
0408
820E
430C
630C
6118
2018
0030
0020
0060
00C0
0080
0100
0200
0400
ENDCHAR
STARTCHAR uni30C4
ENCODING 12484
SWIDTH 1000 0
DWIDTH 24 0
BBX 22 23 1 -1
BITMAP
000038
000044
000044
020644
030338
810380
418300
618300
718700
300600
300600
000C00
000C00
001800
001800
003000
003000
006000
00C000
018000
030000
060000
180000
ENDCHAR
STARTCHAR uni30C5
ENCODING 12485
SWIDTH 960 0
DWIDTH 24 0
BBX 23 23 1 -1
BITMAP
00000C
000006
000066
020630
030330
810380
418300
618300
718700
300600
300600
000C00
000C00
001800
001800
003000
003000
006000
00C000
018000
030000
060000
180000
ENDCHAR
STARTCHAR uni30C6
ENCODING 12486
SWIDTH 960 0
DWIDTH 24 0
BBX 22 22 1 -2
BITMAP
080780
07FFC0
03C000
000000
000000
000000
0000F0
81FFFC
7F901C
381800
001800
001800
003000
003000
003000
006000
006000
004000
00C000
008000
010000
020000
ENDCHAR
STARTCHAR uni30C7
ENCODING 12487
SWIDTH 960 0
DWIDTH 24 0
BBX 23 24 1 -2
BITMAP
00000C
000006
080E66
07FF30
038030
000000
000000
000000
0001E0
81FFF8
7F9038
381800
001800
001800
003000
003000
003000
006000
006000
004000
00C000
008000
010000
020000
ENDCHAR
STARTCHAR uni30C8
ENCODING 12488
SWIDTH 1000 0
DWIDTH 24 0
BBX 15 22 6 -1
BITMAP
C000
701C
3822
3822
3022
301C
3000
3000
3C00
3380
30E0
3038
301C
300C
3000
3000
3000
3000
3000
3000
3000
2000
ENDCHAR
STARTCHAR uni30C9
ENCODING 12489
SWIDTH 960 0
DWIDTH 24 0
BBX 15 22 6 -1
BITMAP
C000
700C
3806
3866
3030
3030
3000
3000
3C00
3380
30E0
3038
301C
300C
3000
3000
3000
3000
3000
3000
3000
2000
ENDCHAR
STARTCHAR uni30CA
ENCODING 12490
SWIDTH 960 0
DWIDTH 24 0
BBX 22 22 1 -1
BITMAP
006000
003000
001800
001800
001800
001800
0018F0
83FFFC
7F181C
381800
001800
003800
003000
003000
003000
006000
006000
004000
00C000
008000
010000
020000
ENDCHAR
STARTCHAR uni30CB
ENCODING 12491
SWIDTH 960 0
DWIDTH 24 0
BBX 22 15 1 3
BITMAP
100F00
0FFFC0
0701C0
000000
000000
000000
000000
000000
000000
000000
000000
000000
801FE0
7FFFFC
3E003C
ENDCHAR
STARTCHAR uni30CC
ENCODING 12492
SWIDTH 960 0
DWIDTH 24 0
BBX 18 20 2 -1
BITMAP
080380
07FFC0
038380
000300
000700
000600
0C0C00
030C00
00D800
007000
003800
006C00
00CE00
00C600
018700
030300
060000
0C0000
300000
C00000
ENDCHAR
STARTCHAR uni30CD
ENCODING 12493
SWIDTH 960 0
DWIDTH 24 0
BBX 21 23 2 -1
BITMAP
00C000
007000
003800
001800
000000
000600
21FF00
1F8E00
0C1C00
003800
007000
00F200
01B180
0330E0
063070
0C3038
303018
C03000
003000
003000
003000
003000
002000
ENDCHAR
STARTCHAR uni30CE
ENCODING 12494
SWIDTH 960 0
DWIDTH 24 0
BBX 18 20 3 0
BITMAP
000300
000180
0001C0
000380
000300
000700
000600
000E00
000C00
001800
003800
003000
006000
00C000
018000
030000
060000
0C0000
300000
C00000
ENDCHAR
STARTCHAR uni30CF
ENCODING 12495
SWIDTH 960 0
DWIDTH 24 0
BBX 23 15 0 3
BITMAP
030000
018200
018100
018080
0380C0
030060
030030
060038
060018
0C001C
0C000C
18000E
100006
200006
C00006
ENDCHAR
STARTCHAR uni30D0
ENCODING 12496
SWIDTH 960 0
DWIDTH 24 0
BBX 24 19 0 3
BITMAP
000006
000003
000033
000018
030018
018200
018100
018080
0380C0
030060
030030
060038
060018
0C001C
0C000C
18000E
100006
200006
C00006
ENDCHAR
STARTCHAR uni30D1
ENCODING 12497
SWIDTH 960 0
DWIDTH 24 0
BBX 24 17 0 3
BITMAP
00000E
000011
030011
018211
01810E
018080
0380C0
030060
030030
060038
060018
0C001C
0C000C
18000E
100006
200006
C00006
ENDCHAR
STARTCHAR uni30D2
ENCODING 12498
SWIDTH 960 0
DWIDTH 24 0
BBX 17 20 3 1
BITMAP
C00000
700000
380000
300000
300000
300000
303C00
3FFE00
370000
300000
300000
300000
300000
300000
300000
300000
380000
1E0380
0FFF80
03FE00
ENDCHAR
STARTCHAR uni30D3
ENCODING 12499
SWIDTH 960 0
DWIDTH 24 0
BBX 21 21 3 1
BITMAP
000030
C00018
700198
3800C0
3000C0
300000
300000
303C00
3FFE00
370000
300000
300000
300000
300000
300000
300000
300000
380000
1E0380
0FFF80
03FE00
ENDCHAR
STARTCHAR uni30D4
ENCODING 12500
SWIDTH 960 0
DWIDTH 24 0
BBX 20 20 3 1
BITMAP
C00000
7000E0
380110
300110
300110
3000E0
303C00
3FFE00
370000
300000
300000
300000
300000
300000
300000
300000
380000
1E0380
0FFF80
03FE00
ENDCHAR
STARTCHAR uni30D5
ENCODING 12501
SWIDTH 960 0
DWIDTH 24 0
BBX 18 18 3 0
BITMAP
801F00
7FFF80
1E01C0
000380
000300
000300
000600
000600
000C00
000C00
001800
003000
006000
00C000
018000
030000
0C0000
300000
ENDCHAR
STARTCHAR uni30D6
ENCODING 12502
SWIDTH 960 0
DWIDTH 24 0
BBX 22 22 2 0
BITMAP
000018
00000C
0000CC
000060
801E60
7FFF00
1E0380
000300
000700
000600
000600
000C00
000C00
001800
001800
003000
006000
00C000
018000
030000
0C0000
300000
ENDCHAR
STARTCHAR uni30D7
ENCODING 12503
SWIDTH 960 0
DWIDTH 24 0
BBX 23 20 1 0
BITMAP
00001C
000022
801E22
7FFF22
1E039C
000300
000700
000600
000600
000C00
000C00
001800
001800
003000
006000
00C000
018000
030000
0C0000
300000
ENDCHAR
STARTCHAR uni30D8
ENCODING 12504
SWIDTH 960 0
DWIDTH 24 0
BBX 24 16 0 2
BITMAP
010000
038000
02C000
066000
0C3000
0C1800
180C00
380600
F00300
600180
0000E0
000070
00003C
00001E
000007
000003
ENDCHAR
STARTCHAR uni30D9
ENCODING 12505
SWIDTH 960 0
DWIDTH 24 0
BBX 24 19 0 2
BITMAP
000060
000030
000330
010180
038180
02C000
066000
0C3000
0C1800
180C00
380600
F00300
600180
0000E0
000070
00003C
00001E
000007
000003
ENDCHAR
STARTCHAR uni30DA
ENCODING 12506
SWIDTH 960 0
DWIDTH 24 0
BBX 24 17 0 2
BITMAP
0000E0
010110
038110
02C110
0660E0
0C3000
0C1800
180C00
380600
F00300
600180
0000E0
000070
00003C
00001E
000007
000003
ENDCHAR
STARTCHAR uni30DB
ENCODING 12507
SWIDTH 960 0
DWIDTH 24 0
BBX 21 22 1 -1
BITMAP
006000
003000
003800
003000
003000
0030E0
807FF8
7FF018
3C3000
003000
003000
003080
083040
083060
183030
103038
303018
703018
613000
00F000
007000
002000
ENDCHAR
STARTCHAR uni30DC
ENCODING 12508
SWIDTH 960 0
DWIDTH 24 0
BBX 22 23 2 -1
BITMAP
000018
00C00C
0060CC
007060
006060
006000
006380
80FFE0
7FE060
386000
006000
006000
006100
106080
1060C0
306060
206070
606030
E06030
C26000
01E000
00E000
004000
ENDCHAR
STARTCHAR uni30DD
ENCODING 12509
SWIDTH 960 0
DWIDTH 24 0
BBX 23 22 1 -1
BITMAP
00C000
00601C
007022
006022
006022
00639C
80FFC0
7FE0C0
386000
006000
006000
006100
106080
1060C0
306060
206070
606030
E06030
C26000
01E000
00E000
004000
ENDCHAR
STARTCHAR uni30DE
ENCODING 12510
SWIDTH 960 0
DWIDTH 24 0
BBX 22 17 1 1
BITMAP
000070
803FF8
7FF01C
3E0038
100070
000060
0000C0
000180
000300
010400
00C800
007000
003800
001C00
000E00
000E00
000600
ENDCHAR
STARTCHAR uni30DF
ENCODING 12511
SWIDTH 960 0
DWIDTH 24 0
BBX 14 22 5 -1
BITMAP
2000
1800
0F80
03F0
0078
0018
0000
2000
3000
1E00
07E0
00F8
0018
0000
0000
8000
6000
3C00
0FE0
01F8
003C
000C
ENDCHAR
STARTCHAR uni30E0
ENCODING 12512
SWIDTH 960 0
DWIDTH 24 0
BBX 21 19 1 1
BITMAP
006000
003000
003800
003800
007000
006000
006000
00C000
00C000
008200
018100
010080
0300C0
020060
060030
8403F0
FFFC18
7F0018
300018
ENDCHAR
ENDFONT
